<?xml version="1.0" encoding="UTF-8" standalone="no"?>
<!-- Created with Inkscape (http://www.inkscape.org/) -->

<svg
   width="148mm"
   height="210mm"
   viewBox="0 0 148 210"
   version="1.1"
   id="svg1075"
   inkscape:version="1.1 (c4e8f9e, 2021-05-24)"
   sodipodi:docname="Dmel_vector.svg"
   xmlns:inkscape="http://www.inkscape.org/namespaces/inkscape"
   xmlns:sodipodi="http://sodipodi.sourceforge.net/DTD/sodipodi-0.dtd"
   xmlns="http://www.w3.org/2000/svg"
   xmlns:svg="http://www.w3.org/2000/svg">
  <sodipodi:namedview
     id="namedview1077"
     pagecolor="#ffffff"
     bordercolor="#999999"
     borderopacity="1"
     inkscape:pageshadow="0"
     inkscape:pageopacity="0"
     inkscape:pagecheckerboard="0"
     inkscape:document-units="mm"
     showgrid="false"
     inkscape:zoom="0.37770825"
     inkscape:cx="340.20968"
     inkscape:cy="612.90693"
     inkscape:window-width="1312"
     inkscape:window-height="847"
     inkscape:window-x="0"
     inkscape:window-y="25"
     inkscape:window-maximized="0"
     inkscape:current-layer="layer1" />
  <defs
     id="defs1072">
    <inkscape:path-effect
       effect="bspline"
       id="path-effect873"
       is_visible="true"
       lpeversion="1"
       weight="33.333333"
       steps="2"
       helper_size="0"
       apply_no_weight="true"
       apply_with_weight="true"
       only_selected="false" />
    <inkscape:path-effect
       effect="bspline"
       id="path-effect877"
       is_visible="true"
       lpeversion="1"
       weight="33.333333"
       steps="2"
       helper_size="0"
       apply_no_weight="true"
       apply_with_weight="true"
       only_selected="false" />
    <inkscape:path-effect
       effect="bspline"
       id="path-effect881"
       is_visible="true"
       lpeversion="1"
       weight="33.333333"
       steps="2"
       helper_size="0"
       apply_no_weight="true"
       apply_with_weight="true"
       only_selected="false" />
    <inkscape:path-effect
       effect="bspline"
       id="path-effect1001"
       is_visible="true"
       lpeversion="1"
       weight="33.333333"
       steps="2"
       helper_size="0"
       apply_no_weight="true"
       apply_with_weight="true"
       only_selected="false" />
    <inkscape:path-effect
       effect="bspline"
       id="path-effect1005"
       is_visible="true"
       lpeversion="1"
       weight="33.333333"
       steps="2"
       helper_size="0"
       apply_no_weight="true"
       apply_with_weight="true"
       only_selected="false" />
    <inkscape:path-effect
       effect="bspline"
       id="path-effect1009"
       is_visible="true"
       lpeversion="1"
       weight="33.333333"
       steps="2"
       helper_size="0"
       apply_no_weight="true"
       apply_with_weight="true"
       only_selected="false" />
    <inkscape:path-effect
       effect="bspline"
       id="path-effect1013"
       is_visible="true"
       lpeversion="1"
       weight="33.333333"
       steps="2"
       helper_size="0"
       apply_no_weight="true"
       apply_with_weight="true"
       only_selected="false" />
    <inkscape:path-effect
       effect="bspline"
       id="path-effect1017"
       is_visible="true"
       lpeversion="1"
       weight="33.333333"
       steps="2"
       helper_size="0"
       apply_no_weight="true"
       apply_with_weight="true"
       only_selected="false" />
    <inkscape:path-effect
       effect="bspline"
       id="path-effect1025"
       is_visible="true"
       lpeversion="1"
       weight="33.333333"
       steps="2"
       helper_size="0"
       apply_no_weight="true"
       apply_with_weight="true"
       only_selected="false" />
    <inkscape:path-effect
       effect="bspline"
       id="path-effect1029"
       is_visible="true"
       lpeversion="1"
       weight="33.333333"
       steps="2"
       helper_size="0"
       apply_no_weight="true"
       apply_with_weight="true"
       only_selected="false" />
    <inkscape:path-effect
       effect="bspline"
       id="path-effect1033"
       is_visible="true"
       lpeversion="1"
       weight="33.333333"
       steps="2"
       helper_size="0"
       apply_no_weight="true"
       apply_with_weight="true"
       only_selected="false" />
    <inkscape:path-effect
       effect="bspline"
       id="path-effect1037"
       is_visible="true"
       lpeversion="1"
       weight="33.333333"
       steps="2"
       helper_size="0"
       apply_no_weight="true"
       apply_with_weight="true"
       only_selected="false" />
    <inkscape:path-effect
       effect="bspline"
       id="path-effect1041"
       is_visible="true"
       lpeversion="1"
       weight="33.333333"
       steps="2"
       helper_size="0"
       apply_no_weight="true"
       apply_with_weight="true"
       only_selected="false" />
    <inkscape:path-effect
       effect="bspline"
       id="path-effect1045"
       is_visible="true"
       lpeversion="1"
       weight="33.333333"
       steps="2"
       helper_size="0"
       apply_no_weight="true"
       apply_with_weight="true"
       only_selected="false" />
    <inkscape:path-effect
       effect="bspline"
       id="path-effect1049"
       is_visible="true"
       lpeversion="1"
       weight="33.333333"
       steps="2"
       helper_size="0"
       apply_no_weight="true"
       apply_with_weight="true"
       only_selected="false" />
    <inkscape:path-effect
       effect="bspline"
       id="path-effect1053"
       is_visible="true"
       lpeversion="1"
       weight="33.333333"
       steps="2"
       helper_size="0"
       apply_no_weight="true"
       apply_with_weight="true"
       only_selected="false" />
    <inkscape:path-effect
       effect="bspline"
       id="path-effect1057"
       is_visible="true"
       lpeversion="1"
       weight="33.333333"
       steps="2"
       helper_size="0"
       apply_no_weight="true"
       apply_with_weight="true"
       only_selected="false" />
    <inkscape:path-effect
       effect="bspline"
       id="path-effect1061"
       is_visible="true"
       lpeversion="1"
       weight="33.333333"
       steps="2"
       helper_size="0"
       apply_no_weight="true"
       apply_with_weight="true"
       only_selected="false" />
    <inkscape:path-effect
       effect="bspline"
       id="path-effect1065"
       is_visible="true"
       lpeversion="1"
       weight="33.333333"
       steps="2"
       helper_size="0"
       apply_no_weight="true"
       apply_with_weight="true"
       only_selected="false" />
    <inkscape:path-effect
       effect="bspline"
       id="path-effect1069"
       is_visible="true"
       lpeversion="1"
       weight="33.333333"
       steps="2"
       helper_size="0"
       apply_no_weight="true"
       apply_with_weight="true"
       only_selected="false" />
    <inkscape:path-effect
       effect="bspline"
       id="path-effect1073"
       is_visible="true"
       lpeversion="1"
       weight="33.333333"
       steps="2"
       helper_size="0"
       apply_no_weight="true"
       apply_with_weight="true"
       only_selected="false" />
    <inkscape:path-effect
       effect="bspline"
       id="path-effect1077"
       is_visible="true"
       lpeversion="1"
       weight="33.333333"
       steps="2"
       helper_size="0"
       apply_no_weight="true"
       apply_with_weight="true"
       only_selected="false" />
    <inkscape:path-effect
       effect="bspline"
       id="path-effect1081"
       is_visible="true"
       lpeversion="1"
       weight="33.333333"
       steps="2"
       helper_size="0"
       apply_no_weight="true"
       apply_with_weight="true"
       only_selected="false" />
    <inkscape:path-effect
       effect="bspline"
       id="path-effect1085"
       is_visible="true"
       lpeversion="1"
       weight="33.333333"
       steps="2"
       helper_size="0"
       apply_no_weight="true"
       apply_with_weight="true"
       only_selected="false" />
    <inkscape:path-effect
       effect="bspline"
       id="path-effect1089"
       is_visible="true"
       lpeversion="1"
       weight="33.333333"
       steps="2"
       helper_size="0"
       apply_no_weight="true"
       apply_with_weight="true"
       only_selected="false" />
    <inkscape:path-effect
       effect="bspline"
       id="path-effect1093"
       is_visible="true"
       lpeversion="1"
       weight="33.333333"
       steps="2"
       helper_size="0"
       apply_no_weight="true"
       apply_with_weight="true"
       only_selected="false" />
    <inkscape:path-effect
       effect="bspline"
       id="path-effect1097"
       is_visible="true"
       lpeversion="1"
       weight="33.333333"
       steps="2"
       helper_size="0"
       apply_no_weight="true"
       apply_with_weight="true"
       only_selected="false" />
    <inkscape:path-effect
       effect="bspline"
       id="path-effect1101"
       is_visible="true"
       lpeversion="1"
       weight="33.333333"
       steps="2"
       helper_size="0"
       apply_no_weight="true"
       apply_with_weight="true"
       only_selected="false" />
    <inkscape:path-effect
       effect="bspline"
       id="path-effect1105"
       is_visible="true"
       lpeversion="1"
       weight="33.333333"
       steps="2"
       helper_size="0"
       apply_no_weight="true"
       apply_with_weight="true"
       only_selected="false" />
    <inkscape:path-effect
       effect="bspline"
       id="path-effect1109"
       is_visible="true"
       lpeversion="1"
       weight="33.333333"
       steps="2"
       helper_size="0"
       apply_no_weight="true"
       apply_with_weight="true"
       only_selected="false" />
    <inkscape:path-effect
       effect="bspline"
       id="path-effect1226"
       is_visible="true"
       lpeversion="1"
       weight="33.333333"
       steps="2"
       helper_size="0"
       apply_no_weight="true"
       apply_with_weight="true"
       only_selected="false" />
    <inkscape:path-effect
       effect="bspline"
       id="path-effect1230"
       is_visible="true"
       lpeversion="1"
       weight="33.333333"
       steps="2"
       helper_size="0"
       apply_no_weight="true"
       apply_with_weight="true"
       only_selected="false" />
    <inkscape:path-effect
       effect="bspline"
       id="path-effect1234"
       is_visible="true"
       lpeversion="1"
       weight="33.333333"
       steps="2"
       helper_size="0"
       apply_no_weight="true"
       apply_with_weight="true"
       only_selected="false" />
  </defs>
  <g
     inkscape:label="Layer 1"
     inkscape:groupmode="layer"
     id="layer1">
    <path
       style="display:inline;fill:none;stroke:#000000;stroke-width:1;stroke-linecap:butt;stroke-linejoin:miter;stroke-miterlimit:4;stroke-dasharray:none;stroke-opacity:1"
       d="m 123.65052,77.998796 c -0.75873,1.098005 -2.27621,3.294063 -3.33922,5.181795 -1.06301,1.887733 -1.67147,3.466992 -1.97064,5.062829 -0.29917,1.595837 -0.28903,3.208027 0.21536,4.968123 0.50439,1.760096 1.50288,3.667898 2.98704,5.524848 1.48416,1.856949 3.45378,3.662949 5.39073,4.942759 1.93695,1.27981 3.84105,2.03347 5.24931,2.37055 1.40827,0.33709 2.32065,0.25773 3.27708,-0.4109 0.95643,-0.66863 1.95709,-1.92643 2.77718,-3.21625 0.8201,-1.28982 1.45963,-2.611624 2.00243,-4.098473 0.54279,-1.486848 0.98884,-3.138709 1.19296,-4.630771 0.20412,-1.492062 0.16629,-2.824314 0.45685,-3.474057 0.29055,-0.649744 0.90916,-0.616811 1.46289,-0.929534 0.55374,-0.312724 1.04284,-0.970994 1.06546,-2.056922 0.0226,-1.085927 -0.42125,-2.599685 -1.46382,-3.91831 -1.04256,-1.318625 -2.68396,-2.442029 -4.42045,-3.461818 -1.73649,-1.019788 -3.568,-1.93586 -5.34141,-2.403782 -1.77342,-0.467922 -3.48865,-0.487528 -6.13585,-0.517788 -2.6472,-0.03026 -2.64718,-0.0303 -3.4059,1.067701 z"
       id="path871"
       inkscape:path-effect="#path-effect873"
       inkscape:original-d="m 124.40924,76.900791 c -1.51717,2.196202 -3.03465,4.392261 -4.55245,6.588184 -0.60818,1.57947 -1.21664,3.15873 -1.82543,4.7379 0.0104,1.61238 0.0206,3.22457 0.0304,4.83665 0.99883,1.90802 1.99732,3.81582 2.99553,5.72354 1.97,1.806195 3.93962,3.612195 5.90897,5.418085 1.90447,0.75383 3.80857,1.50748 5.71241,2.26102 0.91272,-0.0792 1.82509,-0.15858 2.73718,-0.23807 1.00101,-1.25773 2.00166,-2.51554 3.00206,-3.77352 0.63985,-1.32171 1.27939,-2.643505 1.91862,-3.965475 0.44637,-1.65179 0.89242,-3.30365 1.33817,-4.95569 -0.0375,-1.33218 -0.0754,-2.66443 -0.11349,-3.99686 0.61893,0.0331 1.23754,0.066 1.85585,0.0988 0.48943,-0.65817 0.97853,-1.31644 1.46735,-1.97488 -0.44359,-1.51368 -0.88746,-3.02744 -1.33165,-4.541348 -1.64116,-1.123319 -3.28255,-2.246727 -4.92428,-3.370284 -1.83129,-0.915974 -3.66279,-1.832058 -5.49464,-2.748278 -1.71037,-0.423477 -3.42099,-0.84707 -8.72462,-0.09973 z" />
    <path
       style="display:inline;fill:none;stroke:#000000;stroke-width:1;stroke-linecap:butt;stroke-linejoin:miter;stroke-miterlimit:4;stroke-dasharray:none;stroke-opacity:1"
       d="m 120.87059,84.912152 c 0.90212,-1.332984 1.68347,-1.9138 2.58636,-2.258812 0.90289,-0.345011 1.92715,-0.45429 2.98237,-0.277447 1.05522,0.176842 2.14134,0.639628 3.05286,1.137841 0.91153,0.498212 1.64843,1.031743 2.33863,1.771297 0.69019,0.739554 1.33372,1.685024 1.86291,2.98774 0.52919,1.302716 0.94412,2.962629 1.19131,4.388797 0.24719,1.426167 0.32668,2.618556 0.2332,3.563479 -0.0935,0.944923 -0.35989,1.642461 -0.85113,2.284811 -0.49125,0.642351 -1.2074,1.229594 -1.95045,1.623352 -0.74304,0.39376 -1.51304,0.59399 -2.20298,0.71662 -0.68995,0.12262 -1.29982,0.1676 -2.01871,0.0505 -0.71888,-0.11711 -1.54676,-0.39641 -2.35133,-0.77868 -0.80456,-0.382271 -1.58574,-0.867546 -2.34684,-1.423217 -0.76109,-0.555671 -1.50202,-1.181742 -2.12915,-1.961077 -0.62713,-0.779335 -1.14032,-1.711913 -1.49544,-2.846081 -0.35513,-1.134169 -0.55206,-2.4698 -0.57807,-3.604335 -0.026,-1.134535 0.11895,-2.067835 0.31904,-2.794676 0.20009,-0.72684 0.4553,-1.247117 1.35742,-2.580102 z"
       id="path875"
       inkscape:path-effect="#path-effect877"
       inkscape:original-d="m 120.99125,84.16006 c 0.78163,-0.580661 1.56299,-1.161472 2.34403,-1.74242 1.02458,-0.109145 2.04884,-0.218421 3.0728,-0.327839 1.08646,0.462939 2.17257,0.925735 3.25841,1.388387 0.73726,0.5337 1.47416,1.067235 2.2108,1.600657 0.64386,0.94564 1.28739,1.89111 1.93063,2.83647 0.41524,1.66011 0.83018,3.32002 1.2448,4.97982 0.0798,1.19258 0.15928,2.38497 0.23847,3.57726 -0.26613,0.69769 -0.53254,1.39523 -0.79926,2.09264 -0.71589,0.5874 -1.43205,1.17464 -2.14852,1.761765 -0.76974,0.2004 -1.53975,0.4006 -2.31008,0.6007 -0.60959,0.0452 -1.21947,0.0901 -1.82966,0.13492 -0.8276,-0.27919 -1.65548,-0.55848 -2.48367,-0.83793 -0.7809,-0.485175 -1.56209,-0.970435 -2.34359,-1.455855 -0.74065,-0.62595 -1.48158,-1.25202 -2.22283,-1.87825 -0.5129,-0.93247 -1.0261,-1.86504 -1.53959,-2.79779 -0.19664,-1.33554 -0.39358,-2.67117 -0.59082,-4.00696 0.14527,-0.93319 0.29023,-1.86649 0.43488,-2.79993 0.23693,-0.52926 0.47356,-1.05865 1.5332,-3.125645 z" />
    <path
       style="display:inline;fill:none;stroke:#000000;stroke-width:1;stroke-linecap:butt;stroke-linejoin:miter;stroke-miterlimit:4;stroke-dasharray:none;stroke-opacity:1"
       d="m 122.25483,80.196104 c -0.4098,-1.072249 -0.81969,-2.144715 -1.98737,-3.454321 -1.16768,-1.309606 -3.09326,-2.856279 -5.09731,-4.056983 -2.00406,-1.200705 -4.08652,-2.0553 -6.04833,-2.640036 -1.96182,-0.584736 -3.80285,-0.899502 -5.9049,-0.886324 -2.10206,0.01318 -4.464946,0.354384 -5.85542,0.752741 -1.390474,0.398358 -1.80824,0.853876 -2.959793,0.909572 -1.151554,0.0557 -3.037063,-0.288568 -5.129256,-0.272033 -2.092192,0.01653 -4.390922,0.393965 -5.939837,0.766664 -1.548914,0.372699 -2.347877,0.740696 -2.057171,2.321089 0.290707,1.580393 1.671121,4.372748 3.08714,6.274595 1.416019,1.901847 2.867424,2.913148 4.037533,3.844072 1.170109,0.930925 2.05891,1.781396 0.334049,1.939399 -1.724861,0.158003 -6.063318,-0.376286 -9.99283,-0.659771 -3.929513,-0.283484 -7.449853,-0.316117 -11.30069,-0.0659 -3.850836,0.25022 -8.031909,0.783309 -11.617641,1.809174 -3.585731,1.025865 -6.575822,2.544495 -9.220512,4.557537 -2.644689,2.013043 -4.943709,4.520353 -6.471551,6.649354 -1.527842,2.129004 -2.284346,3.879474 -2.520309,6.056124 -0.235964,2.17666 0.0486,4.7792 0.826239,6.64469 0.777637,1.86549 2.04808,2.99381 3.447036,3.7825 1.398956,0.7887 2.926261,1.23785 5.499823,1.38394 2.573561,0.14609 6.19322,-0.0108 9.33919,-0.30937 3.145971,-0.2986 5.818105,-0.73887 8.530097,-1.58174 2.711993,-0.84287 5.463747,-2.08823 7.260448,-3.13 1.796701,-1.04176 2.638363,-1.87987 3.345717,-1.6336 0.707354,0.24628 1.280345,1.5766 2.165758,2.62617 0.885414,1.04957 2.083014,1.8184 3.559044,1.96426 1.47603,0.14586 3.230416,-0.33098 4.558249,-0.74165 1.327833,-0.41066 2.229053,-0.7551 3.300058,-0.48644 1.071004,0.26867 2.311656,1.15014 3.306416,1.6414 0.99476,0.49126 1.743529,0.59242 3.152522,-0.36582 1.408994,-0.95824 3.478352,-2.97567 5.812031,-5.06187 2.33367,-2.08621 4.9315,-4.24105 7.26346,-5.48731 2.33197,-1.24625 4.39777,-1.5839 6.16018,-2.62101 1.7624,-1.037115 3.2215,-2.773584 4.68058,-4.510025"
       id="path879"
       inkscape:path-effect="#path-effect881"
       inkscape:original-d="m 122.25483,80.196104 c -0.40959,-1.072331 -0.81948,-2.144795 -1.22966,-3.2174 -1.92534,-1.546593 -3.85092,-3.093261 -5.77683,-4.640102 -2.08225,-0.8545 -4.16471,-1.709101 -6.24754,-2.563848 -1.84081,-0.314642 -3.68184,-0.629409 -5.52321,-0.944318 -2.3627,0.341359 -4.725591,0.682564 -7.088852,1.023644 -0.417478,0.455673 -0.835243,0.911192 -1.253328,1.366586 -1.885271,-0.344141 -3.77078,-0.688404 -5.656624,-1.032808 -2.298498,0.377576 -4.597228,0.755006 -6.896293,1.132307 -0.798686,0.36815 -1.597652,0.736141 -2.396925,1.104007 1.380773,2.792599 2.761185,5.584955 4.141324,8.37723 1.451744,1.011465 2.903148,2.022766 4.354265,3.033937 0.889144,0.850646 1.777947,1.701116 2.66647,2.551476 -4.338334,-0.53418 -8.676791,-1.06847 -13.015631,-1.6029 -3.520175,-0.0325 -7.040515,-0.0652 -10.561214,-0.0979 -4.180951,0.53325 -8.362024,1.06634 -12.543487,1.5993 -2.989908,1.51882 -5.979999,3.03745 -8.970452,4.55598 -2.298811,2.50754 -4.597831,5.01485 -6.897201,7.52208 -0.756236,1.750695 -1.512742,3.501165 -2.269568,5.251545 0.284879,2.60277 0.569444,5.20531 0.85371,7.80775 1.270794,1.12849 2.541237,2.25681 3.811399,3.38502 1.52767,0.44929 3.054975,0.89844 4.58201,1.34747 3.620104,-0.15674 7.239763,-0.3136 10.859192,-0.4706 2.672535,-0.44016 5.344668,-0.88044 8.016548,-1.32085 2.752179,-1.24528 5.503932,-2.49064 8.255449,-3.73616 0.842005,-0.83801 1.683668,-1.67612 2.525045,-2.51439 0.573286,1.33052 1.146299,2.66083 1.718997,3.99102 1.197955,0.769 2.395554,1.53783 3.592874,2.30653 1.754769,-0.47674 3.509157,-0.95358 5.263278,-1.43057 0.901575,-0.34432 1.802795,-0.68876 2.703743,-1.03335 1.241013,0.88165 2.481665,1.76312 3.722051,2.64448 0.749084,0.1013 1.497854,0.20246 2.246324,0.30349 2.06974,-2.01738 4.139099,-4.03481 6.208196,-6.05241 2.59823,-2.1548 5.19606,-4.30964 7.79363,-6.46467 2.0662,-0.33753 4.132,-0.67518 6.19756,-1.01297 1.45946,-1.736415 2.91856,-3.472885 4.3774,-5.209525" />
    <path
       style="display:inline;fill:none;stroke:#000000;stroke-width:1;stroke-linecap:butt;stroke-linejoin:miter;stroke-miterlimit:4;stroke-dasharray:none;stroke-opacity:1"
       d="m 80.994229,72.838503 c -6.39534,-0.125009 -12.790976,-0.250024 -19.121797,0.09135 -6.330822,0.341372 -12.596541,1.149139 -19.126208,2.057734 -6.529667,0.908595 -13.322883,1.917967 -19.427935,3.344395 -6.105051,1.426429 -11.521537,3.269855 -14.4336415,4.647333 -2.9121041,1.377478 -3.3194697,2.288856 -3.5397316,3.393306 -0.220262,1.104449 -0.2534117,2.401779 0.6522873,3.189205 0.905699,0.787425 2.7498543,1.06499 6.5081908,0.913245 3.758337,-0.151744 9.430624,-0.732702 15.02454,-1.321451 5.593916,-0.588748 11.109129,-1.18525 15.892431,-1.917634 4.783302,-0.732385 8.834446,-1.600581 13.412205,-2.178785 4.577758,-0.578204 9.681817,-0.866428 15.259173,-0.80647 5.577356,0.05996 11.627654,0.468049 17.677751,0.876127"
       id="path999"
       inkscape:path-effect="#path-effect1001"
       inkscape:original-d="M 80.994229,72.838503 C 74.598886,72.713625 68.203251,72.588606 61.8073,72.463458 c -6.265668,0.807934 -12.531387,1.615703 -18.797536,2.423351 -6.79318,1.009549 -13.586397,2.018919 -20.380049,3.028175 -5.416402,1.843644 -10.832891,3.687063 -16.2497901,5.530393 -0.4070761,0.91155 -0.8144409,1.822928 -1.2221167,2.734178 -0.032852,1.29752 -0.065998,2.59485 -0.099451,3.89207 1.8445319,0.27771 3.6886864,0.55528 5.5325738,0.83271 5.672818,-0.58084 11.345104,-1.1618 17.017201,-1.74291 5.515736,-0.59639 11.030949,-1.19289 16.545968,-1.78954 4.051609,-0.86809 8.102752,-1.73629 12.153673,-2.60464 5.104564,-0.288099 10.208623,-0.576318 15.312476,-0.864687 6.050842,0.408247 12.101139,0.816347 18.151245,1.224297" />
    <path
       style="display:inline;fill:none;stroke:#000000;stroke-width:1;stroke-linecap:butt;stroke-linejoin:miter;stroke-miterlimit:4;stroke-dasharray:none;stroke-opacity:1"
       d="m 113.73088,100.83256 c -0.87056,1.4198 -1.74115,2.83964 -1.0311,3.27491 0.71006,0.43526 3.00043,-0.11397 4.58643,-0.23082 1.586,-0.11685 2.46746,0.1985 2.9679,1.3661 0.50044,1.1676 0.62011,3.1873 -0.0568,6.10938 -0.67694,2.92209 -2.15041,6.74647 -3.15781,9.08826 -1.0074,2.34178 -1.54871,3.20091 -1.43325,5.49421 0.11547,2.29329 0.88767,6.02036 1.35023,9.64843 0.46256,3.62807 0.61549,7.15699 0.69469,9.35528 0.0792,2.19829 0.0847,3.06587 -0.14124,3.04356 -0.22591,-0.0223 -0.68328,-0.93458 -1.05132,-2.75078 -0.36804,-1.8162 -0.64662,-4.53616 -1.13999,-7.39148 -0.49336,-2.85533 -1.2015,-5.84594 -1.81904,-8.59948 -0.61753,-2.75353 -1.14441,-5.26986 -0.60282,-7.97732 0.54158,-2.70746 2.1516,-5.60565 3.12971,-7.88188 0.9781,-2.27622 1.32425,-3.93043 0.97573,-4.55823 -0.34851,-0.6278 -1.39191,-0.22903 -2.59999,0.45009 -1.20808,0.67912 -2.58072,1.63857 -4.00348,2.1824 -1.42276,0.54382 -2.8957,0.67194 -3.98926,0.65509 -1.09355,-0.0168 -1.80768,-0.17875 -2.79101,-0.61822 -0.98333,-0.43948 -2.23577,-1.1566 -3.48853,-1.87389"
       id="path1003"
       inkscape:path-effect="#path-effect1005"
       inkscape:original-d="m 113.73088,100.83256 c -0.87028,1.41997 -1.74087,2.83981 -2.61175,4.25949 2.29076,-0.54911 4.58113,-1.09835 6.87123,-1.64773 0.88184,0.3155 1.7633,0.63086 2.64451,0.94608 0.11998,2.01993 0.23964,4.03963 0.35902,6.05926 -1.47323,3.82468 -2.9467,7.64906 -4.4205,11.47338 -0.54103,0.85931 -1.08234,1.71844 -1.62397,2.57745 0.77254,3.72735 1.54475,7.45441 2.31666,11.18141 0.15324,3.52919 0.30617,7.05811 0.4588,10.58695 0.006,0.86775 0.0112,1.73533 0.0164,2.6028 -0.45709,-0.91219 -0.91446,-1.82446 -1.37215,-2.73689 -0.27828,-2.7199 -0.55687,-5.43986 -0.83577,-8.15998 -0.70786,-2.99056 -1.416,-5.98117 -2.12446,-8.97194 -0.5266,-2.5163 -1.0535,-5.03262 -1.58069,-7.54913 1.6104,-2.8982 3.22042,-5.79639 4.83019,-8.6948 0.34646,-1.65414 0.69261,-3.30834 1.03847,-4.96271 -1.04312,0.39892 -2.08652,0.79769 -3.13022,1.19633 -1.37238,0.95961 -2.74502,1.91905 -4.11798,2.87839 -1.47271,0.12825 -2.94565,0.25636 -4.41894,0.38435 -0.71384,-0.16178 -1.42797,-0.32368 -2.14241,-0.48571 -1.25219,-0.71702 -2.50464,-1.43412 -3.75741,-2.15139" />
    <path
       style="display:inline;fill:none;stroke:#000000;stroke-width:1;stroke-linecap:butt;stroke-linejoin:miter;stroke-miterlimit:4;stroke-dasharray:none;stroke-opacity:1"
       d="m 92.573357,104.35296 c -1.205147,-3.57131 -2.410363,-7.14283 -3.404188,-9.619206 -0.993825,-2.476376 -1.776281,-3.857556 -2.469255,-4.738353 -0.692974,-0.880798 -1.296566,-1.2611 -1.852044,-1.048952 -0.555479,0.212147 -1.062558,1.016935 -1.420101,2.146548 -0.357544,1.129612 -0.565496,2.583822 -0.429873,4.670594 0.135623,2.086773 0.614759,4.805879 1.031929,6.963189 0.417171,2.15732 0.772341,3.75272 1.076577,5.21488 0.304237,1.46217 0.557527,2.79102 0.820038,3.8109 0.262511,1.01988 0.534183,1.73071 0.294193,2.96796 -0.239989,1.23724 -0.99153,3.00105 -2.224008,5.30512 -1.232477,2.30407 -2.945823,5.14829 -4.391954,7.55948 -1.44613,2.41118 -2.624962,4.3892 -3.675073,6.03802 -1.05011,1.64882 -1.971448,2.96836 -2.84315,4.21803 -0.871701,1.24967 -1.69372,2.42942 -2.122438,3.30619 -0.428719,0.87678 -0.464078,1.45036 -0.196149,1.55155 0.267929,0.10119 0.838962,-0.2698 1.684439,-1.25486 0.845478,-0.98507 1.965459,-2.58419 3.174335,-4.21732 1.208876,-1.63313 2.506563,-3.30017 3.833707,-5.15671 1.327143,-1.85653 2.683687,-3.90248 3.879524,-5.83611 1.195837,-1.93364 2.230927,-3.7549 3.232074,-5.66505 1.001146,-1.91015 1.968317,-3.90912 2.470856,-4.99221 0.50254,-1.08308 0.540454,-1.25032 0.289153,-2.70721 -0.2513,-1.4569 -0.79184,-4.20343 -1.271692,-6.59137 -0.479851,-2.38795 -0.898984,-4.41716 -1.269165,-6.18509 -0.370181,-1.767929 -0.69139,-3.27448 -0.84282,-4.336822 -0.151431,-1.062342 -0.133031,-1.680373 0.302705,-1.006673 0.435736,0.6737 1.288667,2.638936 1.95286,4.243578 0.664193,1.604647 1.139616,2.848587 1.530155,3.870437 0.390539,1.02184 0.696168,1.82152 1.00172,2.621"
       id="path1007"
       inkscape:path-effect="#path-effect1009"
       inkscape:original-d="m 92.573357,104.35296 c -1.20492,-3.57139 -2.410141,-7.142905 -3.615655,-10.714575 -0.782195,-1.3811 -1.56465,-2.76228 -2.347425,-4.14364 -0.603313,-0.38018 -1.206906,-0.76048 -1.810812,-1.14093 -0.50679,0.80496 -1.013866,1.60975 -1.521264,2.41441 -0.207654,1.45443 -0.415608,2.90864 -0.62387,4.36274 0.479464,2.71935 0.958594,5.438455 1.437437,8.157475 0.355486,1.5956 0.710658,3.191 1.065536,4.78631 0.2536,1.32903 0.506892,2.65788 0.759885,3.98662 0.271987,0.71098 0.54366,1.42181 0.815027,2.13252 -0.751254,1.76401 -1.502801,3.52781 -2.254668,5.29151 -1.713116,2.84448 -3.426464,5.6887 -5.140153,8.53285 -1.178577,1.97822 -2.357407,3.95624 -3.536571,5.93418 -0.921068,1.31972 -1.842402,2.63926 -2.764064,3.95868 -0.821747,1.17992 -1.643768,2.35966 -2.4661,3.53929 -0.03507,0.57376 -0.07042,1.14734 -0.106082,1.72081 0.571359,-0.37088 1.1424,-0.74186 1.713141,-1.113 1.12033,-1.59904 2.240312,-3.19816 3.360008,-4.79745 1.298046,-1.66696 2.59573,-3.334 3.893135,-5.00121 1.3569,-2.04588 2.713432,-4.09183 4.069704,-6.13794 1.03542,-1.82118 2.070512,-3.64244 3.105317,-5.46386 0.967491,-1.9989 1.934668,-3.99787 2.901552,-5.997 0.03821,-0.16711 0.07612,-0.33435 0.113745,-0.50173 -0.54027,-2.74653 -1.080806,-5.49306 -1.621662,-8.23979 -0.41885,-2.02916 -0.837979,-4.05837 -1.257423,-6.087745 -0.320921,-1.50649 -0.642135,-3.01304 -0.96365,-4.51976 0.01869,-0.6179 0.03712,-1.23593 0.0552,-1.85409 0.853276,1.96546 1.706197,3.9307 2.558852,5.89584 0.475732,1.244155 0.951164,2.488095 1.426309,3.731935 0.305938,0.79985 0.611569,1.59953 0.916906,2.39909" />
    <path
       style="display:inline;fill:none;stroke:#000000;stroke-width:1;stroke-linecap:butt;stroke-linejoin:miter;stroke-miterlimit:4;stroke-dasharray:none;stroke-opacity:1"
       d="m 83.09178,106.26739 c -2.647789,-4.13037 -5.295731,-8.260987 -7.22783,-10.98494 -1.9321,-2.723954 -3.148359,-4.041175 -4.015805,-4.778952 -0.867446,-0.737777 -1.386142,-0.89595 -2.544078,0.0047 -1.157936,0.900688 -2.95478,2.86033 -4.660293,5.192463 -1.705514,2.332133 -3.319544,5.036571 -4.753937,7.545111 -1.434394,2.50855 -2.689054,4.82105 -3.537973,6.59667 -0.848918,1.77562 -1.29203,3.01421 -3.030545,4.06053 -1.738515,1.04632 -4.772557,1.90041 -7.500926,2.68858 -2.72837,0.78816 -5.150905,1.51037 -7.684584,2.27505 -2.533679,0.76467 -5.178348,1.57178 -7.32589,2.21434 -2.147542,0.64256 -3.797843,1.12054 -5.381549,1.57307 -1.583706,0.45252 -3.100727,0.87957 -3.905787,1.23818 -0.80506,0.35861 -0.897868,0.64866 -0.48483,0.79634 0.413037,0.14769 1.331575,0.15302 2.810704,-0.10684 1.479129,-0.25986 3.518807,-0.78482 5.625182,-1.33527 2.106376,-0.55045 4.279332,-1.12635 6.833251,-1.77146 2.55392,-0.64512 5.48864,-1.35942 7.856341,-1.95883 2.367702,-0.59942 4.168262,-1.08391 6.305351,-1.62064 2.137088,-0.53672 4.61056,-1.12564 6.170675,-1.77287 1.560116,-0.64723 2.206977,-1.3527 3.022478,-2.68271 0.815501,-1.33002 1.799649,-3.28456 2.766839,-5.28357 0.96719,-1.99901 1.917376,-4.0424 2.761056,-5.76509 0.84368,-1.72268 1.580799,-3.124561 2.315971,-4.398441 0.735173,-1.27388 1.468336,-2.419662 2.053223,-2.821243 0.584887,-0.40158 1.021253,-0.05918 1.373195,0.595498 0.351943,0.654679 0.619658,1.621599 0.979516,2.629732 0.359857,1.008132 0.811796,2.057404 1.468228,3.308604 0.656432,1.25121 1.517273,2.70426 2.301739,3.95744 0.784466,1.25317 1.492493,2.30639 2.200375,3.35939"
       id="path1011"
       inkscape:path-effect="#path-effect1013"
       inkscape:original-d="m 83.09178,106.26739 c -2.647639,-4.13047 -5.295577,-8.261085 -7.94383,-12.391845 -1.216001,-1.31714 -2.432261,-2.63436 -3.648848,-3.95174 -0.518416,-0.15804 -1.03711,-0.31622 -1.55612,-0.47453 -1.796621,1.95986 -3.593467,3.9195 -5.390647,5.87905 -1.613802,2.70467 -3.227829,5.409105 -4.84219,8.113465 -1.254414,2.31273 -2.509073,4.62523 -3.76406,6.93764 -0.442825,1.23878 -0.885937,2.47737 -1.329363,3.71585 -3.033862,0.85425 -6.067903,1.70834 -9.102308,2.56231 -2.422329,0.72237 -4.844863,1.44458 -7.267749,2.16666 -2.644472,0.80727 -5.289139,1.61438 -7.934164,2.42136 -1.650063,0.47814 -3.300367,0.95611 -4.951003,1.43397 -1.516776,0.4272 -3.033795,0.85425 -4.551152,1.28116 -0.09251,0.2902 -0.185319,0.58025 -0.278432,0.87018 0.918878,0.005 1.837413,0.0109 2.755667,0.016 2.040059,-0.52484 4.079735,-1.04981 6.119144,-1.57492 2.173342,-0.57579 4.346298,-1.15169 6.518992,-1.72773 2.935139,-0.7142 5.869861,-1.42849 8.804334,-2.14294 1.800936,-0.48438 3.601497,-0.96887 5.401791,-1.45351 2.473876,-0.58881 4.947349,-1.17773 7.420567,-1.76681 0.647191,-0.70537 1.294061,-1.41083 1.940638,-2.11646 0.984487,-1.95447 1.968633,-3.90901 2.952492,-5.86371 0.950529,-2.04333 1.900711,-4.08672 2.850613,-6.13028 0.73745,-1.4018 1.474574,-2.803675 2.211404,-4.205725 0.733493,-1.14569 1.466659,-2.29147 2.199532,-3.43741 0.436671,0.34254 0.873035,0.68494 1.30909,1.02719 0.26803,0.9671 0.535746,1.93402 0.803162,2.90082 0.452268,1.04944 0.904195,2.098715 1.355836,3.147855 0.861184,1.45326 1.722019,2.90632 2.582582,4.35927 0.708358,1.05339 1.416382,2.10661 2.124119,3.15971" />
    <path
       style="display:inline;fill:none;stroke:#000000;stroke-width:1;stroke-linecap:butt;stroke-linejoin:miter;stroke-miterlimit:4;stroke-dasharray:none;stroke-opacity:1"
       d="m 114.11388,88.967655 c -2.14186,0.885636 -4.28393,1.771363 -6.4262,2.65717"
       id="path1015"
       inkscape:path-effect="#path-effect1017"
       inkscape:original-d="m 114.11388,88.967655 c -2.14175,0.88589 -4.28384,1.77158 -6.4262,2.65717" />
    <path
       style="display:inline;fill:none;stroke:#000000;stroke-width:1;stroke-linecap:butt;stroke-linejoin:miter;stroke-miterlimit:4;stroke-dasharray:none;stroke-opacity:1"
       d="m 120.97926,81.937951 c -0.93054,-0.148469 -1.8614,-0.29699 -2.62022,-0.259202 -0.75883,0.03779 -1.34548,0.262002 -2.00685,0.598799 -0.66136,0.336796 -1.39732,0.786166 -2.13344,1.235635"
       id="path1023"
       inkscape:path-effect="#path-effect1025"
       inkscape:original-d="m 120.97926,81.937951 c -0.93055,-0.148384 -1.86141,-0.296905 -2.79257,-0.445561 -0.5864,0.224363 -1.17305,0.448583 -1.76005,0.672674 -0.73567,0.449512 -1.47163,0.89888 -2.20789,1.348119" />
    <path
       style="display:inline;fill:none;stroke:#000000;stroke-width:1;stroke-linecap:butt;stroke-linejoin:miter;stroke-miterlimit:4;stroke-dasharray:none;stroke-opacity:1"
       d="m 114.29337,86.611225 c -1.37224,-0.248595 -2.74479,-0.497248 -4.11767,-0.74596"
       id="path1027"
       inkscape:path-effect="#path-effect1029"
       inkscape:original-d="m 114.29337,86.611225 c -1.37225,-0.24852 -2.7448,-0.49718 -4.11767,-0.74596" />
    <path
       style="display:inline;fill:none;stroke:#000000;stroke-width:1;stroke-linecap:butt;stroke-linejoin:miter;stroke-miterlimit:4;stroke-dasharray:none;stroke-opacity:1"
       d="m 109.27829,86.810915 c -1.38283,-0.482625 -2.76599,-0.965364 -4.14945,-1.44821"
       id="path1031"
       inkscape:path-effect="#path-effect1033"
       inkscape:original-d="m 109.27829,86.810915 c -1.38284,-0.4826 -2.766,-0.96533 -4.14945,-1.44821" />
    <path
       style="display:inline;fill:none;stroke:#000000;stroke-width:1;stroke-linecap:butt;stroke-linejoin:miter;stroke-miterlimit:4;stroke-dasharray:none;stroke-opacity:1"
       d="m 110.20963,81.453301 c -2.01542,-1.10428 -4.03114,-2.208727 -6.04715,-3.313335"
       id="path1035"
       inkscape:path-effect="#path-effect1037"
       inkscape:original-d="m 110.20963,81.453301 c -2.0154,-1.10431 -4.03112,-2.208757 -6.04715,-3.313335" />
    <path
       style="display:inline;fill:none;stroke:#000000;stroke-width:1;stroke-linecap:butt;stroke-linejoin:miter;stroke-miterlimit:4;stroke-dasharray:none;stroke-opacity:1"
       d="m 100.88911,98.803885 c -0.52205,0.992847 -1.044111,1.985715 -1.566186,2.978605"
       id="path1039"
       inkscape:path-effect="#path-effect1041"
       inkscape:original-d="m 100.88911,98.803885 c -0.52176,0.993 -1.043819,1.985865 -1.566186,2.978605" />
    <path
       style="display:inline;fill:none;stroke:#000000;stroke-width:1;stroke-linecap:butt;stroke-linejoin:miter;stroke-miterlimit:4;stroke-dasharray:none;stroke-opacity:1"
       d="m 103.41109,85.896785 c -1.04217,-0.964679 -2.08459,-1.92958 -3.12723,-2.89469"
       id="path1043"
       inkscape:path-effect="#path-effect1045"
       inkscape:original-d="m 103.41109,85.896785 c -1.0421,-0.96476 -2.08452,-1.929655 -3.12723,-2.89469" />
    <path
       style="display:inline;fill:none;stroke:#000000;stroke-width:1;stroke-linecap:butt;stroke-linejoin:miter;stroke-miterlimit:4;stroke-dasharray:none;stroke-opacity:1"
       d="m 103.35133,80.578704 c -1.19655,-0.152008 -2.39342,-0.304057 -3.590588,-0.456144"
       id="path1047"
       inkscape:path-effect="#path-effect1049"
       inkscape:original-d="M 103.35133,80.578704 C 102.15477,80.426792 100.9579,80.274751 99.760742,80.12256" />
    <path
       style="display:inline;fill:none;stroke:#000000;stroke-width:1;stroke-linecap:butt;stroke-linejoin:miter;stroke-miterlimit:4;stroke-dasharray:none;stroke-opacity:1"
       d="m 104.15056,72.197189 c -1.98959,-1.391524 -3.97943,-2.783228 -5.969554,-4.175129"
       id="path1051"
       inkscape:path-effect="#path-effect1053"
       inkscape:original-d="m 104.15056,72.197189 c -1.98955,-1.391576 -3.97939,-2.783285 -5.969554,-4.175129" />
    <path
       style="display:inline;fill:none;stroke:#000000;stroke-width:1;stroke-linecap:butt;stroke-linejoin:miter;stroke-miterlimit:4;stroke-dasharray:none;stroke-opacity:1"
       d="M 96.748059,71.90218 C 95.346339,71.049656 93.944344,70.196966 92.542061,69.3441"
       id="path1055"
       inkscape:path-effect="#path-effect1057"
       inkscape:original-d="m 96.748059,71.90218 c -1.4017,-0.852557 -2.803692,-1.705252 -4.205998,-2.55808" />
    <path
       style="display:inline;fill:none;stroke:#000000;stroke-width:1;stroke-linecap:butt;stroke-linejoin:miter;stroke-miterlimit:4;stroke-dasharray:none;stroke-opacity:1"
       d="M 94.400708,78.839394 C 92.68547,77.62073 90.969954,76.40187 89.330571,75.518366 c -1.639384,-0.883503 -3.202622,-1.431552 -4.579292,-1.822299 -1.37667,-0.390748 -2.566695,-0.624124 -3.75705,-0.857564"
       id="path1059"
       inkscape:path-effect="#path-effect1061"
       inkscape:original-d="m 94.400708,78.839394 c -1.715203,-1.218713 -3.43072,-2.437572 -5.146524,-3.656566 -1.563006,-0.547939 -3.126243,-1.09599 -4.689829,-1.644188 -1.18976,-0.233248 -2.379786,-0.466622 -3.570126,-0.700137" />
    <path
       style="display:inline;fill:none;stroke:#000000;stroke-width:1;stroke-linecap:butt;stroke-linejoin:miter;stroke-miterlimit:4;stroke-dasharray:none;stroke-opacity:1"
       d="M 88.781304,74.218026 C 87.832968,73.6435 86.884344,73.068799 85.782057,72.500735 84.67977,71.932672 83.423853,71.371305 82.167587,70.809782"
       id="path1063"
       inkscape:path-effect="#path-effect1065"
       inkscape:original-d="M 88.781304,74.218026 C 87.832992,73.64346 86.884366,73.068762 85.93544,72.493928 84.679771,71.932669 83.423856,71.371298 82.167587,70.809782" />
    <path
       style="display:inline;fill:none;stroke:#000000;stroke-width:1;stroke-linecap:butt;stroke-linejoin:miter;stroke-miterlimit:4;stroke-dasharray:none;stroke-opacity:1"
       d="m 117.31661,78.308154 c -0.66602,-0.925399 -1.33221,-1.85104 -2.36269,-2.776316 -1.03049,-0.925275 -2.42532,-1.8501 -3.82047,-2.775133"
       id="path1067"
       inkscape:path-effect="#path-effect1069"
       inkscape:original-d="m 117.31661,78.308154 c -0.66588,-0.925498 -1.33208,-1.851132 -1.99856,-2.776906 -1.39459,-0.924732 -2.78942,-1.849561 -4.1846,-2.774543" />
    <path
       style="display:inline;fill:none;stroke:#000000;stroke-width:1;stroke-linecap:butt;stroke-linejoin:miter;stroke-miterlimit:4;stroke-dasharray:none;stroke-opacity:1"
       d="m 111.61915,77.569771 c -1.106,-0.896099 -2.21224,-1.792398 -2.96444,-2.216647 -0.75221,-0.424248 -1.1504,-0.376203 -1.54888,-0.328123"
       id="path1071"
       inkscape:path-effect="#path-effect1073"
       inkscape:original-d="m 111.61915,77.569771 c -1.10594,-0.896169 -2.21218,-1.79247 -3.31874,-2.688907 -0.39789,0.04818 -0.79608,0.09623 -1.19458,0.144137" />
    <path
       style="display:inline;fill:none;stroke:#000000;stroke-width:1;stroke-linecap:butt;stroke-linejoin:miter;stroke-miterlimit:4;stroke-dasharray:none;stroke-opacity:1"
       d="m 109.58636,71.161068 c -1.58965,-1.162529 -3.17956,-2.325244 -4.76974,-3.488157"
       id="path1075"
       inkscape:path-effect="#path-effect1077"
       inkscape:original-d="m 109.58636,71.161068 c -1.58961,-1.162589 -3.17952,-2.325302 -4.76974,-3.488157" />
    <path
       style="display:inline;fill:none;stroke:#000000;stroke-width:1;stroke-linecap:butt;stroke-linejoin:miter;stroke-miterlimit:4;stroke-dasharray:none;stroke-opacity:1"
       d="m 131.087,77.096701 c -0.17187,-0.796933 -0.34379,-1.594048 -0.6915,-2.373716 -0.34771,-0.779669 -0.87132,-1.541905 -1.56991,-2.154347 -0.69859,-0.612441 -1.57223,-1.074964 -2.44622,-1.537668"
       id="path1079"
       inkscape:path-effect="#path-effect1081"
       inkscape:original-d="m 131.087,77.096701 c -0.1716,-0.796992 -0.34352,-1.594105 -0.51574,-2.39135 -0.52332,-0.762138 -1.04693,-1.524373 -1.57086,-2.286759 -0.87339,-0.462417 -1.74703,-0.924946 -2.62103,-1.387622" />
    <path
       style="display:inline;fill:none;stroke:#000000;stroke-width:1;stroke-linecap:butt;stroke-linejoin:miter;stroke-miterlimit:4;stroke-dasharray:none;stroke-opacity:1"
       d="m 127.36669,80.907921 c -0.23369,-0.327919 -0.46754,-0.656076 -0.76883,-0.969187 -0.30129,-0.313111 -0.67009,-0.611148 -1.19078,-0.936126 -0.52068,-0.324979 -1.19328,-0.676842 -1.6644,-0.872111 -0.47112,-0.195269 -0.74074,-0.233824 -1.0107,-0.272429"
       id="path1083"
       inkscape:path-effect="#path-effect1085"
       inkscape:original-d="m 127.36669,80.907921 c -0.23354,-0.328023 -0.4674,-0.656176 -0.70155,-0.984452 -0.36851,-0.297915 -0.73732,-0.595945 -1.10643,-0.894128 -0.6723,-0.351733 -1.3449,-0.703596 -2.01782,-1.055599 -0.26934,-0.03843 -0.53896,-0.07698 -0.80891,-0.115674" />
    <path
       style="display:inline;fill:none;stroke:#000000;stroke-width:1;stroke-linecap:butt;stroke-linejoin:miter;stroke-miterlimit:4;stroke-dasharray:none;stroke-opacity:1"
       d="m 136.21524,82.295749 c 0.55106,0.262613 1.10181,0.525077 1.58288,0.870516 0.48106,0.345438 0.8925,0.773756 1.14777,1.441889 0.25526,0.668134 0.35454,1.576102 0.35792,2.115238 0.003,0.539136 -0.0891,0.709613 -0.18162,0.880123"
       id="path1087"
       inkscape:path-effect="#path-effect1089"
       inkscape:original-d="m 136.21524,82.295749 c 0.55107,0.262599 1.10182,0.525062 1.65227,0.787402 0.41176,0.428463 0.8232,0.856783 1.23434,1.284966 0.0996,0.908138 0.19886,1.816108 0.29784,2.723948 -0.0922,0.17062 -0.18469,0.3411 -0.2775,0.51145" />
    <path
       style="display:inline;fill:none;stroke:#000000;stroke-width:1;stroke-linecap:butt;stroke-linejoin:miter;stroke-miterlimit:4;stroke-dasharray:none;stroke-opacity:1"
       d="m 100.04594,93.900705 c 0.95782,-1.556463 1.91562,-3.112894 2.8734,-4.6693"
       id="path1091"
       inkscape:path-effect="#path-effect1093"
       inkscape:original-d="m 100.04594,93.900705 c 0.9581,-1.55629 1.9159,-3.11272 2.8734,-4.6693" />
    <path
       style="display:inline;fill:none;stroke:#000000;stroke-width:1;stroke-linecap:butt;stroke-linejoin:miter;stroke-miterlimit:4;stroke-dasharray:none;stroke-opacity:1"
       d="M 95.685805,102.39881 C 94.028809,99.82356 92.371663,97.248078 90.714368,94.672365"
       id="path1095"
       inkscape:path-effect="#path-effect1097"
       inkscape:original-d="M 95.685805,102.39881 C 94.028957,99.823465 92.371823,97.247975 90.714368,94.672365" />
    <path
       style="display:inline;fill:none;stroke:#000000;stroke-width:1;stroke-linecap:butt;stroke-linejoin:miter;stroke-miterlimit:4;stroke-dasharray:none;stroke-opacity:1"
       d="m 98.779885,86.931825 c -1.353034,-0.155544 -2.70638,-0.311125 -4.06003,-0.46674"
       id="path1099"
       inkscape:path-effect="#path-effect1101"
       inkscape:original-d="m 98.779885,86.931825 c -1.353046,-0.15544 -2.706391,-0.31103 -4.06003,-0.46674" />
    <path
       style="display:inline;fill:none;stroke:#000000;stroke-width:1;stroke-linecap:butt;stroke-linejoin:miter;stroke-miterlimit:4;stroke-dasharray:none;stroke-opacity:1"
       d="M 97.505296,84.00312 C 96.433853,83.636512 95.362108,83.269801 94.290041,82.902979"
       id="path1103"
       inkscape:path-effect="#path-effect1105"
       inkscape:original-d="M 97.505296,84.00312 C 96.433845,83.636534 95.3621,83.269825 94.290041,82.902979" />
    <path
       style="display:inline;fill:none;stroke:#000000;stroke-width:1;stroke-linecap:butt;stroke-linejoin:miter;stroke-miterlimit:4;stroke-dasharray:none;stroke-opacity:1"
       d="m 96.288381,88.381145 c -0.974473,0.554988 -1.949117,1.110074 -2.923938,1.66526"
       id="path1107"
       inkscape:path-effect="#path-effect1109"
       inkscape:original-d="m 96.288381,88.381145 c -0.974341,0.55522 -1.948983,1.11031 -2.923938,1.66526" />
    <path
       style="display:inline;fill:none;stroke:#000000;stroke-width:1;stroke-linecap:butt;stroke-linejoin:miter;stroke-miterlimit:4;stroke-dasharray:none;stroke-opacity:1"
       d="m 141.91231,83.272144 c 0.23103,-0.577817 0.46207,-1.155654 0.95601,-1.834002 0.49394,-0.678347 1.25068,-1.457087 1.87799,-1.885065 0.62731,-0.427979 1.12497,-0.505214 1.62237,-0.582408"
       id="path1224"
       inkscape:path-effect="#path-effect1226"
       inkscape:original-d="m 141.91231,83.272144 c 0.23134,-0.577693 0.46238,-1.155529 0.69311,-1.733502 0.75706,-0.778634 1.5138,-1.55737 2.27025,-2.336263 0.49798,-0.07711 0.99564,-0.154338 1.49301,-0.23171" />
    <path
       style="display:inline;fill:none;stroke:#000000;stroke-width:1;stroke-linecap:butt;stroke-linejoin:miter;stroke-miterlimit:4;stroke-dasharray:none;stroke-opacity:1"
       d="m 139.65139,81.199047 c 0.53936,-0.658063 1.07867,-1.316053 1.61792,-1.973982"
       id="path1228"
       inkscape:path-effect="#path-effect1230"
       inkscape:original-d="m 139.65139,81.199047 c 0.5396,-0.657869 1.07891,-1.315854 1.61792,-1.973982" />
    <path
       style="display:inline;fill:none;stroke:#000000;stroke-width:1;stroke-linecap:butt;stroke-linejoin:miter;stroke-miterlimit:4;stroke-dasharray:none;stroke-opacity:1"
       d="m 126.29772,78.029059 c -0.17039,-1.28138 -0.34081,-2.56292 -0.88342,-3.612506 -0.54261,-1.049586 -1.45759,-1.867216 -2.17499,-2.365033 -0.7174,-0.497817 -1.23725,-0.675693 -1.75742,-0.853677"
       id="path1232"
       inkscape:path-effect="#path-effect1234"
       inkscape:original-d="m 126.29772,78.029059 c -0.17012,-1.281416 -0.34052,-2.562959 -0.51125,-3.844643 -0.91471,-0.817527 -1.82969,-1.635159 -2.745,-2.452937 -0.51957,-0.177751 -1.03942,-0.355625 -1.55958,-0.533636" />
    <path
       style="display:inline;fill:none;fill-opacity:1;stroke:#000000;stroke-width:1;stroke-miterlimit:4;stroke-dasharray:none;stroke-opacity:1"
       d="m 128.5796,100.54307 c -3.14427,-0.31668 -7.13686,-3.354585 -8.2555,-6.281475 -2.34641,-6.13939 1.34485,-12.568122 6.52627,-11.366203 2.85856,0.663081 4.94504,2.400743 6.21223,5.173653 1.1674,2.55455 1.8934,6.16942 1.66347,8.28264 -0.26328,2.41957 -3.28429,4.479645 -6.14647,4.191385 z"
       id="path1392" />
    <path
       style="display:inline;fill:none;fill-opacity:1;stroke:#000000;stroke-width:1;stroke-miterlimit:4;stroke-dasharray:none;stroke-opacity:1"
       d="m 91.806152,113.24502 c -1.325392,-0.65946 -2.418588,-1.47516 -2.445388,-1.82462 -0.02668,-0.34761 -0.72446,-3.97824 -1.55067,-8.06807 -0.826216,-4.089825 -1.455224,-7.541185 -1.397783,-7.669685 0.05738,-0.12849 0.993869,2.09362 2.080972,4.938015 1.398417,3.65895 2.104421,5.12275 2.413729,5.00454 0.322143,-0.12312 -0.184872,-1.59648 -1.926883,-5.5994 -3.800043,-8.731975 -4.154171,-8.083795 -1.847574,3.38176 0.930224,4.62388 1.656513,8.48491 1.613993,8.58005 -0.177893,0.39799 -2.261941,0.39731 -2.409281,-6.6e-4 -0.37341,-1.00879 -2.600234,-12.619925 -2.868325,-14.955885 -0.471058,-4.10459 0.525518,-8.03433 1.967739,-7.75919 0.973433,0.18571 3.030177,4.21847 4.951997,9.70968 1.08799,3.108685 2.114745,5.599955 2.281789,5.536105 0.310025,-0.11849 -2.127039,-7.114975 -3.999503,-11.482015 -1.053985,-2.45814 -2.854358,-4.5758 -3.83686,-4.51302 -0.297034,0.019 -0.946531,0.94387 -1.443318,2.05529 -1.156608,2.58763 -0.97267,5.66094 0.893203,14.923975 0.775311,3.84899 1.349682,7.13233 1.276384,7.29633 -0.259679,0.58096 -4.082825,0.7105 -5.289587,0.17922 -0.673644,-0.29657 -1.874668,-1.34048 -2.66894,-2.31978 l -1.444131,-1.78057 -1.642689,0.6837 c -0.903479,0.37604 -3.233909,1.44041 -5.17872,2.36529 -2.383805,1.13363 -4.61022,1.91136 -6.832554,2.38674 l -3.296529,0.70516 1.244173,-2.25714 c 0.684294,-1.24143 2.378769,-4.61866 3.765506,-7.50496 2.877351,-5.988815 4.892645,-9.514575 5.591008,-9.781485 0.347796,-0.13293 0.989752,0.97176 2.320009,3.99228 1.922564,4.365445 5.294956,10.011115 5.85272,9.797945 0.1785,-0.0682 0.306067,-0.16573 0.283429,-0.21675 -0.02293,-0.0509 -0.995506,-1.58196 -2.161952,-3.40216 -1.191643,-1.85951 -2.697009,-4.81051 -3.435941,-6.735545 -0.909442,-2.36883 -1.568634,-3.58896 -2.136718,-3.95392 -0.800556,-0.51431 -0.847859,-0.4976 -1.846865,0.65244 -0.563911,0.64913 -2.895384,4.925235 -5.181055,9.502455 -2.285672,4.57724 -4.49902,8.70906 -4.918552,9.18184 -0.667414,0.75213 -1.214937,0.88017 -4.379122,1.02416 l -3.616343,0.16454 1.7406,-0.70748 c 2.010713,-0.81722 2.990533,-2.12269 6.425941,-8.56142 4.464851,-8.368165 9.113463,-14.767265 11.348031,-15.621305 0.820988,-0.31377 1.240732,-0.13216 2.358387,1.02042 1.40331,1.44715 6.12234,8.12438 8.583407,12.145175 1.35065,2.20665 2.601987,3.47104 2.077792,2.09947 -0.421033,-1.10161 -7.525144,-11.672865 -9.151371,-13.617665 -2.874294,-3.43735 -3.867778,-3.37929 -7.259377,0.42429 -2.716045,3.04595 -5.5962,7.501665 -9.161653,14.173445 -1.484815,2.77843 -3.035867,5.44714 -3.446781,5.93048 -0.442171,0.52009 -1.851441,1.29408 -3.452705,1.89627 -3.097199,1.16478 -5.57589,1.00022 -8.549379,-0.56753 -2.097325,-1.10579 -2.73352,-1.99238 -3.632945,-5.06278 -1.353589,-4.6208 -0.188037,-8.56665 3.895665,-13.188335 3.564729,-4.03435 6.411535,-5.99829 11.379941,-7.85076 7.095794,-2.64566 15.012831,-3.32382 27.678255,-2.37086 7.049398,0.5304 8.866501,0.40257 8.484536,-0.59684 -0.10978,-0.28722 -1.420844,-1.628836 -2.913471,-2.981349 -2.300866,-2.08486 -2.923045,-2.911008 -4.08829,-5.428483 -0.755914,-1.63316 -1.253028,-3.015762 -1.104679,-3.072461 0.555478,-0.212298 4.352601,0.927502 6.457439,1.938354 1.20026,0.576437 3.034591,1.649332 4.076274,2.384212 1.04169,0.734878 1.970946,1.306738 2.065013,1.270781 0.556399,-0.21265 -0.54102,-1.225918 -2.989479,-2.760225 -1.536635,-0.962922 -2.67233,-1.909951 -2.523769,-2.104509 0.148575,-0.194559 -0.767267,-0.899039 -2.03519,-1.56551 l -2.305314,-1.211768 1.608501,-0.295298 c 2.426645,-0.445496 8.011745,-0.181572 9.41313,0.444814 1.31921,0.589661 1.966347,0.261119 0.790437,-0.401295 -0.594614,-0.334955 -0.557852,-0.447805 0.245965,-0.755016 2.409138,-0.920752 3.447999,-0.803359 5.359409,0.605618 1.04003,0.766646 2.0435,1.335607 2.22994,1.264353 0.53198,-0.203323 0.28133,-0.49267 -1.24504,-1.437202 -0.78103,-0.48331 -1.45985,-0.98283 -1.50846,-1.110047 -0.11841,-0.309834 3.06306,-0.377153 4.69599,-0.09937 0.71769,0.122096 1.7979,0.614308 2.40044,1.093811 0.70679,0.562461 1.13213,0.67993 1.19869,0.331044 0.15523,-0.813656 6.59462,2.459739 8.78837,4.467482 2.52237,2.308491 3.58388,4.170475 2.94257,5.161478 -0.40418,0.624546 -0.70558,0.728622 -1.76448,0.609304 -1.48426,-0.167222 -4.71709,0.973604 -5.31838,1.876789 -0.30662,0.460572 0.0233,0.391907 1.27842,-0.266078 1.52319,-0.798509 4.20704,-1.267575 4.39774,-0.768611 0.0413,0.107917 -0.46315,1.536376 -1.12088,3.174352 -1.35118,3.36492 -1.43834,6.01576 -0.29611,9.00442 l 0.75077,1.96439 -1.85566,1.8148 c -1.27095,1.24297 -2.55404,2.087015 -4.07204,2.678695 -4.77996,1.86302 -10.07158,5.53588 -15.280769,10.60605 -0.818759,0.79691 -2.049177,1.79297 -2.734241,2.21347 -1.158962,0.71137 -1.412323,0.6816 -3.642531,-0.42808 z m 8.781028,-13.0184 c 0.44749,-0.866895 0.62942,-1.658515 0.40427,-1.759155 -0.22515,-0.10063 -0.79861,0.68789 -1.274368,1.752275 -1.02146,2.28525 -0.308913,2.29088 0.870098,0.007 z m -5.001535,1.3336 c -0.285626,-0.42753 -1.419684,-2.155445 -2.520126,-3.839795 -1.898418,-2.9057 -2.889196,-4.04347 -2.394926,-2.75021 0.123821,0.32397 1.198295,2.11406 2.387735,3.97801 1.189439,1.863925 2.187981,3.455365 2.218998,3.536515 0.03104,0.0811 0.229917,0.0812 0.442006,1.7e-4 0.212096,-0.0811 0.151939,-0.49718 -0.133687,-0.92469 z M 114.35537,88.857085 c -0.16456,-0.4306 -2.0423,0.28014 -4.92542,1.86422 -1.84548,1.01402 -1.74659,1.00117 1.54937,-0.20135 2.12911,-0.77677 3.4635,-1.43408 3.37604,-1.66291 z m -12.32231,2.57595 c 1.12416,-1.73455 1.46338,-2.76262 0.83192,-2.52128 -0.42209,0.16132 -3.138414,4.78914 -3.009305,5.12695 0.156895,0.41052 0.449725,0.06 2.177385,-2.60567 z m 12.24452,-5.04898 c -0.16063,-0.42029 -4.16382,-0.90694 -4.33372,-0.52682 -0.0784,0.17527 0.76144,0.47835 1.86621,0.67349 2.10341,0.37157 2.65309,0.33889 2.46751,-0.14667 z m -4.68442,0.22534 c -0.13708,-0.35865 -4.59764,-1.61508 -4.7247,-1.33084 -0.17977,0.4022 3.65192,1.86294 4.30055,1.63948 0.26348,-0.0907 0.45434,-0.22966 0.42415,-0.30864 z m -13.18703,1.90237 c 0.222296,-0.44999 -0.38277,-0.30643 -1.855591,0.44029 -0.849196,0.43054 -1.480019,0.95017 -1.401842,1.15472 0.129498,0.33883 2.995339,-1.06445 3.257433,-1.59501 z m 7.24173,-2.70661 c -0.18469,-0.48323 -3.08155,-2.953887 -3.34527,-2.853099 -0.437533,0.167229 -0.328197,0.321924 1.32079,1.868879 1.24554,1.16847 2.28873,1.67563 2.02448,0.98422 z m -4.758803,1.16545 c -0.186134,-0.48702 -3.714955,-0.85845 -4.213496,-0.44351 -0.212689,0.17703 0.634624,0.44098 1.882903,0.58658 2.674917,0.31199 2.508425,0.32221 2.330593,-0.14307 z M 110.58498,81.29907 c -0.20774,-0.478836 -6.44267,-3.514243 -6.58271,-3.204732 -0.15863,0.350571 5.91636,3.78467 6.38102,3.607084 0.17751,-0.06782 0.26828,-0.248905 0.20169,-0.402352 z m 6.53284,-3.797843 c -0.88069,-1.284724 -2.99835,-3.213337 -4.71809,-4.296885 -2.33548,-1.471503 -1.82567,-0.530751 0.8409,1.551714 1.36783,1.06822 2.78552,2.396663 3.15043,2.952104 0.36491,0.555432 0.82348,0.948739 1.01904,0.873998 0.19623,-0.075 0.0653,-0.559353 -0.29228,-1.080931 z m -20.881395,5.667987 c -2.387005,-0.909803 -2.964159,-0.407885 -0.619627,0.538844 1.080266,0.436207 2.034535,0.635565 2.120605,0.443003 0.08607,-0.192562 -0.589374,-0.634378 -1.500978,-0.981847 z m 7.116335,-2.675155 c -0.18695,-0.489132 -3.602341,-0.84661 -3.802852,-0.398033 -0.08557,0.191464 0.721422,0.451333 1.793342,0.577488 2.31312,0.272247 2.18647,0.283559 2.00951,-0.179455 z m 6.80475,-4.490717 c -1.56644,-1.255478 -2.92725,-1.664963 -3.20545,-0.964572 -0.0738,0.185732 0.1101,0.332255 0.4086,0.325616 0.2985,-0.0066 1.3597,0.550575 2.35821,1.238251 2.28626,1.574533 2.60594,1.137765 0.43864,-0.599295 z"
       id="path9067" />
    <path
       style="display:inline;fill:none;fill-opacity:1;stroke:#000000;stroke-width:1;stroke-miterlimit:4;stroke-dasharray:none;stroke-opacity:1"
       d="m 86.431238,84.573226 c -7.56282,-0.59286 -15.570198,-0.787633 -21.417813,-0.520981 -5.183648,0.236379 -8.74487,0.66606 -16.737337,2.01946 -6.706054,1.13557 -14.064706,2.06946 -24.689641,3.13338 -13.409405,1.34275 -17.1739271,1.21344 -17.8723218,-0.61391 -0.2856528,-0.7474 0.047596,-2.78985 0.5603126,-3.43414 0.8514809,-1.069973 2.9119719,-2.083211 7.4547532,-3.665839 8.035146,-2.79932 15.068403,-4.252744 31.045184,-6.415499 12.209259,-1.652751 19.067173,-2.101436 30.003379,-1.962998 l 5.991088,0.07584 1.004212,2.541196 c 1.423682,3.602872 2.862784,5.502553 6.186598,8.166525 0.509307,0.408206 0.843826,0.764365 0.743386,0.791455 -0.100453,0.0271 -1.122745,-0.0244 -2.271745,-0.114509 z"
       id="path19391" />
    <path
       style="display:inline;fill:none;fill-opacity:1;stroke:#000000;stroke-width:1;stroke-miterlimit:4;stroke-dasharray:none;stroke-opacity:1"
       d="m 89.586949,75.500297 c -0.835809,-0.485152 -2.338787,-1.141867 -3.549282,-1.55083 -1.219644,-0.412045 -3.016893,-0.871406 -4.466693,-1.14164 -0.07197,-0.01341 -0.07746,-0.02483 -0.06379,-0.134073 0.02067,-0.166049 0.183556,-0.40207 0.388604,-0.56303 0.131893,-0.103529 0.282774,-0.175965 0.634275,-0.304498 0.734585,-0.268607 0.633996,-0.280329 1.650461,0.192186 1.405711,0.653456 2.354091,1.159419 3.845116,2.051375 0.491035,0.29375 0.618309,0.387469 0.686477,0.505532 0.0969,0.167774 0.521616,0.582617 0.870531,0.850221 0.132759,0.101828 0.237613,0.193572 0.233008,0.203881 -0.0048,0.01029 -0.107501,-0.0388 -0.228662,-0.109129 z"
       id="path24188" />
    <path
       style="display:inline;fill:none;fill-opacity:1;stroke:#000000;stroke-width:1;stroke-miterlimit:4;stroke-dasharray:none;stroke-opacity:1"
       d="m 46.172235,118.62643 c -3.179491,0.78516 -9.551738,2.38545 -14.160549,3.55618 -4.608811,1.17075 -8.869728,2.10147 -9.468703,2.06829 l -1.089047,-0.0603 1.244213,-0.3236 c 0.684315,-0.17798 4.210971,-1.21799 7.837007,-2.31114 17.249523,-5.20024 17.403384,-5.23922 20.890023,-5.29094 3.094385,-0.0459 3.173524,-0.0273 1.879183,0.44303 -0.743173,0.27003 -3.95264,1.13336 -7.132127,1.91852 z"
       id="path25083" />
    <path
       style="display:inline;fill:none;fill-opacity:1;stroke:#000000;stroke-width:1;stroke-miterlimit:4;stroke-dasharray:none;stroke-opacity:1"
       d="m 70.977622,142.01973 c 0.0625,-0.49222 0.801654,-1.71978 2.648608,-4.39879 4.044711,-5.86689 10.143703,-16.14819 11.826703,-19.93673 0.914006,-2.05749 1.25266,-3.25695 1.153476,-4.0854 -0.04339,-0.36257 0.0014,-0.40359 0.630072,-0.57641 1.022395,-0.28109 1.677493,-0.28919 1.778588,-0.022 0.374774,0.98982 -0.172598,2.51402 -2.518174,7.01433 -2.909658,5.58259 -5.3408,9.29479 -11.517975,17.58715 -3.053409,4.09899 -4.108806,5.26424 -4.001298,4.41784 z"
       id="path25122" />
    <path
       style="display:inline;fill:none;fill-opacity:1;stroke:#000000;stroke-width:1;stroke-miterlimit:4;stroke-dasharray:none;stroke-opacity:1"
       d="m 117.06216,146.38772 c -0.15961,-0.55498 -0.5421,-2.67675 -0.85003,-4.71502 -0.6724,-4.45113 -0.96833,-6.02397 -2.02202,-10.74696 -0.97905,-4.38844 -1.21268,-5.86155 -1.18702,-7.48472 0.0321,-2.03429 0.45928,-3.45611 2.35846,-7.85104 1.78362,-4.12746 2.21592,-5.53772 2.00354,-6.53592 -0.28233,-1.32694 -1.36663,-1.10515 -4.89609,1.00153 -2.35039,1.4029 -4.51802,1.9232 -6.85199,1.64468 -0.86579,-0.10331 -1.54599,-0.32646 -2.55864,-0.83943 -2.2759,-1.15287 -2.24577,-0.87641 -0.28316,-2.59812 3.43711,-3.01522 5.91402,-4.67217 8.4147,-5.62908 l 1.37537,-0.52633 -0.24897,0.67067 c -0.19823,0.53393 -0.20111,0.76991 -0.0141,1.15755 0.3162,0.65562 0.82751,0.72356 3.33394,0.44295 2.27931,-0.25516 2.99379,-0.23336 3.56569,0.10884 0.5996,0.35879 0.89388,0.94661 1.05378,2.10494 0.37508,2.71726 -0.76252,7.17012 -3.4699,13.582 -0.60462,1.43193 -1.18276,2.95404 -1.28477,3.38249 -0.32392,1.36051 -0.22917,2.74127 0.55019,8.01767 0.4183,2.83206 0.83979,6.1269 0.93661,7.32188 0.2102,2.59415 0.40798,6.56957 0.38276,7.69355 l -0.0181,0.8069 z"
       id="path25161" />
    <path
       style="display:inline;fill:none;fill-opacity:1;stroke:#000000;stroke-width:1;stroke-miterlimit:4;stroke-dasharray:none;stroke-opacity:1"
       d="m 133.17745,105.82706 c -1.64662,-0.12513 -5.23448,-1.769 -7.24178,-3.31805 -3.0669,-2.36673 -5.06653,-4.805695 -6.37729,-7.778405 -1.06343,-2.41176 -1.26987,-3.97699 -0.83659,-6.34323 0.50575,-2.76212 2.69455,-6.884778 4.37356,-8.237721 1.55718,-1.254762 1.69075,-1.262641 2.9185,-0.1721 1.03083,0.915623 1.8015,1.22064 1.57292,0.622533 -0.0563,-0.147204 -0.52284,-0.650514 -1.03681,-1.118482 l -0.9345,-0.850828 0.76773,-0.285928 c 1.44352,-0.537642 3.92773,-0.889767 5.34849,-0.758104 0.78086,0.07237 2.1448,0.427071 3.031,0.788244 1.90922,0.778108 4.6314,2.301568 4.77258,2.670952 0.0549,0.14369 0.30572,0.301517 0.55732,0.350744 0.67919,0.132862 1.84477,1.241436 1.71296,1.629188 -0.1249,0.367439 0.11231,0.524809 0.4008,0.26588 0.13167,-0.118213 0.38863,0.08381 0.73536,0.578048 1.54114,2.196904 1.43888,4.720924 -0.2169,5.353754 -1.0506,0.40153 -1.31263,0.95053 -1.54099,3.22867 -0.24234,2.41782 -0.49526,3.53522 -1.31617,5.81523 -0.73958,2.054115 -2.01329,4.286725 -3.31069,5.803065 -1.34426,1.57111 -1.91512,1.86783 -3.3795,1.75655 z m 0.34341,-6.121245 c 1.15065,-0.88153 1.82481,-2.22846 1.91569,-3.82736 0.17185,-3.02389 -1.29338,-8.19212 -2.902,-10.23598 -1.01688,-1.292029 -2.30936,-2.235531 -4.04864,-2.955495 -2.80197,-1.159862 -5.48298,-0.767314 -7.10474,1.040271 -1.14941,1.281094 -2.03813,2.906944 -2.31486,4.234864 -0.5526,2.65164 0.14415,6.39324 1.56363,8.39682 2.02257,2.85483 6.03754,5.107815 8.72789,4.897625 1.3809,-0.10788 3.13027,-0.75953 4.16304,-1.550735 z m 6.08759,-12.84048 c 0.0347,-0.3579 -0.11889,-1.229 -0.34126,-1.93577 -0.34909,-1.109605 -0.50994,-1.369754 -1.17842,-1.905494 -1.04088,-0.83424 -1.80461,-1.124369 -1.97229,-0.749234 -0.094,0.210261 0.13667,0.430776 0.86406,0.82606 0.54574,0.296577 1.11793,0.718667 1.27152,0.937982 0.41522,0.592856 0.79372,2.288996 0.6538,2.929776 -0.12715,0.58232 0.11998,0.96704 0.44999,0.70051 0.10425,-0.0842 0.21792,-0.44594 0.2526,-0.80383 z"
       id="path25200" />
    <path
       style="display:inline;fill:none;fill-opacity:1;stroke:#000000;stroke-width:1;stroke-miterlimit:4;stroke-dasharray:none;stroke-opacity:1"
       d="m 80.847749,83.818234 c -12.619902,-0.657323 -18.351495,-0.341888 -32.111714,1.767251 -11.180707,1.71375 -27.381479,3.55392 -34.638876,3.93445 -6.8736001,0.36041 -8.6607215,-0.38147 -7.736624,-3.21168 0.5470393,-1.67541 3.277571,-3.055815 10.485781,-5.301034 6.762009,-2.106243 13.702953,-3.488694 26.103677,-5.199164 14.041446,-1.936779 19.942711,-2.345575 32.432978,-2.246733 l 4.845247,0.03834 1.512666,3.145371 c 0.908992,1.890142 2.261116,3.950499 3.388173,5.16287 1.031524,1.109625 1.84926,2.064173 1.817165,2.121219 -0.032,0.05704 -2.7764,-0.03787 -6.098473,-0.210902 z"
       id="path25239" />
  </g>
</svg>
