<?xml version="1.0" encoding="UTF-8" standalone="no"?>
<!-- Created with Inkscape (http://www.inkscape.org/) -->

<svg
   width="148mm"
   height="210mm"
   viewBox="0 0 148 210"
   version="1.1"
   id="svg1017"
   inkscape:version="1.1 (c4e8f9e, 2021-05-24)"
   sodipodi:docname="Drer_vector.svg"
   xmlns:inkscape="http://www.inkscape.org/namespaces/inkscape"
   xmlns:sodipodi="http://sodipodi.sourceforge.net/DTD/sodipodi-0.dtd"
   xmlns="http://www.w3.org/2000/svg"
   xmlns:svg="http://www.w3.org/2000/svg">
  <sodipodi:namedview
     id="namedview1019"
     pagecolor="#ffffff"
     bordercolor="#999999"
     borderopacity="1"
     inkscape:pageshadow="0"
     inkscape:pageopacity="0"
     inkscape:pagecheckerboard="0"
     inkscape:document-units="mm"
     showgrid="false"
     inkscape:zoom="0.57994529"
     inkscape:cx="421.59149"
     inkscape:cy="350.89517"
     inkscape:window-width="1312"
     inkscape:window-height="847"
     inkscape:window-x="0"
     inkscape:window-y="25"
     inkscape:window-maximized="0"
     inkscape:current-layer="layer1" />
  <defs
     id="defs1014">
    <inkscape:path-effect
       effect="bspline"
       id="path-effect190900"
       is_visible="true"
       lpeversion="1"
       weight="33.333333"
       steps="2"
       helper_size="0"
       apply_no_weight="true"
       apply_with_weight="true"
       only_selected="false" />
    <inkscape:path-effect
       effect="bspline"
       id="path-effect190904"
       is_visible="true"
       lpeversion="1"
       weight="33.333333"
       steps="2"
       helper_size="0"
       apply_no_weight="true"
       apply_with_weight="true"
       only_selected="false" />
    <inkscape:path-effect
       effect="bspline"
       id="path-effect190908"
       is_visible="true"
       lpeversion="1"
       weight="33.333333"
       steps="2"
       helper_size="0"
       apply_no_weight="true"
       apply_with_weight="true"
       only_selected="false" />
    <inkscape:path-effect
       effect="bspline"
       id="path-effect190912"
       is_visible="true"
       lpeversion="1"
       weight="33.333333"
       steps="2"
       helper_size="0"
       apply_no_weight="true"
       apply_with_weight="true"
       only_selected="false" />
    <inkscape:path-effect
       effect="bspline"
       id="path-effect190916"
       is_visible="true"
       lpeversion="1"
       weight="33.333333"
       steps="2"
       helper_size="0"
       apply_no_weight="true"
       apply_with_weight="true"
       only_selected="false" />
    <inkscape:path-effect
       effect="bspline"
       id="path-effect190920"
       is_visible="true"
       lpeversion="1"
       weight="33.333333"
       steps="2"
       helper_size="0"
       apply_no_weight="true"
       apply_with_weight="true"
       only_selected="false" />
    <inkscape:path-effect
       effect="bspline"
       id="path-effect190928"
       is_visible="true"
       lpeversion="1"
       weight="33.333333"
       steps="2"
       helper_size="0"
       apply_no_weight="true"
       apply_with_weight="true"
       only_selected="false" />
    <inkscape:path-effect
       effect="bspline"
       id="path-effect191143"
       is_visible="true"
       lpeversion="1"
       weight="33.333333"
       steps="2"
       helper_size="0"
       apply_no_weight="true"
       apply_with_weight="true"
       only_selected="false" />
    <inkscape:path-effect
       effect="bspline"
       id="path-effect191147"
       is_visible="true"
       lpeversion="1"
       weight="33.333333"
       steps="2"
       helper_size="0"
       apply_no_weight="true"
       apply_with_weight="true"
       only_selected="false" />
    <inkscape:path-effect
       effect="bspline"
       id="path-effect191151"
       is_visible="true"
       lpeversion="1"
       weight="33.333333"
       steps="2"
       helper_size="0"
       apply_no_weight="true"
       apply_with_weight="true"
       only_selected="false" />
    <inkscape:path-effect
       effect="bspline"
       id="path-effect191155"
       is_visible="true"
       lpeversion="1"
       weight="33.333333"
       steps="2"
       helper_size="0"
       apply_no_weight="true"
       apply_with_weight="true"
       only_selected="false" />
    <inkscape:path-effect
       effect="bspline"
       id="path-effect191159"
       is_visible="true"
       lpeversion="1"
       weight="33.333333"
       steps="2"
       helper_size="0"
       apply_no_weight="true"
       apply_with_weight="true"
       only_selected="false" />
    <inkscape:path-effect
       effect="bspline"
       id="path-effect191163"
       is_visible="true"
       lpeversion="1"
       weight="33.333333"
       steps="2"
       helper_size="0"
       apply_no_weight="true"
       apply_with_weight="true"
       only_selected="false" />
    <inkscape:path-effect
       effect="bspline"
       id="path-effect191167"
       is_visible="true"
       lpeversion="1"
       weight="33.333333"
       steps="2"
       helper_size="0"
       apply_no_weight="true"
       apply_with_weight="true"
       only_selected="false" />
    <inkscape:path-effect
       effect="bspline"
       id="path-effect191171"
       is_visible="true"
       lpeversion="1"
       weight="33.333333"
       steps="2"
       helper_size="0"
       apply_no_weight="true"
       apply_with_weight="true"
       only_selected="false" />
    <inkscape:path-effect
       effect="bspline"
       id="path-effect191518"
       is_visible="true"
       lpeversion="1"
       weight="33.333333"
       steps="2"
       helper_size="0"
       apply_no_weight="true"
       apply_with_weight="true"
       only_selected="false" />
    <inkscape:path-effect
       effect="bspline"
       id="path-effect191631"
       is_visible="true"
       lpeversion="1"
       weight="33.333333"
       steps="2"
       helper_size="0"
       apply_no_weight="true"
       apply_with_weight="true"
       only_selected="false" />
    <inkscape:path-effect
       effect="bspline"
       id="path-effect192274"
       is_visible="true"
       lpeversion="1"
       weight="33.333333"
       steps="2"
       helper_size="0"
       apply_no_weight="true"
       apply_with_weight="true"
       only_selected="false" />
    <inkscape:path-effect
       effect="bspline"
       id="path-effect192278"
       is_visible="true"
       lpeversion="1"
       weight="33.333333"
       steps="2"
       helper_size="0"
       apply_no_weight="true"
       apply_with_weight="true"
       only_selected="false" />
    <inkscape:path-effect
       effect="bspline"
       id="path-effect192282"
       is_visible="true"
       lpeversion="1"
       weight="33.333333"
       steps="2"
       helper_size="0"
       apply_no_weight="true"
       apply_with_weight="true"
       only_selected="false" />
    <inkscape:path-effect
       effect="bspline"
       id="path-effect192782"
       is_visible="true"
       lpeversion="1"
       weight="33.333333"
       steps="2"
       helper_size="0"
       apply_no_weight="true"
       apply_with_weight="true"
       only_selected="false" />
  </defs>
  <g
     inkscape:label="Layer 1"
     inkscape:groupmode="layer"
     id="layer1">
    <path
       style="fill:none;stroke:#000000;stroke-width:1;stroke-linecap:butt;stroke-linejoin:miter;stroke-miterlimit:4;stroke-dasharray:none;stroke-opacity:1"
       d="m 5.6599571,97.58122 c 0.4632951,-0.842433 1.3056199,-1.600527 3.2009654,-2.274407 1.8953455,-0.67388 4.8434335,-1.263494 8.2970205,-1.895243 3.453587,-0.631749 7.41245,-1.305598 11.245084,-1.853112 3.832635,-0.547514 7.538805,-0.968671 11.287212,-1.221362 3.748407,-0.252691 7.538805,-0.336921 10.57121,-0.379035 3.032405,-0.04211 5.306645,-0.04211 7.960023,0.210611 2.653377,0.252724 5.685696,0.75811 8.591756,1.305635 2.90606,0.547525 5.685691,1.137143 8.886574,1.937373 3.200882,0.80023 6.822818,1.811003 10.781797,2.737559 3.958979,0.926557 8.25477,1.768868 12.466445,2.526962 4.211676,0.758095 8.339016,1.431939 10.908126,1.895239 2.56911,0.46329 3.57989,0.71599 6.10689,0.71595 2.527,-4e-5 6.57007,-0.25274 10.23425,-0.2106 3.66418,0.0421 6.94919,0.37906 9.34984,0.67389 2.40065,0.29482 3.91683,0.54752 4.88546,1.01092 0.96863,0.4634 1.38979,1.13724 1.22122,1.97946 -0.16856,0.84223 -0.92665,1.853 -1.81106,2.6953 -0.88441,0.8423 -1.89519,1.51616 -2.90599,2.19002 -1.01079,0.67387 -2.02157,1.34773 -2.86388,1.85312 -0.84232,0.5054 -1.51617,0.84232 -1.76889,1.4321 -0.25272,0.58978 -0.0842,1.4321 0.33696,2.52714 0.42121,1.09504 1.09506,2.44274 1.68469,3.66413 0.58962,1.22138 1.09501,2.31638 1.43191,3.32718 0.33689,1.0108 0.50536,1.93734 0.4632,2.77962 -0.0422,0.84228 -0.29487,1.60036 -0.80017,2.06356 -0.5053,0.4632 -1.26337,0.63166 -2.23203,0.33694 -0.96865,-0.29473 -2.14788,-1.05281 -3.66408,-2.0215 -1.51621,-0.96868 -3.3693,-2.14792 -5.09609,-3.45352 -1.72679,-1.3056 -3.3272,-2.73754 -4.71705,-4.04315 -1.38985,-1.3056 -2.56909,-2.48484 -3.74834,-3.41144 -1.17925,-0.9266 -2.35849,-1.60045 -4.92763,-2.23226 -2.56914,-0.63181 -6.52801,-1.22143 -11.919024,-0.8424 -5.391011,0.37902 -12.213725,1.72672 -16.425436,2.94811 -4.21171,1.22138 -5.812105,2.31639 -8.423291,3.11661 -2.611187,0.80022 -6.233118,1.3056 -9.265518,1.68465 -3.0324,0.37906 -5.475102,0.63175 -9.77101,0.33695 -4.295908,-0.29479 -10.444777,-1.1371 -15.246071,-2.10576 -4.801294,-0.96866 -8.25477,-2.06367 -10.486949,-2.86386 -2.232178,-0.80019 -3.242951,-1.30558 -4.127452,-1.47413 -0.884502,-0.16855 -1.642579,-8e-5 -2.863933,-5e-5 -1.221354,2e-5 -2.905977,-0.16844 -4.674881,-0.92647 -1.768904,-0.75803 -3.621988,-2.10572 -5.138197,-3.28498 C 11.17741,107.85771 9.9981783,106.84693 9.0294687,105.83615 8.0607592,104.82537 7.3026806,103.8146 6.6709156,102.88803 6.0391506,101.96147 5.5337609,101.11915 5.3230955,100.23468 5.1124301,99.350203 5.196662,98.423653 5.6599571,97.58122 Z"
       id="path190898"
       inkscape:path-effect="#path-effect190900"
       inkscape:original-d="m 5.2809128,97.496894 c 0.8425439,-0.75788 1.6848723,-1.51597 2.5269833,-2.27429 2.9484219,-0.58942 5.8965099,-1.179035 8.8444399,-1.768877 3.959236,-0.67366 7.918098,-1.347512 11.876822,-2.021588 3.706531,-0.420958 7.412701,-0.842114 11.118726,-1.263496 3.790767,-0.08402 7.581165,-0.168249 11.371423,-0.252695 2.274547,2.19e-4 4.548787,2.19e-4 6.822857,0 3.032656,0.505622 6.064974,1.011013 9.097143,1.516191 2.779946,0.589856 5.559578,1.179473 8.339032,1.768885 3.622305,1.01103 7.244242,2.0218 10.866036,3.03238 4.29617,0.84256 8.591959,1.68488 12.88761,2.52698 4.127705,0.67409 8.255045,1.347946 12.382225,2.021576 1.01103,0.25293 2.02181,0.50562 3.03238,0.75811 4.04348,-0.25249 8.08655,-0.50518 12.12953,-0.75811 3.28535,0.33716 6.57036,0.67409 9.85523,1.0108 1.51642,0.25292 3.0326,0.50562 4.54856,0.7581 0.42139,0.6741 0.84255,1.34794 1.26349,2.02159 -0.75789,1.01102 -1.51597,2.0218 -2.27429,3.03237 -1.01058,0.67409 -2.02136,1.34795 -3.03238,2.0216 -1.01058,0.67408 -2.02136,1.34793 -3.03237,2.02159 -0.67365,0.33714 -1.3475,0.67406 -2.02159,1.01079 0.16869,0.84255 0.33715,1.68487 0.50541,2.52698 0.67408,1.34796 1.34793,2.69566 2.02158,4.04317 0.50562,1.09526 1.011,2.19026 1.51619,3.28508 0.16868,0.92679 0.33715,1.85333 0.5054,2.77969 -0.2525,0.75831 -0.50519,1.5164 -0.7581,2.27427 -0.75789,0.16869 -1.51597,0.33715 -2.27428,0.50541 -1.17908,-0.75791 -2.35831,-1.51599 -3.53778,-2.27429 -1.85294,-1.17907 -3.70603,-2.35831 -5.55936,-3.53778 -1.60024,-1.43176 -3.20064,-2.86371 -4.80127,-4.29587 -1.17907,-1.17906 -2.3583,-2.3583 -3.53777,-3.53777 -1.17907,-0.67367 -2.35831,-1.34751 -3.53779,-2.02159 -3.95879,-0.58943 -7.91766,-1.17905 -11.87682,-1.7689 -6.822784,1.34798 -13.645502,2.69566 -20.468568,4.04318 -1.600232,1.09526 -3.200624,2.19027 -4.801273,3.28508 -3.621862,0.50563 -7.243792,1.01102 -10.866022,1.51618 -2.442581,0.25293 -4.885283,0.50562 -7.32825,0.7581 -6.148899,-0.84213 -12.297768,-1.68444 -18.446977,-2.52698 -3.453396,-1.09483 -6.90687,-2.18984 -10.360629,-3.28507 -1.010599,-0.5052 -2.021372,-1.01059 -3.032381,-1.5162 -0.757896,0.16869 -1.515974,0.33715 -2.274286,0.5054 -1.684472,-0.16825 -3.369095,-0.33671 -5.053966,-0.5054 -1.85294,-1.34754 -3.706026,-2.69523 -5.559363,-4.04316 -1.179066,-1.01061 -2.3582998,-2.02138 -3.5377768,-3.03239 -0.7578917,-1.0106 -1.5159725,-2.02137 -2.2742848,-3.03238 -0.505188,-0.84213 -1.0105763,-1.68445 -1.5161885,-2.52699 0.084448,-0.926346 0.1686817,-1.852896 0.2526979,-2.779676 z" />
    <path
       style="fill:none;stroke:#000000;stroke-width:1;stroke-linecap:butt;stroke-linejoin:miter;stroke-miterlimit:4;stroke-dasharray:none;stroke-opacity:1"
       d="m 69.466285,91.684834 c 1.600591,-0.336967 3.201001,-0.673896 4.927735,-1.474118 1.726734,-0.800223 3.579819,-2.063691 4.801169,-3.032349 1.22135,-0.968659 1.810969,-1.642508 2.527032,-2.105819 0.716063,-0.463311 1.558375,-0.716004 2.737709,-0.63171 1.179334,0.08429 2.695491,0.505447 3.958995,0.968762 1.263505,0.463315 2.274278,0.968702 3.411432,1.516217 1.137155,0.547515 2.400615,1.137131 3.285019,1.811066 0.884403,0.673934 1.389792,1.432015 1.684538,2.190108 0.294746,0.758093 0.378978,1.516174 0.336829,2.274241 -0.04215,0.758067 -0.210613,1.516146 -0.589628,2.105685 -0.379015,0.589539 -0.968634,1.010697 -1.516127,1.347622 -0.547493,0.336924 -1.05288,0.589616 -1.558361,0.842355"
       id="path190902"
       inkscape:path-effect="#path-effect190904"
       inkscape:original-d="m 69.466285,91.684834 c 1.600643,-0.336718 3.201054,-0.673646 4.801267,-1.010794 1.853372,-1.263298 3.706457,-2.526766 5.559359,-3.790473 0.589856,-0.673659 1.17948,-1.347504 1.768892,-2.021587 0.842559,-0.252484 1.68487,-0.505179 2.526984,-0.758092 1.516437,0.421388 3.032593,0.842544 4.548566,1.263489 1.011032,0.505628 2.021806,1.011012 3.032381,1.51619 1.263735,0.589856 2.527195,1.179473 3.790473,1.768893 0.505623,0.758323 1.011015,1.516402 1.516192,2.274282 0.08442,0.758324 0.168682,1.516402 0.252701,2.274282 -0.168253,0.758331 -0.33672,1.51641 -0.505402,2.27429 -0.589421,0.42139 -1.179046,0.84254 -1.768881,1.26349 -0.505192,0.25292 -1.010575,0.50562 -1.51619,0.75809" />
    <path
       style="fill:none;stroke:#000000;stroke-width:1;stroke-linecap:butt;stroke-linejoin:miter;stroke-miterlimit:4;stroke-dasharray:none;stroke-opacity:1"
       d="m 58.852955,119.98705 c 1.095243,1.09524 2.190262,2.19026 3.538028,3.11678 1.347766,0.92652 2.94816,1.68461 4.253709,1.8951 1.305548,0.2105 2.316323,-0.12642 3.11647,-0.6318 0.800146,-0.50537 1.389766,-1.17922 1.895151,-2.10574 0.505384,-0.92652 0.926538,-2.10575 1.263475,-2.906 0.336937,-0.80024 0.589634,-1.2214 0.842374,-1.64263"
       id="path190906"
       inkscape:path-effect="#path-effect190908"
       inkscape:original-d="m 58.852955,119.98705 c 1.095243,1.09524 2.190269,2.19025 3.285078,3.28507 1.600671,0.75833 3.201061,1.51642 4.801274,2.27429 1.011019,-0.33672 2.021792,-0.67365 3.032375,-1.01079 0.589856,-0.67366 1.17948,-1.34751 1.768885,-2.02159 0.421389,-1.17907 0.842538,-2.3583 1.263496,-3.53778 0.252914,-0.42095 0.505608,-0.84211 0.758099,-1.26349" />
    <path
       style="fill:none;stroke:#000000;stroke-width:1;stroke-linecap:butt;stroke-linejoin:miter;stroke-miterlimit:4;stroke-dasharray:none;stroke-opacity:1"
       d="m 78.214253,116.62724 c 1.367791,1.41845 2.735366,2.83668 4.128313,3.97631 1.392947,1.13963 2.811154,2.00069 4.254726,2.60846 1.443571,0.60776 2.912425,0.96231 4.153318,0.93693 1.240893,-0.0254 2.2539,-0.43058 3.292215,-1.06372 1.038314,-0.63313 2.10197,-1.49419 3.292294,-2.40592 1.190324,-0.91174 2.50723,-1.87409 3.545571,-2.73516 1.03834,-0.86106 1.79809,-1.62081 2.38056,-2.30458 0.58247,-0.68376 0.98768,-1.29157 0.96247,-1.84866 -0.0252,-0.55708 -0.48106,-1.06357 -1.13951,-1.44353 -0.65845,-0.37997 -1.5195,-0.63322 -2.38083,-0.88655"
       id="path190910"
       inkscape:path-effect="#path-effect190912"
       inkscape:original-d="m 78.214253,116.62724 c 1.367795,1.41845 2.735379,2.83667 4.102737,4.2547 1.418483,0.86131 2.836691,1.72236 4.254709,2.58321 1.469127,0.35478 2.937981,0.70933 4.406645,1.06367 1.013263,-0.405 2.026274,-0.81019 3.039074,-1.21562 1.063916,-0.86087 2.127569,-1.72193 3.191026,-2.58322 1.317181,-0.96217 2.634081,-1.92453 3.950796,-2.88711 0.76001,-0.75958 1.51976,-1.51932 2.27931,-2.27931 0.40542,-0.6076 0.81063,-1.2154 1.21563,-1.82345 -0.45566,-0.5063 -0.91151,-1.01279 -1.36759,-1.51952 -0.86087,-0.25305 -1.72192,-0.50629 -2.58321,-0.75977" />
    <path
       style="fill:none;stroke:#000000;stroke-width:1;stroke-linecap:butt;stroke-linejoin:miter;stroke-miterlimit:4;stroke-dasharray:none;stroke-opacity:1"
       d="m 22.568844,92.373034 c 0.637858,1.002347 1.275557,2.004446 1.958801,3.188759 0.683243,1.184312 1.412026,2.550782 2.004151,3.917287 0.592125,1.3665 1.047619,2.73298 1.275325,4.00837 0.227706,1.27539 0.227706,2.45966 -0.04562,3.78058 -0.273328,1.32091 -0.819914,2.77847 -1.366496,3.78051 -0.546581,1.00204 -1.093164,1.54863 -1.639764,2.09523"
       id="path190914"
       inkscape:path-effect="#path-effect190916"
       inkscape:original-d="m 22.568844,92.373034 c 0.637913,1.002312 1.275613,2.00441 1.913095,3.00629 0.729027,1.36674 1.457809,2.73321 2.186392,4.09949 0.455723,1.366726 0.911213,2.733206 1.366496,4.099486 2.18e-4,1.18454 2.18e-4,2.36881 0,3.55289 -0.546393,1.45785 -1.09298,2.91541 -1.639795,4.37278 -0.546394,0.54683 -1.092982,1.09341 -1.639794,1.6398" />
    <path
       style="fill:none;stroke:#000000;stroke-width:1;stroke-linecap:butt;stroke-linejoin:miter;stroke-miterlimit:4;stroke-dasharray:none;stroke-opacity:1"
       d="m 10.979532,103.9455 c -0.523786,-0.43645 -1.158532,-1.05251 -1.410554,-1.81886 -0.2520219,-0.76635 -0.1210822,-1.68293 0.490062,-2.359588 0.611144,-0.676654 1.702312,-1.113119 2.64081,-1.244008 0.938498,-0.130888 1.724139,0.0437 2.313336,0.45846 0.589196,0.414758 0.982012,1.069446 1.243854,1.680516 0.261841,0.61108 0.392779,1.17848 0.305433,1.76764 -0.08735,0.58916 -0.392879,1.20022 -0.807459,1.61481 -0.414579,0.41458 -0.938341,0.63282 -1.527535,0.74197 -0.589194,0.10914 -1.243892,0.10914 -1.777633,-0.0192 -0.533741,-0.12837 -0.946528,-0.38526 -1.470314,-0.82171 z"
       id="path190918"
       inkscape:path-effect="#path-effect190920"
       inkscape:original-d="m 11.090276,104.1249 c -0.63453,-0.61585 -1.2692758,-1.23191 -1.9042388,-1.84818 0.13116,-0.9164 0.262101,-1.83298 0.392827,-2.749796 1.0914258,-0.43626 2.1825928,-0.87273 3.2735648,-1.30942 0.785886,0.1748 1.571525,0.3494 2.356964,0.52378 0.393052,0.65494 0.785872,1.309626 1.178484,1.964126 0.131161,0.56765 0.2621,1.13505 0.392828,1.70226 -0.305322,0.61128 -0.610849,1.22234 -0.916599,1.83318 -0.523564,0.21846 -1.047325,0.4367 -1.571311,0.65473 -0.65451,2.1e-4 -1.309208,2.1e-4 -1.964137,0 -0.412586,-0.25669 -0.825372,-0.51358 -1.238382,-0.77068 z" />
    <path
       style="fill:#000000;fill-opacity:1;stroke:none;stroke-width:1;stroke-linecap:butt;stroke-linejoin:miter;stroke-miterlimit:4;stroke-dasharray:none;stroke-opacity:1"
       d="m 11.803087,100.23431 c 0.313584,0.0334 0.760225,0.15093 1.054029,0.31558 0.293804,0.16464 0.434846,0.3762 0.517048,0.63478 0.0822,0.25858 0.105708,0.56417 0.03516,0.85794 -0.07055,0.29376 -0.235104,0.57585 -0.44659,0.75211 -0.211487,0.17626 -0.470048,0.24678 -0.751358,0.23998 -0.28131,-0.007 -0.585448,-0.091 -0.850101,-0.24561 -0.264653,-0.1546 -0.489778,-0.37972 -0.642612,-0.65307 -0.152834,-0.27334 -0.233233,-0.59494 -0.217204,-0.86036 0.01603,-0.26541 0.128587,-0.47445 0.249236,-0.62727 0.12065,-0.15282 0.24927,-0.24928 0.403855,-0.32295 0.154585,-0.0737 0.334957,-0.12452 0.648541,-0.0911 z"
       id="path190926"
       inkscape:path-effect="#path-effect190928"
       inkscape:original-d="m 11.669773,100.1501 c 0.446859,0.11775 0.893502,0.23528 1.339931,0.35261 0.141265,0.21179 0.282307,0.42335 0.423137,0.6347 0.02372,0.30582 0.04722,0.61142 0.07052,0.9168 -0.164343,0.28231 -0.328891,0.5644 -0.49366,0.84628 -0.258373,0.0708 -0.51695,0.14126 -0.775749,0.21157 -0.303932,-0.084 -0.608067,-0.16823 -0.912424,-0.25266 -0.224909,-0.22491 -0.450026,-0.45004 -0.675365,-0.67536 -0.08018,-0.3214 -0.160585,-0.643 -0.2412,-0.96482 0.11278,-0.20883 0.225336,-0.41787 0.337682,-0.62713 0.128859,-0.0963 0.257496,-0.19274 0.385922,-0.28943 0.18062,-0.0507 0.361019,-0.10145 0.541206,-0.15256 z" />
    <path
       style="fill:none;stroke:#000000;stroke-width:1;stroke-linecap:butt;stroke-linejoin:miter;stroke-miterlimit:4;stroke-dasharray:none;stroke-opacity:1"
       d="m 24.156565,94.974864 c 6.139844,0.270307 12.279463,0.540603 16.913165,0.656438 4.633701,0.115835 7.76137,0.07722 11.970351,0.173766 4.20898,0.09654 9.498989,0.328223 14.055474,0.55991 4.556486,0.231688 8.37919,0.463366 11.391099,0.598512 3.01191,0.135145 5.212868,0.173761 7.575446,0.246578 2.362578,0.07282 4.886642,0.179826 7.410527,0.286826"
       id="path191141"
       inkscape:path-effect="#path-effect191143"
       inkscape:original-d="m 24.156565,94.974864 c 6.139835,0.27052 12.279454,0.54081 18.41886,0.81089 3.12801,-0.0383 6.255678,-0.077 9.383194,-0.11584 5.290433,0.23191 10.580442,0.46358 15.870337,0.69505 3.823072,0.23191 7.645776,0.46359 11.468351,0.69505 2.201252,0.0389 4.40221,0.0775 6.602984,0.11585 2.524378,0.10723 5.048442,0.21424 7.572336,0.32103" />
    <path
       style="fill:none;stroke:#000000;stroke-width:1;stroke-linecap:butt;stroke-linejoin:miter;stroke-miterlimit:4;stroke-dasharray:none;stroke-opacity:1"
       d="m 25.128706,96.566924 c 3.223984,0.187437 6.447742,0.37486 9.559067,0.48731 3.111326,0.11245 6.110109,0.149936 8.912182,0.215541 2.802073,0.06561 5.407264,0.15932 10.158623,0.290521 4.75136,0.1312 11.648565,0.29988 18.939572,0.393586 7.291008,0.09371 14.975394,0.112439 22.659711,0.131172"
       id="path191145"
       inkscape:path-effect="#path-effect191147"
       inkscape:original-d="m 25.128706,96.566924 c 3.223973,0.18763 6.44773,0.37506 9.671269,0.56227 2.999121,0.0377 5.997904,0.0752 8.996532,0.11246 2.605511,0.094 5.210704,0.18765 7.815734,0.28115 6.897692,0.16889 13.794897,0.33758 20.692017,0.50605 7.684899,0.019 15.369285,0.0377 23.053603,0.0562" />
    <path
       style="fill:none;stroke:#000000;stroke-width:1;stroke-linecap:butt;stroke-linejoin:miter;stroke-miterlimit:4;stroke-dasharray:none;stroke-opacity:1"
       d="m 26.028359,98.197534 c 1.911986,0.09373 3.823751,0.187444 6.091652,0.290531 2.267901,0.103088 4.891835,0.215542 7.112867,0.262398 2.221032,0.04686 4.039043,0.02812 7.759541,0.01876 3.720498,-0.0094 9.343216,-0.0094 13.476031,0.08436 4.132816,0.09372 6.775494,0.281147 9.05275,0.365467 2.277256,0.08432 4.188977,0.06556 7.806393,0.309214 3.617417,0.24366 8.940265,0.749702 14.385086,1.077692 5.444822,0.32799 11.011321,0.47793 15.050421,0.75909 4.0391,0.28117 6.55059,0.6935 11.0583,1.87433 4.50771,1.18083 11.01133,3.13004 14.58183,4.30151 3.5705,1.17147 4.20774,1.56506 4.84474,1.9585"
       id="path191149"
       inkscape:path-effect="#path-effect191151"
       inkscape:original-d="m 26.028359,98.197534 c 1.911978,0.0939 3.823741,0.18765 5.735287,0.28115 2.624257,0.11267 5.248192,0.22512 7.871965,0.33737 1.818301,-0.0185 3.636312,-0.0373 5.454146,-0.0562 5.62316,2e-4 11.245878,2e-4 16.868493,0 2.643003,0.18763 5.285681,0.37506 7.928188,0.56228 1.912021,-0.0185 3.823741,-0.0373 5.735284,-0.0563 5.32327,0.50627 10.646118,1.012316 15.96885,1.518156 5.566923,0.15016 11.133418,0.30009 16.699808,0.44983 2.51179,0.41256 5.02328,0.82489 7.5346,1.23702 6.50409,1.94951 13.00771,3.8987 19.51122,5.84774 0.63749,0.39383 1.27473,0.78742 1.91177,1.1808" />
    <path
       style="fill:none;stroke:#000000;stroke-width:1;stroke-linecap:butt;stroke-linejoin:miter;stroke-miterlimit:4;stroke-dasharray:none;stroke-opacity:1"
       d="m 26.871783,100.16553 c 1.986978,0.29992 3.973712,0.5998 5.969832,0.83408 1.99612,0.23427 4.001556,0.40295 5.969555,0.45916 1.967998,0.0562 3.898465,0 7.64708,0.0375 3.748616,0.0375 9.315106,0.16869 13.672831,0.27177 4.357724,0.10309 7.506447,0.17806 10.149204,0.26241 2.642757,0.0844 4.779387,0.17806 8.790401,0.42172 4.011014,0.24366 9.896119,0.63725 14.713048,0.90902 4.816929,0.27177 8.565416,0.42171 11.508056,0.61852 2.94265,0.19682 5.07928,0.44046 7.15037,0.656 2.07109,0.21554 4.07654,0.40297 5.96021,0.83409 1.88367,0.43113 3.64547,1.10587 5.4073,1.63064 1.76182,0.52478 3.52361,0.89963 4.78876,1.21828 1.26515,0.31864 2.0336,0.58104 2.93326,1.04028 0.89965,0.45924 1.93048,1.11522 2.96109,1.77106"
       id="path191153"
       inkscape:path-effect="#path-effect191155"
       inkscape:original-d="m 26.871783,100.16553 c 1.986951,0.3001 3.973685,0.59998 5.960201,0.89965 2.005734,0.1689 4.01117,0.33758 6.01643,0.50604 1.930761,-0.056 3.861227,-0.11223 5.791516,-0.16867 5.566931,0.13141 11.133421,0.26261 16.699809,0.39359 3.149061,0.0752 6.297784,0.15016 9.446357,0.22492 2.136934,0.094 4.273567,0.18764 6.410022,0.28114 5.885569,0.39382 11.770674,0.78741 17.655691,1.18079 3.748846,0.15016 7.497331,0.30011 11.245671,0.44984 2.13694,0.24387 4.27357,0.48752 6.41003,0.73096 2.00572,0.18765 4.01117,0.37507 6.01643,0.56228 1.76206,0.67496 3.52386,1.34969 5.28546,2.02423 1.76206,0.37507 3.52385,0.74992 5.28546,1.12456 0.76868,0.26262 1.53713,0.52501 2.30536,0.7872 1.03109,0.65622 2.06192,1.3122 3.09256,1.96799" />
    <path
       style="fill:none;stroke:#000000;stroke-width:1;stroke-linecap:butt;stroke-linejoin:miter;stroke-miterlimit:4;stroke-dasharray:none;stroke-opacity:1"
       d="m 27.65898,102.58333 c 1.612131,0.33742 3.224008,0.67479 5.192013,0.92781 1.968004,0.25301 4.292061,0.4217 6.559944,0.44043 2.267883,0.0187 4.479484,-0.11247 7.506488,-0.15931 3.027004,-0.0468 6.869195,-0.009 11.836093,0.0562 4.966898,0.0656 11.058166,0.15931 16.474881,0.31863 5.416716,0.15932 10.158541,0.38423 13.935233,0.56228 3.776691,0.17806 6.588056,0.30925 9.146473,0.44983 2.558415,0.14057 4.863725,0.29051 7.590845,0.58104 2.72712,0.29053 5.87584,0.7216 8.46236,1.17144 2.58653,0.44985 4.61071,0.91841 6.44752,1.44323 1.83682,0.52482 3.48613,1.10583 5.30421,1.75247 1.81807,0.64663 3.80476,1.35884 4.87307,1.79937 1.06831,0.44052 1.21825,0.60921 1.36799,0.77766"
       id="path191157"
       inkscape:path-effect="#path-effect191159"
       inkscape:original-d="m 27.65898,102.58333 c 1.612094,0.3376 3.223973,0.67496 4.835636,1.01211 2.324366,0.16892 4.648423,0.3376 6.972309,0.50607 2.211909,-0.13098 4.423509,-0.26218 6.634941,-0.39359 3.842561,0.0377 7.684752,0.0752 11.526805,0.11245 6.091741,0.094 12.18301,0.18764 18.274197,0.28114 4.742237,0.22513 9.484063,0.45003 14.225761,0.67474 2.811685,0.13141 5.623049,0.26261 8.434246,0.39359 2.305635,0.15016 4.610945,0.30011 6.916085,0.44983 3.14908,0.43131 6.2978,0.86239 9.44637,1.29325 2.02447,0.46879 4.04865,0.93736 6.07266,1.40571 1.64961,0.58126 3.29893,1.16227 4.94808,1.74308 1.987,0.71245 3.97369,1.42466 5.9602,2.13667 0.15017,0.16891 0.30011,0.33759 0.44983,0.50606" />
    <path
       style="fill:none;stroke:#000000;stroke-width:1;stroke-linecap:butt;stroke-linejoin:miter;stroke-miterlimit:4;stroke-dasharray:none;stroke-opacity:1"
       d="m 27.940121,104.8887 c 1.912018,0.48738 3.823783,0.97469 5.313837,1.30267 1.490054,0.32799 2.558373,0.49668 3.748536,0.57164 1.190163,0.075 2.50213,0.0562 4.217119,0.075 1.714989,0.0187 3.832877,0.075 6.100782,0.18744 2.267904,0.11247 4.685674,0.28115 6.89734,0.43109 2.211667,0.14994 4.217103,0.28114 5.960191,0.3561 1.743087,0.075 3.223736,0.0937 4.844988,-0.009 1.621253,-0.10311 3.383035,-0.32801 5.903987,-0.42171 2.520952,-0.0937 5.80087,-0.0562 8.818486,0.0187 3.017616,0.075 5.772747,0.18743 8.640423,0.34675 2.867676,0.15932 5.847727,0.36549 8.452981,0.46856 2.605254,0.10308 4.835609,0.10308 7.403409,0.26241 2.5678,0.15933 5.47287,0.47795 7.80636,0.69349 2.33348,0.21553 4.09527,0.32799 5.58535,0.60918 1.49007,0.28118 2.70833,0.73101 4.25463,1.32141 1.54629,0.59041 3.42054,1.32136 5.06991,1.92113 1.64938,0.59976 3.07381,1.06832 3.9172,1.28381 0.84338,0.21548 1.10579,0.17799 1.36799,0.14054"
       id="path191161"
       inkscape:path-effect="#path-effect191163"
       inkscape:original-d="m 27.940121,104.8887 c 1.911979,0.48753 3.823741,0.97485 5.735289,1.46193 1.068574,0.16891 2.136892,0.3376 3.205013,0.50607 1.312237,-0.0185 2.624203,-0.0373 3.935982,-0.0562 2.11819,0.0565 4.23608,0.11266 6.353799,0.16868 2.418081,0.16891 4.835851,0.33759 7.253451,0.50606 2.005734,0.13141 4.01117,0.26261 6.01643,0.39359 1.480925,0.019 2.961574,0.0377 4.442033,0.0562 1.762078,-0.22471 3.523861,-0.44961 5.285467,-0.67473 3.280266,0.0377 6.560183,0.0752 9.839952,0.11245 2.755458,0.11267 5.510589,0.22512 8.265564,0.33737 2.980371,0.20639 5.960422,0.41256 8.940303,0.61851 2.230641,2.1e-4 4.460996,2.1e-4 6.691166,0 2.90541,0.31885 5.81048,0.63746 8.71539,0.95588 1.76207,0.11267 3.52386,0.22513 5.28546,0.33737 1.21852,0.45005 2.43678,0.89987 3.65484,1.34949 1.87453,0.73119 3.74877,1.46215 5.62284,2.1929 1.42469,0.46879 2.84912,0.93735 4.27334,1.4057 0.26262,-0.0373 0.52503,-0.0748 0.7872,-0.11245" />
    <path
       style="fill:none;stroke:#000000;stroke-width:1;stroke-linecap:butt;stroke-linejoin:miter;stroke-miterlimit:4;stroke-dasharray:none;stroke-opacity:1"
       d="m 27.827665,107.36275 c 1.893275,0.44989 3.786294,0.89971 5.951094,1.18083 2.1648,0.28112 4.601312,0.39357 7.365906,0.60912 2.764594,0.21555 5.85709,0.53418 9.005899,0.7216 3.148809,0.18742 6.35376,0.24365 9.193308,0.22489 2.839549,-0.0187 5.313543,-0.11247 6.841029,-0.29992 1.527485,-0.18745 2.108497,-0.46858 3.158164,-0.62788 1.049666,-0.15929 2.567808,-0.19677 4.226562,-0.22488 1.658754,-0.0281 3.458021,-0.0468 5.36044,-0.0281 1.902418,0.0188 3.907855,0.075 6.644332,0.18745 2.736476,0.11246 6.203822,0.28114 9.736875,0.46858 3.533052,0.18743 7.131586,0.3936 9.924286,0.5904 2.7927,0.19681 4.77939,0.38423 7.51588,1.47139 2.73649,1.08716 6.22258,3.07386 9.19334,4.667 2.97075,1.59314 5.426,2.79265 7.42212,3.73916 1.99613,0.94651 3.533,1.63998 4.56385,2.15542 1.03086,0.51545 1.55565,0.85282 2.08019,1.19003"
       id="path191165"
       inkscape:path-effect="#path-effect191167"
       inkscape:original-d="m 27.827665,107.36275 c 1.893236,0.45005 3.786257,0.89987 5.679061,1.34948 2.436823,0.11268 4.873335,0.22513 7.309679,0.33736 3.092834,0.31886 6.185332,0.63747 9.277673,0.9559 3.205292,0.0564 6.410242,0.11266 9.615041,0.16868 2.474311,-0.0935 4.948305,-0.18722 7.42214,-0.28116 0.581253,-0.28093 1.162267,-0.56206 1.743069,-0.84342 1.518408,-0.0373 3.036549,-0.0748 4.554494,-0.11245 1.799561,-0.0185 3.598828,-0.0373 5.397925,-0.0562 2.005731,0.0565 4.011169,0.11269 6.016423,0.16869 3.467695,0.16891 6.935041,0.33759 10.402238,0.50606 3.598907,0.20639 7.197442,0.41256 10.795852,0.61852 1.98698,0.18764 3.97367,0.37507 5.96019,0.56227 3.48644,1.98699 6.97253,3.97369 10.45847,5.96021 2.45557,1.19978 4.91082,2.39928 7.3659,3.59861 1.53717,0.6937 3.07404,1.38717 4.61074,2.08044 0.52501,0.33759 1.0498,0.67497 1.57438,1.01211" />
    <path
       style="fill:none;stroke:#000000;stroke-width:1;stroke-linecap:butt;stroke-linejoin:miter;stroke-miterlimit:4;stroke-dasharray:none;stroke-opacity:1"
       d="m 100.70338,111.4608 c -0.732008,-0.11022 -1.464237,-0.22048 -2.214591,-0.33183 -0.750353,-0.11136 -1.518793,-0.22382 -2.259146,-0.2988 -0.740353,-0.075 -1.45257,-0.11247 -2.558403,-0.12186 -1.105834,-0.009 -2.605227,0.009 -4.029701,0.0749 -1.424475,0.0656 -2.773922,0.17805 -4.123409,0.2624 -1.349487,0.0844 -2.698945,0.14058 -5.304204,0.31863 -2.605259,0.17806 -6.466198,0.47794 -9.052757,0.76844 -2.586559,0.2905 -3.898523,0.57164 -5.772792,0.77782 -1.87427,0.20619 -4.310787,0.33739 -6.841074,0.35614 -2.530288,0.0188 -5.154223,-0.075 -7.543938,-0.37482 -2.389715,-0.29986 -4.545092,-0.8059 -5.96964,-0.90905 -1.424547,-0.10314 -2.118015,0.19674 -2.502313,0.6092 -0.384297,0.41245 -0.459268,0.93725 0.459278,1.29328 0.918546,0.35604 2.830268,0.54347 4.264106,0.73091 1.433839,0.18745 2.389703,0.37487 3.701706,0.54354 1.312002,0.16868 2.980076,0.31862 5.004305,0.32797 2.024229,0.009 4.404511,-0.12185 6.822347,-0.31866 2.417836,-0.1968 4.873085,-0.45919 6.766101,-0.74972 1.893017,-0.29052 3.223731,-0.60913 5.566628,-0.92776 2.342897,-0.31862 5.69779,-0.63725 8.078122,-0.93714 2.380332,-0.2999 3.786013,-0.58103 5.013688,-0.76845 1.227674,-0.18743 2.277247,-0.28114 3.364335,-0.38423 1.087089,-0.10308 2.211638,-0.21554 3.008207,-0.29988 0.796569,-0.0843 1.265133,-0.14057 1.733509,-0.19677"
       id="path191169"
       inkscape:path-effect="#path-effect191171"
       inkscape:original-d="m 100.70338,111.4608 c -0.732035,-0.11004 -1.464265,-0.22029 -2.196735,-0.33077 -0.768234,-0.11225 -1.536675,-0.2247 -2.305352,-0.33737 -0.712012,-0.0373 -1.424228,-0.0748 -2.136682,-0.11246 -1.499202,0.019 -2.998595,0.0377 -4.498261,0.0562 -1.349265,0.11269 -2.698713,0.22514 -4.048441,0.33738 -1.349259,0.0564 -2.698714,0.11268 -4.048436,0.16869 -3.860789,0.30009 -7.721728,0.59997 -11.583035,0.89965 -1.311773,0.28136 -2.623738,0.56249 -3.935982,0.84342 -2.436337,0.13141 -4.872853,0.26262 -7.309676,0.3936 -2.623772,-0.0935 -5.247707,-0.18721 -7.871965,-0.28114 -2.155202,-0.50584 -4.310578,-1.01189 -6.466254,-1.51817 -0.693268,0.30011 -1.386736,0.59999 -2.080449,0.89966 -0.07475,0.52501 -0.149726,1.0498 -0.224914,1.57438 1.912019,0.18765 3.823742,0.37507 5.735289,0.5623 0.956118,0.18763 1.911979,0.37507 2.867645,0.56228 1.668356,0.15015 3.336429,0.3001 5.004319,0.44983 2.380597,-0.131 4.76088,-0.26219 7.140997,-0.39361 2.455567,-0.26219 4.910817,-0.52457 7.365903,-0.78719 1.33098,-0.31842 2.661693,-0.63704 3.992216,-0.95587 3.355235,-0.31843 6.710129,-0.63704 10.064865,-0.9559 1.405955,-0.28093 2.811637,-0.56206 4.217128,-0.84342 1.049828,-0.0935 2.099401,-0.18721 3.148785,-0.28115 1.124795,-0.11224 2.249345,-0.22469 3.373698,-0.33736 0.468791,-0.056 0.937353,-0.11224 1.405701,-0.16868" />
    <path
       style="fill:#666666;fill-opacity:1;stroke:none;stroke-width:1;stroke-miterlimit:4;stroke-dasharray:none"
       d="m 75.924237,97.839554 c -6.88093,-0.0676 -16.497433,-0.26904 -25.857467,-0.5416 -2.583421,-0.0753 -6.643415,-0.17912 -9.02221,-0.23086 -2.378792,-0.0517 -5.434253,-0.13751 -6.789909,-0.19061 -2.609126,-0.1022 -9.041819,-0.44633 -9.070765,-0.48528 -0.0094,-0.0126 -0.173232,-0.30533 -0.364038,-0.65034 l -0.34692,-0.6273 0.682047,0.0485 c 0.747604,0.0532 8.089749,0.35927 12.215593,0.50921 1.432391,0.0521 5.513314,0.13539 9.068716,0.18516 9.426217,0.13196 12.728368,0.25155 25.671439,0.92964 3.862344,0.20234 9.115225,0.4321 11.673068,0.51056 6.256619,0.19194 8.718596,0.31191 9.440767,0.46003 0.520734,0.1068 -0.491875,0.12257 -7.301479,0.1137 -4.348337,-0.005 -8.847813,-0.0195 -9.998842,-0.0309 z"
       id="path191366" />
    <path
       style="fill:#666666;fill-opacity:1;stroke:none;stroke-width:1;stroke-miterlimit:4;stroke-dasharray:none"
       d="m 133.63848,110.39406 c -1.26261,-0.79695 -2.72972,-1.53516 -3.62749,-1.82525 -0.40924,-0.13224 -1.91604,-0.535 -3.34844,-0.89502 -1.4324,-0.36001 -3.52518,-0.95011 -4.65063,-1.31132 -3.21489,-1.03181 -4.52692,-1.32018 -7.58051,-1.66617 -5.25905,-0.59587 -8.27066,-0.84342 -13.62634,-1.12007 -5.615738,-0.2901 -9.806968,-0.53066 -16.230669,-0.93157 -10.042364,-0.62675 -11.087333,-0.67887 -16.742245,-0.83509 -9.193227,-0.25398 -15.952826,-0.39082 -23.02059,-0.46604 -8.964369,-0.0953 -9.96217,-0.16005 -15.808373,-1.02464 -1.025198,-0.15163 -1.910093,-0.27592 -1.966431,-0.27621 -0.101128,-4.4e-4 -0.817346,-1.576576 -0.747983,-1.645936 0.0197,-0.0196 1.830539,0.0492 4.024096,0.15319 7.129148,0.33787 8.884973,0.37476 17.940153,0.377 9.034502,0.002 13.328573,0.0757 18.649007,0.31941 1.611437,0.0738 3.850705,0.15982 4.976161,0.1912 2.834931,0.0791 5.910807,0.26823 11.347526,0.698046 7.401323,0.58516 8.14096,0.62978 18.509478,1.11652 6.89945,0.32389 9.47215,0.60056 12.98994,1.39693 7.07355,1.60133 22.55231,6.42094 22.06935,6.87173 -0.0476,0.0445 -0.56793,0.39123 -1.15624,0.7706 l -1.06964,0.68978 z"
       id="path191405" />
    <path
       style="fill:#666666;fill-opacity:1;stroke:none;stroke-width:1;stroke-miterlimit:4;stroke-dasharray:none"
       d="m 131.22016,114.21473 c -0.95765,-0.19912 -3.82277,-1.18482 -7.37693,-2.53794 -4.45917,-1.69768 -5.38318,-1.97647 -7.41205,-2.23634 -0.65338,-0.0837 -4.779,-0.47681 -9.30126,-0.88628 -2.24236,-0.20305 -4.31407,-0.31409 -7.859555,-0.42127 -1.764912,-0.0533 -5.364492,-0.21961 -7.999065,-0.36948 -8.016846,-0.45602 -9.566332,-0.5061 -15.76562,-0.50951 -5.516566,-0.003 -6.13342,0.0129 -8.417629,0.21654 -3.933254,0.35079 -5.56024,0.3171 -15.06802,-0.31211 -4.271529,-0.28268 -7.106466,-0.40311 -12.045113,-0.51167 -4.688635,-0.10306 -5.065267,-0.15769 -10.328679,-1.49826 l -1.500884,-0.38228 -0.141115,-0.94355 c -0.07761,-0.51895 -0.127861,-0.95924 -0.111666,-0.97841 0.0162,-0.0192 0.711351,0.0955 1.544791,0.25472 5.056171,0.96626 6.821914,1.05386 18.257587,0.90576 10.506458,-0.13607 24.876336,0.14032 38.321142,0.73707 14.692026,0.6521 18.296426,0.90454 23.950706,1.67744 5.03093,0.68771 8.79519,1.47092 12.20951,2.54036 2.67482,0.83783 8.51402,2.96891 9.39489,3.42878 0.5515,0.28792 0.62131,0.35346 0.55988,0.52553 -0.0387,0.10811 -0.071,0.46513 -0.072,0.79336 -6.8e-4,0.32823 -0.0437,0.60716 -0.0948,0.61985 -0.0512,0.0126 -0.386,-0.0379 -0.74409,-0.11231 z"
       id="path191444" />
    <path
       style="fill:none;stroke:#000000;stroke-width:1;stroke-linecap:butt;stroke-linejoin:miter;stroke-miterlimit:4;stroke-dasharray:none;stroke-opacity:1"
       d="m 42.997824,111.99426 c 0,-0.89891 0,-1.79802 0,-2.69737"
       id="path191516"
       inkscape:path-effect="#path-effect191518"
       inkscape:original-d="m 42.997824,111.99426 c 2.15e-4,-0.89891 2.15e-4,-1.79802 0,-2.69737" />
    <path
       style="fill:none;stroke:#000000;stroke-width:1;stroke-linecap:butt;stroke-linejoin:miter;stroke-miterlimit:4;stroke-dasharray:none;stroke-opacity:1"
       d="m 120.87354,119.16324 c 2.54625,1.18825 5.09223,2.37638 7.60428,3.59847 2.51206,1.22209 4.99011,2.47809 7.46795,3.73398"
       id="path191629"
       inkscape:path-effect="#path-effect191631"
       inkscape:original-d="m 120.87354,119.16324 c 2.5462,1.18835 5.09218,2.37648 7.63796,3.56439 2.47834,1.25625 4.95639,2.51225 7.43427,3.76806" />
    <path
       style="fill:#666666;fill-opacity:1;stroke:none;stroke-width:1;stroke-miterlimit:4;stroke-dasharray:none"
       d="m 131.56667,124.11417 c -2.32448,-1.15639 -5.66991,-2.78077 -7.43427,-3.60973 l -3.20793,-1.50722 -1.73128,-1.63862 c -2.99136,-2.83129 -4.12949,-3.68157 -5.80484,-4.33674 -2.57015,-1.00509 -5.73161,-1.53167 -9.67474,-1.61146 -2.08523,-0.0422 -2.90539,-0.10456 -4.531865,-0.34454 -1.092226,-0.16116 -2.576692,-0.34782 -3.298824,-0.4148 -1.86096,-0.1726 -5.979615,-0.0656 -11.773397,0.30603 -8.347512,0.53536 -12.172187,0.87551 -16.090615,1.43104 -3.769841,0.53448 -6.311968,0.71598 -10.01702,0.7152 -3.910327,-6.7e-4 -6.189551,-0.19752 -10.198096,-0.88013 -2.108356,-0.35901 -3.765424,-0.47857 -4.353633,-0.31407 l -0.280059,0.0783 v -1.22401 -1.22401 l 0.330978,2.1e-4 c 0.182038,1.5e-4 1.407928,0.0892 2.724204,0.19806 4.784189,0.39536 6.432853,0.45886 11.966123,0.46083 6.105578,0.002 7.494197,-0.0784 9.725659,-0.56451 1.747197,-0.38059 2.888728,-0.47461 6.670475,-0.54942 5.38095,-0.10637 18.077679,0.39716 29.53343,1.17136 6.64784,0.44927 7.70419,0.79347 15.83601,5.16003 4.24818,2.28116 7.06413,3.70119 11.25325,5.67485 1.68035,0.79166 3.43036,1.66267 3.88893,1.93555 l 0.83373,0.49617 0.0705,0.65788 c 0.078,0.72779 0.006,1.8371 -0.12538,1.95833 -0.0467,0.0429 -1.98681,-0.86827 -4.31129,-2.02466 z"
       id="path191670" />
    <path
       style="fill:none;stroke:#000000;stroke-width:1;stroke-linecap:butt;stroke-linejoin:miter;stroke-miterlimit:4;stroke-dasharray:none;stroke-opacity:1"
       d="m 80.491967,118.73609 c 3.734058,-0.7966 7.467943,-1.59316 11.201892,-2.091 3.73395,-0.49784 7.467774,-0.69697 11.201451,-0.8961"
       id="path192272"
       inkscape:path-effect="#path-effect192274"
       inkscape:original-d="m 80.491967,118.73609 c 3.734111,-0.79635 7.467996,-1.59291 11.201675,-2.38969 3.734179,-0.19892 7.468003,-0.39806 11.201668,-0.59741" />
    <path
       style="fill:none;stroke:#000000;stroke-width:1;stroke-linecap:butt;stroke-linejoin:miter;stroke-miterlimit:4;stroke-dasharray:none;stroke-opacity:1"
       d="m 82.7323,120.97643 c 2.738352,-0.59746 5.476541,-1.19489 7.940945,-1.61806 2.464404,-0.42317 4.654903,-0.67209 6.148488,-0.77164 1.493584,-0.0996 2.290119,-0.0498 3.086462,1e-5"
       id="path192276"
       inkscape:path-effect="#path-effect192278"
       inkscape:original-d="m 82.7323,120.97643 c 2.738409,-0.5972 5.476598,-1.19463 8.214563,-1.79228 2.190813,-0.24871 4.381312,-0.49763 6.571649,-0.74677 0.796793,0.05 1.593333,0.0997 2.389683,0.14936" />
    <path
       style="fill:none;stroke:#000000;stroke-width:1;stroke-linecap:butt;stroke-linejoin:miter;stroke-miterlimit:4;stroke-dasharray:none;stroke-opacity:1"
       d="m 87.063614,122.91805 c 0.846521,-0.14939 1.692875,-0.29875 2.564146,-0.37342 0.87127,-0.0747 1.767387,-0.0747 2.414598,-0.0747 0.647212,0 1.045477,0 1.344214,0.0249 0.298737,0.0249 0.497853,0.0747 0.696754,0.12443"
       id="path192280"
       inkscape:path-effect="#path-effect192282"
       inkscape:original-d="m 87.063614,122.91805 c 0.846563,-0.14915 1.692921,-0.29849 2.539054,-0.44808 0.896362,2.3e-4 1.792479,2.3e-4 2.688391,0 0.398511,2.3e-4 0.796776,2.3e-4 1.194845,0 0.199368,0.05 0.398504,0.0997 0.597422,0.14936" />
    <path
       style="fill:#666666;fill-opacity:1;stroke:none;stroke-width:1;stroke-miterlimit:4;stroke-dasharray:none"
       d="m 82.846458,120.44438 c -0.433648,-0.34553 -1.063247,-0.89123 -1.554896,-1.34771 l -0.348371,-0.32344 0.78829,-0.1664 c 7.230413,-1.52631 10.468119,-2.01965 15.767673,-2.40263 1.611401,-0.11645 4.896406,-0.31045 4.916636,-0.29036 0.006,0.006 -0.24113,0.2572 -0.54991,0.55762 -0.52945,0.51514 -1.21505,1.11082 -1.935075,1.68123 l -0.31787,0.25184 -1.37584,0.0163 c -2.546972,0.0302 -5.632311,0.41156 -9.668384,1.19498 -0.997155,0.19355 -4.854355,1.00115 -5.260331,1.10138 -0.06598,0.0163 -0.193977,-0.0593 -0.461922,-0.27282 z"
       id="path192534" />
    <path
       style="fill:none;stroke:#000000;stroke-width:1;stroke-linecap:butt;stroke-linejoin:miter;stroke-miterlimit:4;stroke-dasharray:none;stroke-opacity:1"
       d="m 114.97402,101.17821 c -0.14402,0.7921 -0.28801,1.58402 -0.43199,2.26794 -0.14399,0.68393 -0.28797,1.25986 -0.46796,1.79978 -0.17999,0.53993 -0.39597,1.04388 -0.64795,1.58382 -0.25197,0.53994 -0.53994,1.11587 -0.82792,1.72782 -0.28797,0.61196 -0.57595,1.25989 -0.79192,1.97986 -0.21597,0.71996 -0.35995,1.51187 -0.5039,2.30362"
       id="path192780"
       inkscape:path-effect="#path-effect192782"
       inkscape:original-d="m 114.97402,101.17821 c -0.14378,0.79214 -0.28777,1.58406 -0.43196,2.37576 -0.14377,0.57617 -0.28775,1.1521 -0.43195,1.72783 -0.21577,0.50417 -0.43175,1.00812 -0.64795,1.51186 -0.28775,0.57616 -0.57572,1.15209 -0.86391,1.72782 -0.28775,0.64817 -0.57572,1.2961 -0.86392,1.9438 -0.14376,0.79216 -0.28775,1.58407 -0.43195,2.37577" />
    <path
       style="fill:#666666;fill-opacity:1;stroke:#666666;stroke-width:1;stroke-miterlimit:4;stroke-dasharray:none;stroke-opacity:1"
       d="m 88.78399,123.48255 c -0.80115,-0.19564 -0.884136,-0.24199 -0.598009,-0.33407 0.182727,-0.0588 1.43854,-0.13461 2.790704,-0.16849 2.635569,-0.066 2.784394,-0.006 1.215239,0.48622 -1.020796,0.32051 -2.140311,0.32588 -3.407934,0.0164 z"
       id="path3368" />
  </g>
</svg>
