<?xml version="1.0" encoding="UTF-8" standalone="no"?>
<!-- Created with Inkscape (http://www.inkscape.org/) -->

<svg
   width="148mm"
   height="210mm"
   viewBox="0 0 148 210"
   version="1.1"
   id="svg155"
   inkscape:version="1.1 (c4e8f9e, 2021-05-24)"
   sodipodi:docname="Nvec_vector.svg"
   xmlns:inkscape="http://www.inkscape.org/namespaces/inkscape"
   xmlns:sodipodi="http://sodipodi.sourceforge.net/DTD/sodipodi-0.dtd"
   xmlns="http://www.w3.org/2000/svg"
   xmlns:svg="http://www.w3.org/2000/svg">
  <sodipodi:namedview
     id="namedview157"
     pagecolor="#ffffff"
     bordercolor="#999999"
     borderopacity="1"
     inkscape:pageshadow="0"
     inkscape:pageopacity="0"
     inkscape:pagecheckerboard="0"
     inkscape:document-units="mm"
     showgrid="false"
     inkscape:zoom="0.5660252"
     inkscape:cx="193.45428"
     inkscape:cy="285.32299"
     inkscape:window-width="1312"
     inkscape:window-height="847"
     inkscape:window-x="0"
     inkscape:window-y="25"
     inkscape:window-maximized="0"
     inkscape:current-layer="layer1" />
  <defs
     id="defs152">
    <inkscape:path-effect
       effect="bspline"
       id="path-effect1154"
       is_visible="true"
       lpeversion="1"
       weight="33.333333"
       steps="2"
       helper_size="0"
       apply_no_weight="true"
       apply_with_weight="true"
       only_selected="false" />
    <inkscape:path-effect
       effect="bspline"
       id="path-effect1659"
       is_visible="true"
       lpeversion="1"
       weight="33.333333"
       steps="2"
       helper_size="0"
       apply_no_weight="true"
       apply_with_weight="true"
       only_selected="false" />
    <inkscape:path-effect
       effect="bspline"
       id="path-effect1663"
       is_visible="true"
       lpeversion="1"
       weight="33.333333"
       steps="2"
       helper_size="0"
       apply_no_weight="true"
       apply_with_weight="true"
       only_selected="false" />
    <inkscape:path-effect
       effect="bspline"
       id="path-effect1667"
       is_visible="true"
       lpeversion="1"
       weight="33.333333"
       steps="2"
       helper_size="0"
       apply_no_weight="true"
       apply_with_weight="true"
       only_selected="false" />
    <inkscape:path-effect
       effect="bspline"
       id="path-effect1864"
       is_visible="true"
       lpeversion="1"
       weight="33.333333"
       steps="2"
       helper_size="0"
       apply_no_weight="true"
       apply_with_weight="true"
       only_selected="false" />
    <inkscape:path-effect
       effect="bspline"
       id="path-effect1868"
       is_visible="true"
       lpeversion="1"
       weight="33.333333"
       steps="2"
       helper_size="0"
       apply_no_weight="true"
       apply_with_weight="true"
       only_selected="false" />
    <inkscape:path-effect
       effect="bspline"
       id="path-effect1419"
       is_visible="true"
       lpeversion="1"
       weight="33.333333"
       steps="2"
       helper_size="0"
       apply_no_weight="true"
       apply_with_weight="true"
       only_selected="false" />
    <inkscape:path-effect
       effect="bspline"
       id="path-effect1414"
       is_visible="true"
       lpeversion="1"
       weight="33.333333"
       steps="2"
       helper_size="0"
       apply_no_weight="true"
       apply_with_weight="true"
       only_selected="false" />
    <inkscape:path-effect
       effect="bspline"
       id="path-effect1409"
       is_visible="true"
       lpeversion="1"
       weight="33.333333"
       steps="2"
       helper_size="0"
       apply_no_weight="true"
       apply_with_weight="true"
       only_selected="false" />
    <inkscape:path-effect
       effect="bspline"
       id="path-effect1272"
       is_visible="true"
       lpeversion="1"
       weight="33.333333"
       steps="2"
       helper_size="0"
       apply_no_weight="true"
       apply_with_weight="true"
       only_selected="false" />
  </defs>
  <g
     inkscape:label="Layer 1"
     inkscape:groupmode="layer"
     id="layer1">
    <path
       style="display:inline;fill:none;fill-opacity:1;stroke:#000000;stroke-width:1;stroke-linecap:butt;stroke-linejoin:miter;stroke-miterlimit:4;stroke-dasharray:none;stroke-opacity:1"
       d="m 60.77429,87.635573 c -2.156594,2.908092 -4.313186,5.816181 -5.438361,7.906408 -1.125175,2.090227 -1.218933,3.362478 -1.265811,4.362149 -0.04688,0.99967 -0.04688,1.72666 -0.04688,2.36281 0,0.63616 0,1.18141 -0.656362,1.95385 -0.656362,0.77244 -1.969039,1.77207 -2.953587,3.45336 -0.984547,1.68129 -1.640884,4.04406 -2.01594,7.04307 -0.375055,2.99902 -0.468818,6.63406 -0.281275,9.54218 0.187543,2.90813 0.656355,5.08913 1.406501,6.86127 0.750147,1.77213 1.781531,3.13527 1.922146,4.27122 0.140616,1.13595 -0.609487,2.04471 -0.890776,3.63512 -0.281288,1.59041 -0.09376,3.86231 0.562615,6.36149 0.656378,2.49917 1.781531,5.22545 2.859835,7.63373 1.078305,2.40828 2.109692,4.49843 2.906714,5.81616 0.797022,1.31773 1.359603,1.86299 2.062821,3.45337 0.703218,1.59039 1.547083,4.2258 2.344095,6.316 0.797012,2.0902 1.547119,3.6351 2.625431,5.27091 1.078311,1.63581 2.484752,3.36246 3.656825,4.63475 1.172073,1.27229 2.109706,2.09018 3.141132,2.72631 1.031425,0.63613 2.156577,1.09051 3.187975,1.13593 1.031399,0.0454 1.96903,-0.3181 2.67225,-1.36318 0.703219,-1.04509 1.172027,-2.77172 1.359566,-4.13489 0.187538,-1.36316 0.09378,-2.36279 1.5e-5,-3.31701 -0.09376,-0.95422 -0.187535,-1.863 -0.09378,-2.72637 0.09376,-0.86336 0.375044,-1.68123 0.421938,-2.95353 0.0469,-1.2723 -0.140627,-2.99893 -0.843862,-5.31634 -0.703234,-2.31741 -1.922156,-5.22544 -2.953575,-7.45196 -1.031419,-2.22653 -1.875276,-3.7714 -2.859821,-5.86162 -0.984545,-2.09022 -2.109698,-4.72563 -2.531651,-6.22515 -0.421954,-1.49952 -0.140668,-1.86302 -0.421951,-2.81722 -0.281282,-0.9542 -1.125146,-2.4991 -1.922134,-3.5442 -0.796989,-1.04511 -1.547099,-1.59037 -1.500245,-2.49918 0.04685,-0.9088 0.890718,-2.18107 1.312662,-4.22582 0.421945,-2.04476 0.421945,-4.86191 0.375063,-7.77003 -0.04688,-2.90813 -0.140643,-5.90703 -0.328171,-8.26987 -0.187528,-2.36283 -0.46882,-4.08948 -1.078281,-5.4981 -0.609461,-1.40862 -1.54708,-2.49912 -1.359569,-4.27129 0.187511,-1.77217 1.500186,-4.225808 2.953554,-6.634096 1.453369,-2.408288 3.047337,-4.77107 4.641339,-7.133901"
       id="path1152"
       inkscape:original-d="m 60.77429,87.635573 c -2.15653,2.90814 -4.31312,5.81623 -6.46977,8.72426 -0.0937,1.27238 -0.18747,2.54463 -0.28128,3.816867 5e-5,0.7271 5e-5,1.45409 0,2.18106 5e-5,0.54534 5e-5,1.09059 0,1.6358 -1.312671,0.99974 -2.625351,1.99937 -3.93812,2.99897 -0.656303,2.36293 -1.312642,4.7257 -1.969056,7.08847 -0.0937,3.63524 -0.187471,7.27028 -0.281295,10.90535 0.468895,2.18117 0.937709,4.36217 1.406476,6.54319 1.031483,1.36326 2.062877,2.72639 3.094225,4.08951 -0.750071,0.90884 -1.50017,1.8176 -2.25035,2.72632 0.18759,2.27205 0.375117,4.54395 0.562589,6.81584 1.125262,2.72645 2.250404,5.45273 3.375531,8.179 1.03148,2.09029 2.06288,4.18043 3.09422,6.27056 0.56267,0.54535 1.12525,1.09061 1.68777,1.6358 0.84396,2.63557 1.68782,5.27098 2.53164,7.90637 0.7502,1.54501 1.5003,3.08991 2.25036,4.63477 1.40655,1.72676 2.81299,3.45341 4.21939,5.18003 0.93774,0.81797 1.87537,1.63586 2.81295,2.4537 1.12526,0.45445 2.25041,0.90883 3.37553,1.36316 0.93772,-0.36345 1.87535,-0.72696 2.81294,-1.09054 0.46889,-1.72665 0.9377,-3.45328 1.40646,-5.18002 -0.0937,-0.99962 -0.18746,-1.99925 -0.28128,-2.99897 -0.0937,-0.90872 -0.18748,-1.8175 -0.28131,-2.72633 0.28137,-0.81786 0.56264,-1.63574 0.84389,-2.45371 -0.18748,-1.72665 -0.375,-3.45328 -0.56258,-5.18003 -1.2189,-2.90808 -2.43783,-5.81611 -3.65683,-8.72426 -0.84384,-1.5449 -1.68769,-3.08978 -2.53165,-4.63477 -1.12513,-2.63544 -2.25028,-5.27085 -3.37552,-7.90637 0.28137,-0.36346 0.56265,-0.72696 0.84388,-1.09052 -0.84384,-1.5449 -1.6877,-3.0898 -2.53164,-4.63478 -0.75007,-0.54521 -1.50018,-1.09047 -2.25035,-1.63579 0.84395,-1.27226 1.68782,-2.54452 2.53164,-3.81687 6e-5,-2.81721 6e-5,-5.63436 0,-8.45163 -0.0937,-2.99898 -0.18748,-5.99788 -0.28129,-8.99691 -0.28125,-1.72665 -0.56253,-3.4533 -0.84389,-5.18003 -0.93761,-1.0905 -1.87522,-2.18101 -2.81294,-3.2716 1.3128,-2.4537 2.62548,-4.907337 3.93812,-7.361097 1.59409,-2.36281 3.18806,-4.72559 4.78199,-7.08847"
       inkscape:path-effect="#path-effect1154" />
    <path
       style="display:inline;fill:none;fill-opacity:1;stroke:#000000;stroke-width:1;stroke-linecap:butt;stroke-linejoin:miter;stroke-miterlimit:4;stroke-dasharray:none;stroke-opacity:1"
       d="m 56.63299,135.13972 c -0.430318,2.17803 -0.860627,4.35601 -0.812801,6.88158 0.04783,2.52558 0.573748,5.39861 1.43439,7.87783 0.860642,2.47922 2.055924,4.56449 3.251181,6.64971"
       id="path1657"
       inkscape:original-d="m 56.63299,135.13972 c -0.43026,2.17804 -0.86056,4.35602 -1.29093,6.53396 0.526,2.87319 1.05192,5.74622 1.5778,8.61926 1.19539,2.08539 2.39067,4.17066 3.5859,6.2559"
       inkscape:path-effect="#path-effect1659" />
    <path
       style="display:inline;fill:none;fill-opacity:1;stroke:#000000;stroke-width:1;stroke-linecap:butt;stroke-linejoin:miter;stroke-miterlimit:4;stroke-dasharray:none;stroke-opacity:1"
       d="m 58.94528,134.64574 c -0.224426,1.10933 -0.448843,2.21861 -0.460051,3.56718 -0.01121,1.34857 0.190763,2.93633 0.897695,5.03529 0.706932,2.09896 1.91875,4.70898 3.197936,7.03632 1.279186,2.32734 2.62566,4.37187 3.657976,5.97055 1.032316,1.59868 1.750432,2.75143 2.277809,3.7846 0.527377,1.03317 0.863995,1.94668 1.200585,2.86011"
       id="path1661"
       inkscape:original-d="m 58.94528,134.64574 c -0.22436,1.10934 -0.44877,2.21862 -0.67325,3.32784 0.20205,1.5879 0.40401,3.17566 0.60593,4.7634 1.21192,2.61018 2.42374,5.2202 3.63553,7.83023 1.34658,2.04464 2.69306,4.08917 4.03947,6.13367 0.71822,1.15286 1.43633,2.30562 2.1544,3.45835 0.3367,0.91361 0.67331,1.82712 1.00987,2.74056"
       inkscape:path-effect="#path-effect1663" />
    <path
       style="display:inline;fill:none;fill-opacity:1;stroke:#000000;stroke-width:1;stroke-linecap:butt;stroke-linejoin:miter;stroke-miterlimit:4;stroke-dasharray:none;stroke-opacity:1"
       d="m 60.56107,134.711 c 0.62839,1.58785 1.256763,3.17566 2.221764,5.50301 0.965002,2.32735 2.266577,5.39412 3.534536,8.63499 1.267958,3.24088 2.502226,6.65567 3.355007,9.45065 0.85278,2.79497 1.324044,4.96999 1.492344,6.69917 0.1683,1.72917 0.03365,3.01242 0.17955,4.09998 0.145896,1.08756 0.572272,1.97931 1.15578,2.58832 0.583509,0.609 1.324057,0.93525 2.064549,1.26148"
       id="path1665"
       inkscape:original-d="m 60.56107,134.711 c 0.62842,1.58784 1.25679,3.17565 1.8851,4.76338 1.30169,3.06697 2.60328,6.13373 3.90482,9.20052 1.23437,3.41497 2.46864,6.82976 3.70287,10.24455 0.47135,2.17516 0.9426,4.35018 1.41382,6.52518 -0.13459,1.28337 -0.26924,2.56662 -0.40395,3.84984 0.42645,0.89188 0.85284,1.78363 1.27916,2.67534 0.74066,0.32633 1.48121,0.65258 2.22171,0.97879"
       inkscape:path-effect="#path-effect1667" />
    <path
       style="display:inline;fill:none;fill-opacity:1;stroke:#000000;stroke-width:1;stroke-linecap:butt;stroke-linejoin:miter;stroke-miterlimit:4;stroke-dasharray:none;stroke-opacity:1"
       d="m 56.63299,135.13972 c -0.43301,-1.64384 -0.866031,-3.28772 -1.465731,-4.91998 -0.599701,-1.63227 -1.366069,-3.25286 -1.923448,-5.44747 -0.55738,-2.1946 -0.905725,-4.9631 -0.766388,-7.32654 0.139338,-2.36343 0.76636,-4.32163 1.358568,-6.14484 0.592207,-1.82321 1.149559,-3.5113 1.706939,-5.19948"
       id="path1862"
       inkscape:original-d="m 56.63299,135.13972 c -0.43297,-1.64385 -0.86599,-3.28773 -1.29907,-4.93167 -0.76634,-1.62059 -1.53269,-3.24119 -2.299139,-4.86185 -0.348291,-2.76854 -0.696637,-5.53704 -1.045057,-8.30566 0.627114,-1.95822 1.254135,-3.91642 1.881106,-5.87472 0.55743,-1.68812 1.11479,-3.37621 1.6721,-5.06441"
       inkscape:path-effect="#path-effect1864" />
    <path
       style="display:inline;fill:none;fill-opacity:1;stroke:#000000;stroke-width:1;stroke-linecap:butt;stroke-linejoin:miter;stroke-miterlimit:4;stroke-dasharray:none;stroke-opacity:1"
       d="m 58.94528,134.64574 c -0.08906,-2.15443 -0.178006,-4.30622 -0.292257,-5.82373 -0.114251,-1.5175 -0.253588,-2.39531 -0.427768,-4.38733 -0.17418,-1.99202 -0.383186,-5.09812 -0.836042,-8.33938 -0.452855,-3.24126 -1.149641,-6.61792 -1.062849,-8.34104 0.08679,-1.72312 0.956964,-1.79339 1.793011,-1.86092 0.836046,-0.0675 1.637939,-0.13231 2.457043,0.61209 0.819104,0.7444 1.654929,2.29707 2.107769,4.25533 0.45284,1.95826 0.522511,4.3216 0.383164,7.12395 -0.139348,2.80234 -0.487693,6.0435 -0.940251,8.92107 -0.452558,2.87758 -1.009293,5.39139 -1.56603,7.90522"
       id="path1866"
       sodipodi:nodetypes="ccccccccccc"
       inkscape:original-d="m 58.94528,134.64574 c -0.089,-2.15443 -0.26711,-4.30254 -0.26718,-6.46347 -0.13927,-0.87777 -0.27861,-1.75558 -0.41802,-2.6335 -0.20895,-3.10611 -0.41796,-6.21221 -0.62703,-9.31852 -0.69665,-3.37622 -1.39335,-6.7529 -2.09012,-10.12884 0.87024,-0.0701 1.7404,-0.14052 2.61057,-0.21081 0.80192,-0.0648 1.60383,-0.12937 2.40571,-0.19435 0.83638,1.55354 1.67215,3.10624 2.50814,4.65925 0.0698,2.36352 0.1394,4.72686 0.20902,7.0902 -0.3483,3.24136 -0.69665,6.48252 -1.04506,9.72369 -0.5567,2.51398 -1.11343,5.0278 -1.67024,7.54161"
       inkscape:path-effect="#path-effect1868" />
    <path
       style="display:inline;fill:none;fill-opacity:1;stroke:#000000;stroke-width:1;stroke-linecap:butt;stroke-linejoin:miter;stroke-miterlimit:4;stroke-dasharray:none;stroke-opacity:1"
       d="m 69.07014,94.624163 c 0.151654,1.102396 0.303297,2.204707 0.619234,3.30703 0.315937,1.102323 0.796135,2.204627 1.364813,3.196707 0.568679,0.99209 1.225794,1.87393 1.946123,2.6333 0.720329,0.75937 1.503794,1.39624 2.375762,1.8004 0.871968,0.40417 1.832376,0.57564 2.388385,0.78388 0.556008,0.20825 0.707647,0.45319 0.657087,0.64912 -0.05056,0.19593 -0.303298,0.3429 -0.682387,0.3919 -0.379089,0.049 -0.88456,2e-5 -1.566969,1e-5 -0.682409,0 -1.541709,0.049 -2.1862,-0.0857 -0.64449,-0.1347 -1.074133,-0.45313 -1.516438,-0.82057 -0.442306,-0.36744 -0.897224,-0.78387 -1.516448,-1.43301 -0.619223,-0.64915 -1.402707,-1.53099 -1.984025,-2.48633 -0.581318,-0.95534 -0.960421,-1.98415 -1.238441,-2.853758 -0.278019,-0.869611 -0.454933,-1.579977 -0.631866,-2.290419"
       id="path1417"
       inkscape:path-effect="#path-effect1419"
       inkscape:original-d="m 69.07014,94.624163 c 0.1517,1.10239 0.30335,2.2047 0.45493,3.30695 0.48027,1.10239 0.96048,2.204687 1.44061,3.306947 0.6572,0.88192 1.31431,1.76376 1.97137,2.64554 0.78358,0.63698 1.56705,1.27384 2.35049,1.91068 0.96049,0.17154 1.9209,0.343 2.88123,0.51441 0.15172,0.24502 0.30335,0.48997 0.45494,0.73487 -0.25268,0.14705 -0.50542,0.29402 -0.75822,0.44093 -0.50543,-0.0489 -1.0109,-0.0979 -1.51644,-0.14697 -0.85927,0.049 -1.71857,0.098 -2.57795,0.14697 -0.42961,-0.31839 -0.85926,-0.63681 -1.28898,-0.95533 -0.45488,-0.41638 -0.9098,-0.8328 -1.36479,-1.2493 -0.78345,-0.8818 -1.56693,-1.76364 -2.35048,-2.64554 -0.37906,-1.02879 -0.75816,-2.0576 -1.13733,-3.086487 -0.17687,-0.71033 -0.35377,-1.4207 -0.53075,-2.13113" />
    <path
       style="display:inline;fill:none;fill-opacity:1;stroke:#000000;stroke-width:1;stroke-linecap:butt;stroke-linejoin:miter;stroke-miterlimit:4;stroke-dasharray:none;stroke-opacity:1"
       d="m 75.36335,91.390723 c 0.530796,1.077887 1.061555,2.155697 1.503846,3.441749 0.442291,1.286051 0.796113,2.780263 0.808729,4.115283 0.01262,1.335025 -0.315934,2.510795 -0.72032,3.380385 -0.404386,0.8696 -0.884578,1.43299 -1.251055,1.86167 -0.366477,0.42868 -0.619201,0.72262 -0.796125,1.01659 -0.176923,0.29397 -0.278015,0.58791 -0.07578,0.91862 0.202235,0.33071 0.707693,0.69813 0.973062,0.91863 0.265368,0.2205 0.290609,0.29391 -0.139029,0.2939 -0.429638,-2e-5 -1.314223,-0.0735 -1.832355,-0.26944 -0.518131,-0.19594 -0.669778,-0.51438 -0.505518,-1.23704 0.164261,-0.72266 0.644465,-1.84946 1.112045,-2.70683 0.46758,-0.85736 0.922506,-1.44525 1.112064,-2.40058 0.189559,-0.955325 0.113731,-2.278064 -0.202185,-3.490618 -0.315916,-1.212555 -0.871934,-2.314851 -1.326863,-3.147716 -0.454929,-0.832864 -0.80875,-1.396247 -1.171757,-1.971912 C 72.4891,91.537749 72.116948,90.94987 71.74474,90.361903"
       id="path1412"
       inkscape:path-effect="#path-effect1414"
       inkscape:original-d="m 75.36335,91.390723 c 0.53083,1.07787 1.06157,2.15569 1.59228,3.23344 0.3539,1.49435 0.70773,2.98856 1.06149,4.48274 -0.32849,1.175897 -0.65705,2.351667 -0.98568,3.527417 -0.48015,0.56348 -0.96035,1.12686 -1.44062,1.69021 -0.25268,0.29402 -0.50541,0.58795 -0.75821,0.88185 -0.10101,0.29402 -0.20213,0.58795 -0.30329,0.88186 0.50556,0.36749 1.01101,0.73492 1.51645,1.10231 0.0253,0.0736 0.0505,0.14703 0.0758,0.22047 -0.88453,-0.0735 -1.76912,-0.14693 -2.65376,-0.22047 -0.1516,-0.31839 -0.30323,-0.63684 -0.45495,-0.95534 0.48028,-1.12677 0.96049,-2.25357 1.44062,-3.38042 0.45502,-0.58786 0.90994,-1.17575 1.36482,-1.76371 -0.0758,-1.322747 -0.1516,-2.645487 -0.22749,-3.968337 -0.55597,-1.10227 -1.11198,-2.20457 -1.66808,-3.30694 -0.35378,-0.56335 -0.70759,-1.12674 -1.0615,-1.69021 -0.37212,-0.58785 -0.74427,-1.17573 -1.11649,-1.76369" />
    <path
       style="display:inline;fill:none;fill-opacity:1;stroke:#000000;stroke-width:1;stroke-linecap:butt;stroke-linejoin:miter;stroke-miterlimit:4;stroke-dasharray:none;stroke-opacity:1"
       d="m 60.77429,87.635573 c -1.95328,-0.456221 -3.906629,-0.912458 -6.10865,-1.251921 -2.202022,-0.339464 -4.652624,-0.562136 -6.605512,-0.673477 -1.952889,-0.111342 -3.407929,-0.111342 -4.939602,-0.222679 -1.531673,-0.111338 -3.139888,-0.334014 -4.480104,-0.519577 -1.340216,-0.185564 -2.412354,-0.334004 -3.331355,-0.668002 -0.919,-0.333999 -1.684815,-0.853572 -2.986743,-1.261833 -1.301929,-0.408262 -3.13989,-0.705153 -3.905745,-0.964951 -0.765856,-0.259798 -0.459532,-0.482469 0.497795,-0.668032 0.957327,-0.185563 2.565536,-0.334006 3.714294,-0.185528 1.148759,0.148478 1.837993,0.593817 2.910173,0.927813 1.072179,0.333996 2.527222,0.556665 4.250358,0.667996 1.723137,0.111331 3.71425,0.111331 5.743721,0.14845 2.029471,0.03712 4.09717,0.11135 5.896888,0.222693 1.799718,0.111344 3.331347,0.259788 5.172284,0.495375 1.840936,0.235586 3.991055,0.558296 5.001214,0.625311 1.01016,0.06701 0.880334,-0.121721 0.08513,-0.908179 -0.795201,-0.786458 -2.255717,-2.170552 -3.570228,-3.649057 -1.314511,-1.478506 -2.482933,-3.051347 -3.310593,-4.451211 -0.827661,-1.399864 -1.3145,-2.626682 -1.46057,-3.523237 -0.14607,-0.896555 0.04867,-1.462778 -0.261423,-2.789145 -0.310089,-1.326366 -1.12501,-3.412812 -1.777674,-5.501677 -0.652664,-2.088865 -1.143023,-4.180025 -1.388215,-6.366312 -0.245193,-2.186286 -0.245193,-4.467548 -9e-6,-6.748889 0.245184,-2.281341 0.735543,-4.562608 1.422071,-6.653839 0.686528,-2.091231 1.569179,-3.992282 2.304743,-5.418116 0.735564,-1.425835 1.323993,-2.376359 2.255722,-3.279402 0.93173,-0.903043 2.206669,-1.758519 3.28549,-2.471433 1.078822,-0.712914 1.961472,-1.283231 2.991275,-1.710979 1.029804,-0.427749 2.206674,-0.712907 2.702499,-0.676421 0.495825,0.03649 0.310653,0.39456 -0.07344,0.620686 -0.384097,0.226126 -0.967156,0.32031 -1.720317,0.579326 -0.753161,0.259016 -1.676331,0.682844 -2.648137,1.365711 -0.971807,0.682867 -1.992161,1.624712 -2.72101,2.425313 -0.728849,0.8006 -1.166137,1.459888 -1.627741,2.401774 -0.461604,0.941886 -0.947488,2.166285 -1.603451,3.932305 -0.655963,1.76602 -1.481962,4.073541 -1.992149,6.00439 -0.510187,1.930848 -0.704541,3.484892 -0.77742,5.086085 -0.07288,1.601192 -0.02429,3.24942 0.194375,4.874155 0.218664,1.624736 0.607371,3.225878 1.214751,4.921252 0.60738,1.695373 1.433377,3.484876 2.478061,5.509909 1.044683,2.025033 2.307973,4.285459 3.571312,6.286941 1.263339,2.001481 2.526638,3.743901 3.449843,4.921234 0.923205,1.177332 1.506258,1.789528 1.773471,1.742427 0.267213,-0.0471 0.218628,-0.753484 -0.0486,-1.789536 -0.267232,-1.036051 -0.753119,-2.401742 -1.23902,-4.097118 -0.4859,-1.695375 -0.971783,-3.72035 -1.360499,-5.321531 -0.388716,-1.601181 -0.680245,-2.778482 -0.947488,-3.814545 -0.267244,-1.036063 -0.510186,-1.930818 -0.947483,-2.872693 -0.437297,-0.941875 -1.068943,-1.930812 -1.530546,-2.684309 -0.461603,-0.753497 -0.75313,-1.27151 -0.801742,-1.930836 -0.04861,-0.659326 0.145741,-1.459894 0.680235,-2.354697 0.534494,-0.894803 1.409083,-1.883739 2.016447,-2.660775 0.607364,-0.777035 0.947484,-1.342149 1.214725,-2.095635 0.26724,-0.753487 0.46159,-1.695333 0.826012,-2.707859 0.364423,-1.012526 0.898896,-2.095649 1.530588,-2.778521 0.631693,-0.682873 1.360513,-0.965426 1.943608,-1.059596 0.583094,-0.09417 1.020384,1e-5 1.166113,0.188387 0.145729,0.188377 -4.1e-5,0.470938 -0.364445,0.729935 -0.364403,0.258997 -0.947463,0.494459 -1.433378,0.894769 -0.485915,0.400311 -0.874622,0.96542 -1.141864,1.530558 -0.267242,0.565139 -0.413006,1.130247 -0.631661,1.789556 -0.218654,0.659309 -0.51018,1.412783 -0.826014,2.166281 -0.315833,0.753497 -0.655953,1.506973 -1.166141,2.236911 -0.510189,0.729939 -1.190424,1.436321 -1.579144,2.119204 -0.388721,0.682883 -0.4859,1.342178 -0.43729,1.930859 0.04861,0.588681 0.242966,1.106693 0.777468,2.001477 0.534502,0.894784 1.409089,2.166277 2.162211,4.026485 0.753121,1.860208 1.384766,4.308997 1.870663,6.122103 0.485897,1.813106 0.826017,2.990423 1.141848,4.097123 0.315832,1.106699 0.607362,2.142727 0.898906,3.037506 0.291543,0.894779 0.583071,1.64825 0.777426,2.024964 0.194356,0.376714 0.291566,0.376714 0.437299,-0.141303 0.145733,-0.518017 0.340089,-1.554046 0.996053,-3.791013 0.655964,-2.236968 1.773492,-5.674707 2.696697,-8.806437 0.923204,-3.131731 1.652027,-5.957258 2.380871,-8.335488 0.728845,-2.378231 1.457668,-4.309017 2.283693,-6.169221 0.826025,-1.860203 1.749206,-3.649715 2.84248,-5.368641 1.093273,-1.718926 2.356567,-3.367156 3.498421,-4.779963 1.141855,-1.412808 2.162207,-2.590117 2.91534,-3.602624 0.753132,-1.012507 1.239011,-1.860166 1.676318,-2.825582 0.437307,-0.965416 0.826016,-2.048539 1.068968,-3.013945 0.242951,-0.965407 0.34013,-1.813077 0.655962,-2.825602 0.315831,-1.012525 0.8503,-2.189832 1.384802,-2.966896 0.534503,-0.777065 1.068964,-1.153795 1.506279,-1.412812 0.437315,-0.259016 0.777425,-0.400289 0.971778,-0.329604 0.194353,0.07069 0.242933,0.353228 0.12145,0.659304 -0.121484,0.306075 -0.413012,0.635722 -0.826021,1.036017 -0.413009,0.400295 -0.947479,0.871221 -1.336198,1.601197 -0.388718,0.729977 -0.63166,1.718915 -0.82602,2.637245 -0.194361,0.91833 -0.34013,1.765984 -0.558786,2.637211 -0.218656,0.871227 -0.510181,1.765985 -1.044669,2.849135 -0.534489,1.08315 -1.311902,2.35464 -2.405166,3.814537 -1.093263,1.459897 -2.50232,3.108133 -3.789948,4.921248 -1.287628,1.813114 -2.453753,3.790993 -3.498431,6.169234 -1.044679,2.378241 -1.967855,5.156688 -2.81817,8.241331 -0.850314,3.084643 -1.627724,6.475298 -2.356568,9.395095 -0.728844,2.919798 -1.409085,5.368601 -1.943573,7.134608 -0.534489,1.766007 -0.923192,2.849125 -1.141841,3.579089 -0.21865,0.729965 -0.267235,1.106694 -0.242928,1.342137 0.02431,0.235444 0.121527,0.329674 0.558804,-0.07065 0.437278,-0.400325 1.214689,-1.295075 2.040713,-2.189859 0.826024,-0.894784 1.700618,-1.789551 2.599536,-2.495958 0.898917,-0.706408 1.822097,-1.224419 2.818191,-1.695354 0.996095,-0.470934 2.065043,-0.894769 2.866765,-1.271518 0.801723,-0.376749 1.336192,-0.706393 1.749187,-1.153767 0.412996,-0.447373 0.704524,-1.012482 0.753121,-1.954333 0.0486,-0.941851 -0.145756,-2.260446 -0.364405,-3.343597 -0.218649,-1.083151 -0.461588,-1.930803 -0.51019,-2.849146 -0.0486,-0.918342 0.09716,-1.907278 0.315817,-2.707883 0.218652,-0.800605 0.510177,-1.4128 0.85032,-1.836663 0.340142,-0.423863 0.72884,-0.65932 0.850297,-0.51801 0.121458,0.141309 -0.0243,0.659325 -0.267252,1.247985 -0.242947,0.588661 -0.583067,1.247959 -0.704529,2.001479 -0.121462,0.75352 -0.02428,1.601186 0.145786,2.519516 0.17007,0.91833 0.413007,1.907265 0.558767,2.966873 0.14576,1.059609 0.194348,2.189814 0.194345,3.108141 -3e-6,0.918327 -0.04859,1.624708 -0.437294,2.213343 -0.388702,0.588636 -1.117537,1.059567 -2.283688,1.624692 -1.166151,0.565125 -2.769544,1.224411 -4.057186,2.072105 -1.287642,0.847694 -2.259413,1.883734 -3.15832,2.825601 -0.898907,0.941867 -1.724922,1.789532 -2.113617,2.307602 -0.388695,0.51807 -0.340114,0.706399 0.145789,0.517994 0.485904,-0.188406 1.409071,-0.75351 2.769589,-1.62475 1.360519,-0.87124 3.158276,-2.048545 5.199041,-3.484905 2.040764,-1.436361 4.324415,-3.13169 6.583827,-4.921248 2.259413,-1.789558 4.494476,-3.673252 6.753901,-5.368623 2.259424,-1.695371 4.543063,-3.202317 6.608139,-4.356114 2.06507,-1.153797 3.91141,-1.954363 5.51489,-2.425296 1.60347,-0.470933 2.96393,-0.612208 4.5674,-0.423818 1.60347,0.188391 3.44983,0.70641 5.02899,1.459926 1.57916,0.753516 2.89104,1.742451 3.96001,2.68433 1.06896,0.941879 1.89496,1.836629 2.28364,2.378203 0.38867,0.541573 0.34008,0.729926 0.0729,0.753462 -0.26721,0.02354 -0.75309,-0.117741 -1.77348,-0.87123 -1.02039,-0.753488 -2.57521,-2.119159 -4.0572,-3.037499 -1.48198,-0.91834 -2.89103,-1.389261 -4.15436,-1.671831 -1.26334,-0.28257 -2.38086,-0.376753 -3.78998,-0.07065 -1.40913,0.306106 -3.1097,1.012483 -4.5188,1.601154 -1.40911,0.588671 -2.52663,1.059588 -3.935749,1.93083 -1.409119,0.871242 -3.1097,2.142731 -4.883224,3.579091 -1.773525,1.43636 -3.619878,3.037499 -5.660648,4.803517 -2.040769,1.766019 -4.275821,3.696801 -6.29229,5.368625 -2.016468,1.671824 -3.814232,3.08459 -5.126148,4.050003 -1.311916,0.965413 -2.137913,1.483421 -2.429415,1.813106 -0.291503,0.329685 -0.04856,0.470967 1.020412,0.61223 1.068975,0.141262 2.963916,0.282536 4.810324,0.518005 1.846408,0.23547 3.644179,0.565115 4.95609,0.847682 1.311911,0.282567 2.137917,0.518038 3.352659,0.541571 1.214741,0.02353 2.818152,-0.164841 4.956099,-0.329668 2.137947,-0.164828 4.810306,-0.306105 6.80248,-0.329649 1.99217,-0.02354 3.30404,0.07064 4.47021,0.32967 1.16616,0.259033 2.1865,0.682864 3.0854,1.342199 0.8989,0.659335 1.67631,1.55408 2.23508,2.260486 0.55878,0.706406 0.8989,1.224424 1.19043,1.977929 0.29152,0.753505 0.53446,1.742436 0.65592,2.54302 0.12146,0.800583 0.12146,1.412793 0.0972,1.954363 -0.0243,0.54157 -0.0729,1.012501 -0.26723,1.34212 -0.19435,0.329619 -0.53446,0.517978 -0.68024,-0.117753 -0.14578,-0.635731 -0.0972,-2.095608 -0.41301,-3.484864 -0.31582,-1.389257 -0.99605,-2.707819 -1.65199,-3.649702 -0.65595,-0.941882 -1.28759,-1.506996 -2.13791,-1.930857 -0.85032,-0.423861 -1.91927,-0.706415 -3.13402,-0.894795 -1.21474,-0.18838 -2.57521,-0.282561 -4.15438,-0.188378 -1.57917,0.09418 -3.376942,0.376735 -5.101876,0.635753 -1.724934,0.259017 -3.376933,0.494486 -4.956085,0.56513 -1.579153,0.07064 -3.085396,-0.02355 -4.591666,-0.259011 -1.50627,-0.235464 -3.012516,-0.612202 -4.470207,-0.847674 -1.45769,-0.235473 -2.866742,-0.329657 -3.935709,-0.423841 -1.068967,-0.09418 -1.797792,-0.188365 -2.35658,-0.259009 -0.558788,-0.07064 -0.947476,-0.11774 -0.759944,-0.02785 0.187531,0.08989 0.951269,0.316749 2.368977,0.789251 1.417709,0.472502 3.489292,1.190613 5.252221,1.823738 1.762928,0.633125 3.217102,1.181226 5.692175,2.440735 2.475073,1.25951 5.970876,3.230323 10.373485,5.201126 4.402609,1.970802 9.711749,3.941486 13.439539,5.583776 3.72778,1.64229 5.87402,2.95607 7.90323,4.63907 2.0292,1.68299 3.94125,3.73506 5.32681,5.44233 1.38556,1.70728 2.24456,3.06966 1.97123,3.10749 -0.27333,0.0378 -1.67898,-1.24887 -3.16277,-2.72481 -1.48378,-1.47594 -3.04562,-3.14108 -4.91988,-4.61704 -1.87425,-1.47595 -4.06081,-2.76264 -6.32555,-3.78446 -2.26473,-1.02182 -4.60749,-1.7787 -6.75507,-2.42206 -2.14758,-0.64337 -4.09987,-1.17318 -5.622698,-1.66516 -1.522829,-0.49197 -2.61613,-0.9461 -4.529437,-1.892219 -1.913308,-0.946121 -4.64652,-2.384187 -7.457905,-3.70876 -2.811385,-1.324574 -5.700785,-2.535575 -8.330768,-3.395101 -2.629984,-0.859526 -5.000403,-1.36752 -7.370932,-1.875537"
       id="path1407"
       inkscape:path-effect="#path-effect1409"
       inkscape:original-d="m 60.77429,87.635573 c -1.95329,-0.45618 -3.90664,-0.91241 -5.86004,-1.36871 -2.450636,-0.22263 -4.901239,-0.44529 -7.35196,-0.66803 -1.455051,5e-5 -2.910091,5e-5 -4.365232,0 -1.608211,-0.22263 -3.21643,-0.44528 -4.824731,-0.66804 -1.072128,-0.14839 -2.144266,-0.29683 -3.216487,-0.44533 -0.765783,-0.51953 -1.5316,-1.0391 -2.297489,-1.55875 -1.837966,-0.29683 -3.675925,-0.59373 -5.513976,-0.89069 0.306397,-0.22262 0.612723,-0.44529 0.918996,-0.66803 1.608335,-0.1484 3.216544,-0.29684 4.824729,-0.44534 0.689319,0.44541 1.378553,0.89075 2.06774,1.33604 1.455171,0.22275 2.910213,0.44542 4.365227,0.66802 1.991269,7e-5 3.982382,7e-5 5.973479,0 2.067843,0.0743 4.135542,0.14853 6.203224,0.2227 1.531752,0.1485 3.06338,0.29695 4.59498,0.44534 2.15027,0.32279 4.30039,0.64549 6.4505,0.96815 -0.12978,-0.18868 -0.2596,-0.37742 -0.38949,-0.56623 -1.46052,-1.3841 -2.92104,-2.76819 -4.38165,-4.15238 -1.1684,-1.57283 -2.33681,-3.14568 -3.50532,-4.718597 -0.4868,-1.226809 -0.973638,-2.453627 -1.460544,-3.680514 0.194803,-0.566186 0.389544,-1.132408 0.584221,-1.698697 -0.814894,-2.086483 -1.629815,-4.172929 -2.444818,-6.259478 -0.490317,-2.091177 -0.980678,-4.182337 -1.471105,-6.273599 5.5e-5,-2.281301 5.5e-5,-4.562563 0,-6.843935 0.490435,-2.281296 0.980798,-4.562562 1.471105,-6.84393 0.882755,-1.901073 1.7654,-3.802127 2.648011,-5.703278 0.58851,-0.950511 1.17694,-1.901035 1.76533,-2.851641 1.27505,-0.855451 2.54999,-1.710926 3.82489,-2.566478 0.88274,-0.570278 1.76539,-1.140594 2.648,-1.710982 1.17697,-0.285107 2.35384,-0.570266 3.53067,-0.855488 -0.18513,0.358158 -0.37029,0.716239 -0.55554,1.074271 -0.58301,0.09425 -1.16607,0.188432 -1.74922,0.282561 -0.92315,0.423905 -1.84632,0.847734 -2.76957,1.271512 -1.02034,0.941944 -2.04069,1.883794 -3.06113,2.825598 -0.43725,0.659377 -0.87454,1.318664 -1.3119,1.977916 -0.48584,1.224505 -0.97173,2.448902 -1.45768,3.673269 -0.82597,2.307672 -1.651966,4.615195 -2.478048,6.922705 -0.194304,1.554167 -0.388652,3.108212 -0.583075,4.662227 0.04866,1.648359 0.09724,3.296587 0.145774,4.944789 0.38878,1.601261 0.777488,3.202403 1.166141,4.803511 0.826088,1.789638 1.652088,3.57914 2.478048,5.368633 1.2634,2.260574 2.52669,4.521 3.78995,6.781418 1.26341,1.742547 2.52671,3.484967 3.78996,5.227347 0.58314,0.6123 1.1662,1.22449 1.74921,1.83664 -0.0486,-0.70635 -0.0971,-1.41274 -0.14576,-2.11919 -0.48584,-1.36566 -0.97173,-2.73135 -1.45768,-4.09712 -0.48584,-2.02498 -0.97173,-4.049953 -1.45767,-6.075019 -0.29149,-1.177297 -0.58301,-2.3546 -0.87461,-3.531997 -0.24289,-0.894729 -0.48583,-1.789485 -0.72884,-2.684316 -0.63161,-0.988918 -1.26326,-1.977853 -1.89498,-2.966873 -0.29148,-0.517976 -0.58301,-1.035987 -0.8746,-1.554073 0.19441,-0.800542 0.38877,-1.601108 0.58307,-2.40176 0.87468,-0.988918 1.74927,-1.977853 2.62382,-2.966869 0.34018,-0.565071 0.68031,-1.130179 1.02037,-1.695357 0.19442,-0.941824 0.38877,-1.88367 0.58306,-2.825594 0.53456,-1.083105 1.06903,-2.166229 1.60345,-3.249431 0.72892,-0.282504 1.45774,-0.565059 2.18651,-0.847677 0.43738,0.09425 0.87467,0.188433 1.31192,0.282555 -0.1457,0.282625 -0.29148,0.565181 -0.43731,0.84768 -0.58302,0.235531 -1.16608,0.470992 -1.74921,0.706399 -0.38866,0.565189 -0.77737,1.130296 -1.16614,1.695357 -0.14571,0.565189 -0.29148,1.130296 -0.4373,1.695355 -0.29149,0.753566 -0.58301,1.507043 -0.8746,2.260475 -0.34008,0.753566 -0.6802,1.507042 -1.02038,2.260477 -0.6802,0.706472 -1.36044,1.41285 -2.04075,2.119195 -0.0971,0.659378 -0.1943,1.31867 -0.29154,1.977912 0.19443,0.518096 0.38877,1.036114 0.58308,1.554073 0.87468,1.271611 1.74927,2.543102 2.62381,3.814551 0.63173,2.448965 1.26338,4.897753 1.89498,7.346548 0.3402,1.177414 0.68031,2.354734 1.02037,3.531994 0.2916,1.03614 0.58314,2.072165 0.87461,3.108155 0.2916,0.75357 0.58313,1.50704 0.87461,2.26048 0.0972,7e-5 0.19441,7e-5 0.29152,0 0.19443,-1.03602 0.38878,-2.07205 0.58308,-3.10816 1.11764,-3.437812 2.23517,-6.87555 3.35265,-10.313418 0.72893,-2.825599 1.45774,-5.651129 2.18652,-8.476779 0.72891,-1.930802 1.45774,-3.861586 2.18651,-5.792468 0.92327,-1.789519 1.84646,-3.579026 2.76959,-5.368628 1.26341,-1.648236 2.5267,-3.296469 3.78996,-4.944791 1.02044,-1.177294 2.0408,-2.354597 3.06111,-3.531988 0.48596,-0.847639 0.97184,-1.695297 1.45767,-2.543036 0.38879,-1.083106 0.7775,-2.166229 1.16615,-3.249434 0.0972,-0.847633 0.19442,-1.695298 0.29154,-2.543031 0.53454,-1.177296 1.06901,-2.354603 1.60344,-3.531995 0.53456,-0.376696 1.06902,-0.753428 1.60345,-1.130239 0.34018,-0.141222 0.68029,-0.282497 1.02037,-0.423835 0.0487,0.282625 0.0972,0.565181 0.14575,0.847678 -0.29147,0.329719 -0.583,0.659364 -0.8746,0.988957 -0.53443,0.471 -1.0689,0.941926 -1.60343,1.412793 -0.2429,0.989039 -0.48584,1.977978 -0.72884,2.966879 -0.14572,0.847754 -0.29148,1.69541 -0.43732,2.543031 -0.29146,0.894848 -0.583,1.789601 -0.87459,2.684316 -0.77739,1.271603 -1.55481,2.543089 -2.33229,3.81455 -1.40904,1.648354 -2.8181,3.296588 -4.22724,4.944789 -1.16611,1.978014 -2.33224,3.95589 -3.49844,5.933745 -0.92314,2.778616 -1.84632,5.557061 -2.76958,8.335497 -0.77738,3.39084 -1.5548,6.781492 -2.33227,10.172147 -0.6802,2.448948 -1.36044,4.897751 -2.04076,7.34654 -0.38866,1.08323 -0.77736,2.16635 -1.16614,3.24944 -0.0486,0.37681 -0.0971,0.75355 -0.14576,1.13022 0.0972,0.0942 0.19441,0.18844 0.29153,0.28257 0.77751,-0.89472 1.55491,-1.78948 2.33229,-2.68432 0.87468,-0.89471 1.74927,-1.78948 2.6238,-2.68432 0.92328,-0.517965 1.84646,-1.035976 2.76959,-1.554062 1.06904,-0.423797 2.13799,-0.847627 3.2069,-1.271526 0.53455,-0.329599 1.06902,-0.659242 1.60344,-0.988952 0.2916,-0.56507 0.58312,-1.130183 0.8746,-1.695356 -0.19431,-1.318568 -0.38865,-2.637165 -0.58307,-3.955836 -0.24289,-0.847635 -0.48583,-1.695287 -0.72884,-2.543033 0.14583,-0.988918 0.2916,-1.977853 0.43731,-2.966873 0.2916,-0.612165 0.58312,-1.224363 0.8746,-1.836639 0.38878,-0.235411 0.77748,-0.470865 1.16613,-0.706395 -0.14571,0.518095 -0.29146,1.036114 -0.4373,1.554082 -0.34006,0.659369 -0.68019,1.318662 -1.02037,1.977912 0.0972,0.847755 0.19442,1.695416 0.29154,2.543026 0.24301,0.989045 0.48595,1.97798 0.72883,2.966881 0.0487,1.130322 0.0972,2.260531 0.14577,3.390723 -0.0486,0.706463 -0.0971,1.41285 -0.14577,2.119195 -0.72877,0.470992 -1.45761,0.941917 -2.1865,1.412791 -1.60343,0.659369 -3.20682,1.318662 -4.81034,1.977922 -0.97174,1.03611 -1.94351,2.07215 -2.91534,3.10815 -0.82598,0.84774 -1.65198,1.69542 -2.47806,2.54301 0.0487,0.18846 0.0972,0.37681 0.14578,0.56514 0.92327,-0.56507 1.84644,-1.13017 2.76958,-1.69536 1.7979,-1.17729 3.59566,-2.35459 5.39339,-3.53199 2.2838,-1.69533 4.56745,-3.39066 6.85107,-5.086076 2.23522,-1.88369 4.47028,-3.767388 6.70531,-5.651183 2.2838,-1.506954 4.56744,-3.013899 6.85108,-4.520946 1.84649,-0.80055 3.69283,-1.601117 5.53917,-2.40176 1.36059,-0.141223 2.72105,-0.282497 4.08149,-0.423839 1.84648,0.518095 3.69284,1.036114 5.53917,1.554082 1.31199,0.989037 2.62387,1.977972 3.93573,2.966873 0.82608,0.894848 1.65208,1.789595 2.47804,2.684307 -0.0486,0.188437 -0.0971,0.376813 -0.14578,0.565122 -0.48584,-0.141223 -0.97172,-0.282505 -1.45767,-0.423839 -1.55483,-1.365671 -3.10964,-2.731351 -4.66456,-4.097107 -1.40906,-0.470891 -2.81811,-0.941807 -4.22726,-1.4128 -1.11751,-0.09413 -2.23503,-0.188317 -3.35264,-0.282556 -1.70061,0.706472 -3.40118,1.41285 -5.10187,2.119195 -1.11752,0.470993 -2.23504,0.941917 -3.35266,1.412791 -1.7006,1.271602 -3.40118,2.543093 -5.10187,3.814561 -1.84635,1.601253 -3.6927,3.202395 -5.53917,4.803512 -2.23507,1.93092 -4.47013,3.861693 -6.70529,5.792463 -1.79778,1.41288 -3.59554,2.82565 -5.39341,4.23839 -0.82597,0.51809 -1.65196,1.03611 -2.47805,1.55406 0.24302,0.14136 0.48596,0.28264 0.72884,0.42386 1.89508,0.14133 3.79002,0.28261 5.68495,0.42383 1.79788,0.32972 3.59565,0.65937 5.39339,0.98895 0.82608,0.23554 1.65209,0.471 2.47804,0.70642 1.60355,-0.18832 3.20696,-0.3767 4.81033,-0.56513 2.67252,-0.14123 5.34488,-0.28249 8.01723,-0.42384 1.31199,0.0942 2.62386,0.18843 3.93572,0.28255 1.02046,0.42392 2.0408,0.84775 3.06111,1.27153 0.77751,0.89485 1.55491,1.7896 2.33228,2.68431 0.3402,0.51809 0.68032,1.03611 1.02039,1.55409 0.24301,0.98903 0.48595,1.97796 0.72882,2.96686 7e-5,0.61228 7e-5,1.22449 0,1.83663 -0.0486,0.471 -0.0971,0.94194 -0.14577,1.41281 -0.34007,0.18843 -0.68018,0.37679 -1.02037,0.5651 0.0487,-1.45984 0.0972,-2.91972 0.14577,-4.37966 -0.6802,-1.31859 -1.36043,-2.63715 -2.04075,-3.95583 -0.6316,-0.56507 -1.26324,-1.13019 -1.89496,-1.69536 -1.06893,-0.28251 -2.13788,-0.56505 -3.20691,-0.84768 -1.36046,-0.0941 -2.72092,-0.18831 -4.08148,-0.28255 -1.79777,0.28262 -3.59554,0.56518 -5.3934,0.84767 -1.65201,0.23554 -3.30401,0.471 -4.9561,0.70642 -1.50623,-0.0941 -3.01247,-0.18834 -4.51879,-0.28258 -1.50623,-0.37668 -3.01247,-0.75344 -4.5188,-1.13023 -1.40905,-0.0941 -2.8181,-0.18831 -4.22726,-0.28256 -0.72878,-0.0941 -1.4576,-0.18832 -2.1865,-0.28255 -0.38867,-0.0471 -0.77737,-0.0941 -1.16615,-0.1413 0.76384,0.22694 1.52758,0.45379 2.29127,0.68059 2.07173,0.71819 4.14331,1.43631 6.21489,2.15438 1.45428,0.54817 2.90845,1.09628 4.36259,1.64433 3.49601,1.97095 6.99181,3.94177 10.48764,5.91257 5.30939,1.97081 10.61853,3.941487 15.92771,5.912167 2.1464,1.31389 4.29263,2.62768 6.43887,3.94144 1.91218,2.05221 3.82423,4.10428 5.73626,6.15633 0.8591,1.36249 1.71812,2.72486 2.57708,4.08722 -1.40564,-1.28669 -2.8113,-2.57338 -4.21704,-3.86014 -1.56182,-1.66513 -3.12367,-3.33026 -4.6856,-4.99548 -2.18659,-1.28668 -4.37315,-2.57337 -6.55984,-3.86014 -2.34278,-0.75684 -4.68554,-1.51372 -7.0284,-2.27067 -1.9523,-0.52978 -3.90459,-1.05959 -5.857,-1.58948 -1.09325,-0.45407 -2.18655,-0.9082 -3.27991,-1.362387 -2.73326,-1.43805 -5.46647,-2.87612 -8.19979,-4.31428 -2.88945,-1.21098 -5.77885,-2.42198 -8.66836,-3.63307 -2.37045,-0.50796 -4.74087,-1.01595 -7.11139,-1.52401" />
    <path
       style="display:inline;fill:none;fill-opacity:1;stroke:#000000;stroke-width:1;stroke-linecap:butt;stroke-linejoin:miter;stroke-miterlimit:4;stroke-dasharray:none;stroke-opacity:1"
       d="m 66.087782,89.445584 c -0.942108,-0.730448 -1.857299,-1.878348 -2.09958,-2.948001 -0.242281,-1.069654 0.188388,-2.061005 0.753667,-2.765408 0.565278,-0.704404 1.265111,-1.12181 2.261085,-1.173964 0.995975,-0.05215 2.287969,0.260896 3.176219,0.860967 0.888249,0.60007 1.372742,1.487048 1.480379,2.478408 0.107636,0.991359 -0.161525,2.087027 -0.672946,2.921841 -0.511421,0.834814 -1.265071,1.408734 -2.126397,1.539196 -0.861326,0.130461 -1.830319,-0.182592 -2.772427,-0.913039 z"
       id="path1270"
       inkscape:path-effect="#path-effect1272"
       inkscape:original-d="m 66.06079,89.862943 c -0.9151,-1.14782 -1.83029,-2.29572 -2.74554,-3.44366 0.43075,-0.99132 0.86142,-1.98267 1.29202,-2.97408 0.69992,-0.41736 1.39975,-0.83477 2.09952,-1.25223 1.29213,0.31312 2.58412,0.62619 3.87607,0.93917 0.48459,0.88709 0.96908,1.77407 1.45352,2.66101 -0.26912,1.09581 -0.53827,2.19148 -0.80752,3.28715 -0.75362,0.57401 -1.50727,1.14793 -2.26103,1.72182 -0.96896,-0.313 -1.93795,-0.62606 -2.90704,-0.93918 z" />
  </g>
</svg>
