<?xml version="1.0" encoding="UTF-8" standalone="no"?>
<!-- Created with Inkscape (http://www.inkscape.org/) -->

<svg
   width="148mm"
   height="210mm"
   viewBox="0 0 148 210"
   version="1.1"
   id="svg137"
   inkscape:version="1.1 (c4e8f9e, 2021-05-24)"
   sodipodi:docname="Pmin_vector.svg"
   xmlns:inkscape="http://www.inkscape.org/namespaces/inkscape"
   xmlns:sodipodi="http://sodipodi.sourceforge.net/DTD/sodipodi-0.dtd"
   xmlns="http://www.w3.org/2000/svg"
   xmlns:svg="http://www.w3.org/2000/svg">
  <sodipodi:namedview
     id="namedview139"
     pagecolor="#ffffff"
     bordercolor="#999999"
     borderopacity="1"
     inkscape:pageshadow="0"
     inkscape:pageopacity="0"
     inkscape:pagecheckerboard="0"
     inkscape:document-units="mm"
     showgrid="false"
     inkscape:zoom="0.57994529"
     inkscape:cx="397.45128"
     inkscape:cy="285.37175"
     inkscape:window-width="1312"
     inkscape:window-height="847"
     inkscape:window-x="0"
     inkscape:window-y="86"
     inkscape:window-maximized="0"
     inkscape:current-layer="layer1" />
  <defs
     id="defs134">
    <inkscape:path-effect
       effect="bspline"
       id="path-effect892"
       is_visible="true"
       lpeversion="1"
       weight="33.333333"
       steps="2"
       helper_size="0"
       apply_no_weight="true"
       apply_with_weight="true"
       only_selected="false" />
    <inkscape:path-effect
       effect="bspline"
       id="path-effect905"
       is_visible="true"
       lpeversion="1"
       weight="33.333333"
       steps="2"
       helper_size="0"
       apply_no_weight="true"
       apply_with_weight="true"
       only_selected="false" />
    <inkscape:path-effect
       effect="bspline"
       id="path-effect909"
       is_visible="true"
       lpeversion="1"
       weight="33.333333"
       steps="2"
       helper_size="0"
       apply_no_weight="true"
       apply_with_weight="true"
       only_selected="false" />
    <inkscape:path-effect
       effect="bspline"
       id="path-effect913"
       is_visible="true"
       lpeversion="1"
       weight="33.333333"
       steps="2"
       helper_size="0"
       apply_no_weight="true"
       apply_with_weight="true"
       only_selected="false" />
    <inkscape:path-effect
       effect="bspline"
       id="path-effect1129"
       is_visible="true"
       lpeversion="1"
       weight="33.333333"
       steps="2"
       helper_size="0"
       apply_no_weight="true"
       apply_with_weight="true"
       only_selected="false" />
    <inkscape:path-effect
       effect="bspline"
       id="path-effect1326"
       is_visible="true"
       lpeversion="1"
       weight="33.333333"
       steps="2"
       helper_size="0"
       apply_no_weight="true"
       apply_with_weight="true"
       only_selected="false" />
  </defs>
  <g
     inkscape:label="Layer 1"
     inkscape:groupmode="layer"
     id="layer1">
    <path
       style="display:inline;mix-blend-mode:normal;fill:none;fill-opacity:1;fill-rule:nonzero;stroke:#000000;stroke-width:1;stroke-linecap:butt;stroke-linejoin:miter;stroke-miterlimit:4;stroke-dasharray:none;stroke-opacity:1"
       d="m 27.668246,66.553905 c 3.533086,0.820201 9.71583,3.217591 14.573734,4.794814 4.857904,1.577222 8.390834,2.334281 11.608381,2.460424 3.217546,0.126143 6.119596,-0.378561 8.264602,-1.041009 2.145005,-0.662448 3.532947,-1.482595 5.362532,-2.996744 1.829586,-1.51415 4.100756,-3.722231 6.277352,-5.867285 2.176597,-2.145053 4.258496,-4.226956 6.119665,-5.772664 1.861169,-1.545708 3.50146,-2.555116 5.236472,-3.249101 1.735013,-0.693984 3.564562,-1.072512 4.542414,-1.040856 0.977852,0.03166 1.104029,0.473267 1.167092,1.072609 0.06306,0.599343 0.06306,1.356397 -0.15777,2.334258 -0.220834,0.977861 -0.662451,2.176529 -1.135628,3.312137 -0.473177,1.135609 -0.977882,2.208101 -1.167124,3.406864 -0.189241,1.198764 -0.06306,2.523603 0.347058,4.037773 0.410119,1.514169 1.104083,3.217542 2.11353,5.488786 1.009448,2.271244 2.334295,5.110201 4.132404,7.381401 1.798109,2.2712 4.069279,3.97458 6.34052,5.299433 2.27124,1.324853 4.54241,2.271171 6.93981,2.838942 2.3974,0.567771 4.92092,0.757038 7.2237,0.914763 2.30277,0.157724 4.38467,0.283902 5.86728,0.410089 1.48262,0.126188 2.36585,0.252362 2.90204,0.757166 0.53619,0.504804 0.72546,1.388033 0.18916,2.58666 -0.5363,1.198627 -1.79806,2.712731 -3.97464,4.479232 -2.17659,1.766501 -5.2679,3.785313 -7.63374,5.204823 -2.36584,1.41951 -4.00614,2.23967 -5.67806,3.72231 -1.67192,1.48264 -3.3753,3.62763 -4.57401,5.42571 -1.19871,1.79808 -1.89268,3.24911 -2.42893,6.05666 -0.53625,2.80755 -0.914776,6.97136 -1.104036,11.60848 -0.18926,4.63711 -0.18926,9.74724 -0.09462,13.94271 0.09464,4.19547 0.283903,7.47605 0.283884,9.58952 -1.9e-5,2.11347 -0.189282,3.05979 -1.0094,3.78525 -0.820119,0.72545 -2.271138,1.23015 -3.46979,1.26176 -1.198651,0.0316 -2.144978,-0.41002 -5.173344,-4.38467 -3.028367,-3.97465 -8.13849,-11.48212 -11.04063,-16.24537 -2.902139,-4.76325 -3.596108,-6.78207 -4.416228,-8.23315 -0.820121,-1.45108 -1.766439,-2.33431 -2.397321,-2.83906 -0.630882,-0.50475 -0.946324,-0.63093 -1.892718,-0.5048 -0.946393,0.12614 -2.523591,0.50467 -4.952587,1.54565 -2.428996,1.04099 -5.70957,2.74436 -8.390892,4.22697 -2.681322,1.48262 -4.763222,2.74438 -7.255285,4.44781 -2.492063,1.70344 -5.394107,3.84843 -8.075396,5.39411 -2.681289,1.54569 -5.141721,2.49201 -7.507571,3.186 -2.36585,0.69399 -4.637016,1.13561 -6.214224,1.23028 -1.577208,0.0947 -2.460438,-0.15768 -3.2491,-0.85161 -0.788661,-0.69393 -1.482627,-1.82951 -1.798139,-2.58661 -0.315513,-0.7571 -0.252424,-1.13564 0.37849,-1.92433 0.630913,-0.78869 1.829586,-1.98736 3.501471,-3.69079 1.671885,-1.70343 3.81688,-3.91151 5.678012,-6.52972 1.861132,-2.6182 3.438336,-5.64643 4.826311,-9.05326 1.387974,-3.40684 2.586643,-7.19211 3.343727,-11.1983 0.757083,-4.00618 1.072523,-8.23309 1.072542,-11.198284 1.8e-5,-2.96519 -0.31542,-4.668561 -0.914739,-6.277348 -0.599318,-1.608787 -1.48255,-3.122898 -3.974596,-6.182783 -2.492046,-3.059885 -6.592762,-7.665307 -9.084814,-10.693596 -2.492052,-3.02829 -3.375283,-4.47931 -3.911584,-5.741108 -0.536302,-1.261797 -0.725567,-2.334297 -0.378576,-3.249193 0.34699,-0.914896 1.230223,-1.671955 4.763309,-0.851753 z"
       id="path890"
       inkscape:path-effect="#path-effect892"
       inkscape:original-d="m 25.018396,64.976642 c 6.182903,2.39755 12.365647,4.79494 18.548233,7.19217 3.533229,0.75725 7.066159,1.51431 10.598989,2.27122 2.90232,-0.50457 5.80437,-1.00927 8.70631,-1.51414 1.38815,-0.82002 2.77609,-1.64017 4.16389,-2.46048 2.27142,-2.20801 4.542591,-4.41609 6.813641,-6.624372 2.082145,-2.081828 4.164045,-4.16373 6.245825,-6.245835 1.64051,-1.009288 3.2808,-2.018697 4.92097,-3.028282 1.82978,-0.378386 3.65933,-0.756913 5.48876,-1.135605 0.12634,0.441791 0.25251,0.883405 0.37854,1.324873 1.6e-4,0.757245 1.6e-4,1.514299 0,2.271212 -0.44148,1.198878 -0.88309,2.397549 -1.32488,3.596086 -0.50457,1.072697 -1.00927,2.145191 -1.51415,3.217551 0.12635,1.325062 0.25252,2.649902 0.37855,3.974622 0.69415,1.7036 1.38812,3.40697 2.08194,5.11023 1.32506,2.83923 2.6499,5.67819 3.97462,8.51704 2.27142,1.7036 4.54259,3.40698 6.813626,5.11023 2.27142,0.94652 4.54259,1.89284 6.81365,2.83901 2.52377,0.18944 5.04729,0.3787 7.5707,0.56781 2.08214,0.12635 4.16404,0.25252 6.24583,0.37854 0.88343,0.12634 1.76666,0.25251 2.64975,0.37853 0.18944,0.88343 0.3787,1.76666 0.56781,2.64975 -1.26166,1.51433 -2.52341,3.02844 -3.78536,4.54242 -3.09128,2.01906 -6.18259,4.037878 -9.27411,6.056568 -1.64019,0.82033 -3.28049,1.64048 -4.92096,2.46049 -1.70329,2.14523 -3.40667,4.29022 -5.11024,6.4351 -0.69382,1.45124 -1.3878,2.90226 -2.081936,4.35316 -0.37838,4.16413 -0.75691,8.32794 -1.1356,12.49167 1.6e-4,5.11048 1.6e-4,10.22061 0,15.33068 0.18943,3.28086 0.37869,6.56144 0.5678,9.84191 -0.18911,0.94652 -0.37837,1.89284 -0.5678,2.83902 -1.45093,0.50488 -2.90195,1.00958 -4.35316,1.51414 -0.94619,-0.44147 -1.89252,-0.88308 -2.83901,-1.32487 -5.11018,-7.50761 -10.2203,-15.01508 -15.33068,-22.52286 -0.69384,-2.01873 -1.3878,-4.03755 -2.081945,-6.05656 -0.9462,-0.88311 -1.89252,-1.76634 -2.83901,-2.64975 -0.3153,-0.12602 -0.63074,-0.2522 -0.946341,-0.37853 -1.57711,0.3787 -3.15431,0.75722 -4.7317,1.13561 -3.28055,1.70359 -6.56112,3.40697 -9.84192,5.11022 -2.08183,1.26197 -4.16373,2.52373 -6.24583,3.78536 -2.90201,2.14523 -5.804053,4.29022 -8.706317,6.4351 -2.460371,0.94651 -4.920802,1.89283 -7.38144,2.83901 -2.2711,0.44179 -4.542266,0.88341 -6.813636,1.32488 -0.883109,-0.25221 -1.76634,-0.50456 -2.649748,-0.75707 -0.693837,-1.13548 -1.387805,-2.27106 -2.081944,-3.40682 0.06324,-0.37838 0.126336,-0.75692 0.189267,-1.13562 1.198877,-1.19855 2.397548,-2.39722 3.596086,-3.59607 2.145235,-2.20801 4.290226,-4.4161 6.435101,-6.62438 1.577422,-3.02818 3.154621,-6.05641 4.731694,-9.08484 1.198875,-3.78528 2.397548,-7.57055 3.596085,-11.35606 0.315611,-4.22691 0.631051,-8.45382 0.946337,-12.680948 -0.315292,-1.70329 -0.630733,-3.40666 -0.946337,-5.11023 -0.883108,-1.51401 -1.766341,-3.02812 -2.649748,-4.54242 -4.100724,-4.60545 -8.201442,-9.21087 -12.302399,-13.81655 -0.883109,-1.45092 -1.766341,-2.90194 -2.649748,-4.35315 -0.189114,-1.07238 -0.378378,-2.14488 -0.567804,-3.21755 0.883426,-0.75693 1.766658,-1.51399 2.649749,-2.27122 z" />
    <path
       style="fill:none;stroke:#000000;stroke-width:1;stroke-linecap:butt;stroke-linejoin:miter;stroke-miterlimit:4;stroke-dasharray:none;stroke-opacity:1"
       d="m 118.89569,94.880582 c -7.94929,0.694092 -15.8987,1.388194 -20.851284,1.545998 -4.952589,0.157804 -6.908317,-0.220725 -8.044035,-0.06298 -1.135718,0.157745 -1.451157,0.851716 -1.261843,2.74448 0.189315,1.89276 0.883281,4.98407 1.671916,7.91775 0.788634,2.93369 1.671862,5.70956 2.271191,8.80096 0.599328,3.0914 0.914769,6.49815 1.545676,11.26145 0.630907,4.7633 1.577224,10.88283 2.208112,15.89846 0.630888,5.01563 0.946329,8.92709 1.261761,12.83844"
       id="path903"
       inkscape:path-effect="#path-effect905"
       inkscape:original-d="m 118.89569,94.880582 c -7.94927,0.69427 -15.89868,1.38837 -23.848256,2.08231 -1.95564,-0.37839 -3.91137,-0.75691 -5.8673,-1.13561 -0.31529,0.69415 -0.63073,1.38812 -0.94633,2.08194 0.69415,3.091598 1.38812,6.182898 2.08195,9.274128 0.88342,2.77614 1.76664,5.55201 2.64974,8.32778 0.31561,3.40705 0.63104,6.8138 0.94634,10.22045 0.94651,6.11994 1.89284,12.23947 2.83901,18.35897 0.31561,3.91177 0.63105,7.82323 0.94634,11.73459"
       sodipodi:nodetypes="ccccccccc" />
    <path
       style="fill:none;stroke:#000000;stroke-width:1;stroke-linecap:butt;stroke-linejoin:miter;stroke-miterlimit:4;stroke-dasharray:none;stroke-opacity:1"
       d="m 93.344034,157.52856 c -2.838947,-7.31817 -5.677963,-14.63652 -8.043834,-21.35558 -2.365871,-6.71906 -4.258509,-12.83859 -5.457218,-16.97096 -1.198709,-4.13237 -1.703412,-6.27736 -2.208137,-8.80096 -0.504725,-2.5236 -1.009435,-5.42567 -1.387952,-7.22371 -0.378518,-1.79803 -0.630872,-2.49201 -2.302808,-0.72555 -1.671936,1.76646 -4.763245,5.99336 -8.359367,10.31501 -3.596122,4.32165 -7.696846,8.73781 -11.419134,12.49164 -3.722289,3.75382 -7.065954,6.84514 -11.040605,9.93653 -3.974652,3.0914 -8.580077,6.18271 -11.324432,7.85458 -2.744355,1.67186 -3.627587,1.92421 -4.51094,2.17659"
       id="path907"
       inkscape:path-effect="#path-effect909"
       inkscape:original-d="m 93.344034,157.52856 c -2.83887,-7.3182 -5.67788,-14.63655 -8.51705,-21.95505 -1.89255,-6.11962 -3.78519,-12.23915 -5.67803,-18.35897 -0.50457,-2.14492 -1.00927,-4.28991 -1.51414,-6.4351 -0.50457,-2.902 -1.00928,-5.80407 -1.51415,-8.70633 -0.25219,-0.69383 -0.50455,-1.3878 -0.75707,-2.081938 -3.091265,4.227218 -6.182576,8.454118 -9.274106,12.680948 -4.10073,4.41649 -8.20145,8.83265 -12.30241,13.24873 -3.34363,3.09159 -6.68729,6.18291 -10.031183,9.27412 -4.605447,3.09159 -9.210868,6.18291 -13.81654,9.27412 -0.883108,0.25252 -1.76634,0.50487 -2.649748,0.75706" />
    <path
       style="fill:none;stroke:#000000;stroke-width:1;stroke-linecap:butt;stroke-linejoin:miter;stroke-miterlimit:4;stroke-dasharray:none;stroke-opacity:1"
       d="m 28.803748,136.70912 c 4.794772,-5.93038 9.589553,-11.86077 13.753471,-17.47575 4.163917,-5.61499 7.696837,-10.91438 10.882882,-15.10986 3.186046,-4.195485 6.025007,-7.286794 6.813706,-9.274056 0.788698,-1.987261 -0.473067,-2.870493 -2.428867,-3.43835 -1.955799,-0.567858 -4.605489,-0.820209 -7.854616,-2.145058 -3.249128,-1.324849 -7.097493,-3.722196 -10.882889,-6.308876 -3.785396,-2.586681 -7.50758,-5.362548 -9.841894,-7.160591 -2.334314,-1.798044 -3.280637,-2.618191 -4.227145,-3.438497"
       id="path911"
       inkscape:path-effect="#path-effect913"
       inkscape:original-d="m 28.803748,136.70912 c 4.794941,-5.93024 9.589722,-11.86063 14.384346,-17.79117 3.533224,-5.29945 7.066154,-10.59883 10.598984,-15.8985 2.83924,-3.091268 5.6782,-6.182578 8.51706,-9.274118 -1.26166,-0.8831 -2.52342,-1.76634 -3.78536,-2.64974 -2.64965,-0.25221 -5.29934,-0.50456 -7.94925,-0.75707 -3.84836,-2.39728 -7.696723,-4.79463 -11.545323,-7.19218 -3.722183,-2.77583 -7.444372,-5.55169 -11.166793,-8.32778 -0.9462,-0.82001 -1.89252,-1.64016 -2.839016,-2.46048" />
    <path
       style="fill:none;stroke:#000000;stroke-width:1;stroke-linecap:butt;stroke-linejoin:miter;stroke-miterlimit:4;stroke-dasharray:none;stroke-opacity:1"
       d="m 30.837978,68.943972 c 6.92601,2.37545 13.851833,4.750835 19.389653,6.13884 5.537821,1.388005 9.687511,1.788667 12.974676,2.110608 3.287165,0.32194 5.711635,0.565142 7.497389,0.62636 1.785755,0.06122 2.932724,-0.05951 4.502235,-2.293138 1.569511,-2.233623 3.561622,-6.580053 5.070836,-9.598493 1.509215,-3.01844 2.535452,-4.708718 3.591929,-6.036859 1.056476,-1.32814 2.143079,-2.294008 3.229698,-3.25989"
       id="path1127"
       inkscape:path-effect="#path-effect1129"
       inkscape:original-d="m 30.837978,68.943972 c 6.925976,2.37555 13.8518,4.75093 20.77745,7.12615 4.15001,0.40084 8.2997,0.8015 12.44931,1.20201 2.42472,0.24337 4.84919,0.48657 7.273551,0.72962 1.14718,-0.12058 2.29415,-0.24131 3.441,-0.36221 1.992335,-4.34644 3.984445,-8.69287 5.976445,-13.039537 1.02643,-1.690185 2.05267,-3.380462 3.07877,-5.07093 1.08682,-0.965754 2.17342,-1.931625 3.25989,-2.897675" />
    <path
       style="fill:none;stroke:#000000;stroke-width:1;stroke-linecap:butt;stroke-linejoin:miter;stroke-miterlimit:4;stroke-dasharray:none;stroke-opacity:1"
       d="m 101.76387,87.419192 c -3.682263,-1.146936 -7.364724,-2.293933 -9.507883,-4.708636 -2.143158,-2.414703 -2.74683,-6.097093 -3.350543,-9.779734"
       id="path1324"
       inkscape:path-effect="#path-effect1326"
       inkscape:original-d="m 101.76387,87.419192 c -3.682296,-1.14683 -7.364756,-2.29383 -11.047376,-3.44099 -0.60354,-3.68237 -1.20721,-7.36476 -1.81105,-11.04738" />
  </g>
</svg>
